<?xml version="1.0" encoding="UTF-8" standalone="no"?>
<svg
   xmlns:dc="http://purl.org/dc/elements/1.1/"
   xmlns:cc="http://creativecommons.org/ns#"
   xmlns:rdf="http://www.w3.org/1999/02/22-rdf-syntax-ns#"
   xmlns:svg="http://www.w3.org/2000/svg"
   xmlns="http://www.w3.org/2000/svg"
   id="svg1718"
   version="1.1"
   viewBox="0 0 27.61121 27.437643"
   height="27.437643mm"
   width="27.61121mm">
  <defs
     id="defs1712" />
  <metadata
     id="metadata1715">
    <rdf:RDF>
      <cc:Work
         rdf:about="">
        <dc:format>image/svg+xml</dc:format>
        <dc:type
           rdf:resource="http://purl.org/dc/dcmitype/StillImage" />
        <dc:title></dc:title>
      </cc:Work>
    </rdf:RDF>
  </metadata>
  <g
     transform="translate(3.1047601e-7,-269.56235)"
     id="layer1">
    <g
       transform="translate(-83.712256,154.85855)"
       id="g107">
      <g
         transform="matrix(0.35277777,0,0,-0.35277777,-21.084332,255.53604)"
         id="g1673">
        <g
           transform="translate(316.4474,377.7672)"
           id="g750">
          <path
             id="path752"
             style="fill:#e72721;fill-opacity:1;fill-rule:nonzero;stroke:none"
             d="M 0,0 V -0.855 C 0,-1.443 -0.476,-1.92 -1.064,-1.92 h -7.177 c -0.588,0 -1.064,0.477 -1.064,1.065 v 5.854 c 0,0.588 0.476,1.064 1.064,1.064 h 7.177 C -0.476,6.063 0,5.587 0,4.999 V 4.274 C 0,3.687 -0.476,3.21 -1.064,3.21 h -5.784 c -0.588,0 -1.064,-0.476 -1.064,-1.064 V 2.128 c 0,-0.587 0.476,-1.064 1.064,-1.064 h 5.784 C -0.476,1.064 0,0.587 0,0 m 2.492,4.274 v 0.725 c 0,0.588 0.476,1.064 1.064,1.064 h 7.123 c 0.588,0 1.065,-0.476 1.065,-1.064 v -5.854 c 0,-0.588 -0.477,-1.065 -1.065,-1.065 H 3.556 c -0.588,0 -1.064,0.477 -1.064,1.065 V 0 c 0,0.587 0.476,1.064 1.064,1.064 h 5.695 c 0.588,0 1.064,0.477 1.064,1.064 v 0.018 c 0,0.588 -0.476,1.064 -1.064,1.064 H 3.556 c -0.588,0 -1.064,0.477 -1.064,1.064 m -14.405,-19.627 11.295,9.759 C -0.376,-5.385 0,-5.557 0,-5.877 v -8.665 c 0,-0.687 0.558,-1.246 1.246,-1.246 0.688,0 1.246,0.559 1.246,1.246 v 8.636 c 0,0.348 0.408,0.536 0.674,0.31 l 11.431,-9.773 c 0.691,-0.59 1.756,-0.1 1.756,0.809 v 0.025 c 0,0.313 -0.138,0.61 -0.377,0.812 l -10.74,9.095 c -0.195,0.165 -0.078,0.484 0.178,0.484 h 7.758 c 0.588,0 1.064,0.477 1.064,1.065 V 7.26 c 0,0.588 -0.476,1.064 -1.064,1.064 H 3.556 c -0.588,0 -1.064,0.477 -1.064,1.065 v 0.59 c 0,0.587 0.476,1.064 1.064,1.064 h 11.521 c 0.635,0 1.15,0.515 1.15,1.15 0,0.636 -0.515,1.151 -1.15,1.151 H 3.556 c -0.588,0 -1.064,0.476 -1.064,1.064 v 0.212 c 0,0.688 -0.558,1.245 -1.246,1.245 C 0.558,15.865 0,15.308 0,14.62 V 14.408 C 0,13.82 -0.476,13.344 -1.064,13.344 h -11.711 c -0.635,0 -1.15,-0.515 -1.15,-1.151 0,-0.635 0.515,-1.15 1.15,-1.15 H -1.064 C -0.476,11.043 0,10.566 0,9.979 V 9.389 C 0,8.801 -0.476,8.324 -1.064,8.324 h -9.553 c -0.588,0 -1.065,-0.476 -1.065,-1.064 V -3.079 c 0,-0.588 0.477,-1.065 1.065,-1.065 h 7.692 c 0.225,0 0.329,-0.278 0.16,-0.426 l -10.542,-9.175 c -0.233,-0.202 -0.366,-0.495 -0.366,-0.802 0,-0.911 1.07,-1.402 1.76,-0.806" />
        </g>
        <g
           transform="translate(365.1574,334.3536)"
           id="g754">
          <path
             id="path756"
             style="fill:#e72721;fill-opacity:1;fill-rule:nonzero;stroke:none"
             d="m 0,0 -1.587,-4.097 c -0.178,-0.459 -0.62,-0.761 -1.112,-0.761 h -7.196 c -0.658,0 -1.192,0.533 -1.192,1.192 V 22.81 c 0,0.659 -0.534,1.193 -1.192,1.193 -0.659,0 -1.193,-0.534 -1.193,-1.193 V -3.666 c 0,-0.659 -0.533,-1.192 -1.192,-1.192 h -7.303 c -0.492,0 -0.934,0.302 -1.112,0.761 L -24.666,0 c -0.386,0.997 -1.787,1.021 -2.208,0.039 l -2.404,-5.614 c -0.337,-0.787 0.24,-1.662 1.096,-1.662 H 3.516 c 0.856,0 1.434,0.875 1.096,1.662 L 2.208,0.039 C 1.787,1.021 0.386,0.997 0,0" />
        </g>
        <g
           transform="translate(318.9567,341.0777)"
           id="g758">
          <path
             id="path760"
             style="fill:#e72721;fill-opacity:1;fill-rule:nonzero;stroke:none"
             d="m 0,0 0.039,16.213 c 0.002,0.684 -0.553,1.24 -1.237,1.24 h -0.015 c -0.683,0 -1.237,-0.555 -1.237,-1.238 l 0.01,-16.249 c 0,-0.361 -0.158,-0.704 -0.432,-0.94 l -12.92,-11.078 c -0.274,-0.235 -0.432,-0.578 -0.432,-0.939 0,-1.056 1.239,-1.626 2.041,-0.939 l 12.204,10.46 c 0.464,0.398 1.149,0.397 1.612,-0.002 l 12.125,-10.445 c 0.802,-0.69 2.044,-0.12 2.044,0.938 v 0.009 c 0,0.361 -0.158,0.704 -0.432,0.939 L 0.432,-0.942 C 0.157,-0.707 -0.001,-0.362 0,0" />
        </g>
        <g
           transform="translate(305.7023,348.7013)"
           id="g762">
          <path
             id="path764"
             style="fill:#e72721;fill-opacity:1;fill-rule:nonzero;stroke:none"
             d="M 0,0 C 0.357,-1.368 0.707,-2.832 0.707,-3.186 0.707,-3.689 0.39,-4.097 0,-4.097 c -0.39,0 -0.707,0.408 -0.707,0.911 0,0.354 0.35,1.818 0.707,3.186 m -0.181,5.406 c -0.109,-0.302 -2.65,-7.409 -2.65,-8.883 0,-1.561 1.27,-2.831 2.831,-2.831 1.561,0 2.831,1.27 2.831,2.831 0,1.474 -2.542,8.581 -2.65,8.883 -0.128,0.128 -0.249,0.145 -0.362,0" />
        </g>
        <g
           transform="translate(329.8654,348.7013)"
           id="g766">
          <path
             id="path768"
             style="fill:#e72721;fill-opacity:1;fill-rule:nonzero;stroke:none"
             d="m 0,0 c 0.357,-1.368 0.707,-2.832 0.707,-3.186 0,-0.503 -0.318,-0.911 -0.707,-0.911 -0.39,0 -0.707,0.408 -0.707,0.911 0,0.354 0.35,1.818 0.707,3.186 m -0.181,5.406 c -0.109,-0.302 -2.65,-7.409 -2.65,-8.883 0,-1.561 1.27,-2.831 2.831,-2.831 1.561,0 2.831,1.27 2.831,2.831 0,1.474 -2.542,8.581 -2.65,8.883 -0.128,0.128 -0.249,0.145 -0.362,0" />
        </g>
        <g
           transform="translate(339.924,373.2955)"
           id="g770">
          <path
             id="path772"
             style="fill:#e72721;fill-opacity:1;fill-rule:nonzero;stroke:none"
             d="m 0,0 h 25.724 c 0.604,0 1.092,0.489 1.092,1.092 0,0.604 -0.488,1.093 -1.092,1.093 H 0 C -0.604,2.185 -1.093,1.696 -1.093,1.092 -1.093,0.489 -0.604,0 0,0" />
        </g>
        <g
           transform="translate(339.1755,385.0396)"
           id="g774">
          <path
             id="path776"
             style="fill:#e72721;fill-opacity:1;fill-rule:nonzero;stroke:none"
             d="m 0,0 h 11.783 c 0.342,0 0.62,-0.278 0.62,-0.621 v -5.632 c 0,-0.646 0.524,-1.17 1.17,-1.17 0.646,0 1.169,0.524 1.169,1.17 v 5.632 C 14.742,-0.278 15.02,0 15.363,0 h 11.896 c 0.343,0 0.62,-0.278 0.62,-0.621 v -5.22 c 0,-0.688 0.558,-1.246 1.246,-1.246 0.689,0 1.247,0.558 1.247,1.246 V 0.42 c 0,0.912 -0.739,1.651 -1.651,1.651 H 15.363 c -0.343,0 -0.621,0.278 -0.621,0.62 0,0.595 -0.59,1.082 -1.184,1.082 -0.596,0 -1.155,-0.487 -1.155,-1.082 0,-0.342 -0.278,-0.62 -0.62,-0.62 H -1.423 c -0.912,0 -1.651,-0.739 -1.651,-1.651 v -6.28 c 0,-0.678 0.549,-1.227 1.227,-1.227 0.677,0 1.226,0.549 1.226,1.227 v 5.239 C -0.621,-0.278 -0.343,0 0,0" />
        </g>
        <g
           transform="translate(360.235,380.9405)"
           id="g778">
          <path
             id="path780"
             style="fill:#e72721;fill-opacity:1;fill-rule:nonzero;stroke:none"
             d="M 0,0 C 1.001,-0.19 1.867,0.674 1.677,1.675 1.572,2.232 1.117,2.688 0.561,2.795 -0.442,2.99 -1.312,2.122 -1.119,1.118 -1.013,0.561 -0.557,0.106 0,0" />
        </g>
        <g
           transform="translate(360.2355,376.9591)"
           id="g782">
          <path
             id="path784"
             style="fill:#e72721;fill-opacity:1;fill-rule:nonzero;stroke:none"
             d="M 0,0 C 1.001,-0.19 1.867,0.675 1.677,1.675 1.571,2.232 1.117,2.688 0.56,2.796 -0.443,2.99 -1.312,2.121 -1.12,1.117 -1.013,0.561 -0.557,0.105 0,0" />
        </g>
        <g
           transform="translate(344.8752,380.941)"
           id="g786">
          <path
             id="path788"
             style="fill:#e72721;fill-opacity:1;fill-rule:nonzero;stroke:none"
             d="M 0,0 C 1.001,-0.192 1.869,0.673 1.679,1.676 1.573,2.232 1.118,2.688 0.561,2.795 -0.44,2.988 -1.308,2.122 -1.118,1.12 -1.012,0.563 -0.557,0.107 0,0" />
        </g>
        <g
           transform="translate(344.6867,377.0079)"
           id="g790">
          <path
             id="path792"
             style="fill:#e72721;fill-opacity:1;fill-rule:nonzero;stroke:none"
             d="M 0,0 C 1.141,-0.369 2.187,0.674 1.819,1.817 1.686,2.229 1.351,2.565 0.938,2.699 -0.203,3.068 -1.249,2.024 -0.88,0.881 -0.748,0.469 -0.413,0.133 0,0" />
        </g>
        <g
           transform="translate(364.402,362.7926)"
           id="g794">
          <path
             id="path796"
             style="fill:#e72721;fill-opacity:1;fill-rule:nonzero;stroke:none"
             d="M 0,0 -3.506,3.439 C -3.721,3.65 -4.01,3.768 -4.311,3.768 -5.341,3.768 -5.85,2.514 -5.11,1.796 L -4.423,1.128 C -4.229,0.939 -4.362,0.609 -4.634,0.609 H -17.47 c -0.275,0 -0.402,0.342 -0.193,0.522 l 4.938,4.246 c 0.167,0.144 0.379,0.222 0.6,0.222 H 1.232 c 0.603,0 1.092,0.489 1.092,1.093 0,0.603 -0.489,1.092 -1.092,1.092 h -25.739 c -0.603,0 -1.092,-0.489 -1.092,-1.092 0,-0.604 0.489,-1.093 1.092,-1.093 h 7.653 c 0.357,0 0.522,-0.444 0.251,-0.677 l -5.674,-4.881 c -0.647,-0.557 -0.253,-1.617 0.6,-1.617 H -0.644 C 0.18,-1.576 0.588,-0.577 0,0" />
        </g>
        <g
           transform="translate(344.2253,389.6661)"
           id="g798">
          <path
             id="path800"
             style="fill:#e72721;fill-opacity:1;fill-rule:nonzero;stroke:none"
             d="M 0,0 C 1.062,0 2.037,0.147 2.831,0.395 3.714,0.67 4.653,0.67 5.536,0.395 6.33,0.147 7.305,0 8.367,0 c 1.061,0 2.036,0.147 2.83,0.395 0.883,0.275 1.822,0.275 2.705,0 C 14.696,0.147 15.672,0 16.733,0 c 2.679,0 4.85,0.924 4.85,2.064 0,1.141 -2.171,2.065 -4.85,2.065 -1.061,0 -2.037,-0.147 -2.831,-0.394 -0.883,-0.276 -1.821,-0.276 -2.704,0 C 10.404,3.982 9.428,4.129 8.367,4.129 7.305,4.129 6.329,3.982 5.536,3.735 4.653,3.459 3.714,3.459 2.831,3.735 2.037,3.982 1.062,4.129 0,4.129 -2.679,4.129 -4.85,3.205 -4.85,2.064 -4.85,0.924 -2.679,0 0,0" />
        </g>
        <g
           transform="translate(303.3752,397.2125)"
           id="g802">
          <path
             id="path804"
             style="fill:#e72721;fill-opacity:1;fill-rule:nonzero;stroke:none"
             d="m 0,0 c -2.38,0 -4.317,-1.937 -4.317,-4.317 v -65.147 c 0,-2.381 1.937,-4.317 4.317,-4.317 h 65.639 c 2.381,0 4.318,1.936 4.318,4.317 V -4.317 C 69.957,-1.937 68.02,0 65.639,0 Z M 65.639,-75.779 H 0 c -3.482,0 -6.314,2.833 -6.314,6.315 v 65.147 c 0,3.482 2.832,6.314 6.314,6.314 h 65.639 c 3.482,0 6.315,-2.832 6.315,-6.314 v -65.147 c 0,-3.482 -2.833,-6.315 -6.315,-6.315" />
        </g>
      </g>
    </g>
  </g>
</svg>
