<?xml version="1.0" encoding="UTF-8" standalone="no"?>
<svg
   xmlns:dc="http://purl.org/dc/elements/1.1/"
   xmlns:cc="http://creativecommons.org/ns#"
   xmlns:rdf="http://www.w3.org/1999/02/22-rdf-syntax-ns#"
   xmlns:svg="http://www.w3.org/2000/svg"
   xmlns="http://www.w3.org/2000/svg"
   id="svg12881"
   version="1.1"
   viewBox="0 0 29.120922 60.479965"
   height="60.479965mm"
   width="29.120922mm">
  <defs
     id="defs12875" />
  <metadata
     id="metadata12878">
    <rdf:RDF>
      <cc:Work
         rdf:about="">
        <dc:format>image/svg+xml</dc:format>
        <dc:type
           rdf:resource="http://purl.org/dc/dcmitype/StillImage" />
        <dc:title></dc:title>
      </cc:Work>
    </rdf:RDF>
  </metadata>
  <g
     transform="translate(-91.272872,-118.59335)"
     id="layer1">
    <g
       transform="matrix(0.35277777,0,0,-0.35277777,108.31299,145.08554)"
       id="g8470">
      <path
         id="path8472"
         style="fill:#000000;fill-opacity:1;fill-rule:nonzero;stroke:none"
         d="m 0,0 c 0,-0.423 0.138,-0.603 0.616,-0.603 0.587,0 0.587,-0.034 1.175,-0.034 0.588,0 0.588,0.029 1.177,0.029 0.588,0 0.588,0.086 1.176,0.086 0.587,0 0.587,-0.054 1.175,-0.054 0.588,0 0.588,0.052 1.176,0.052 0.589,0 0.589,-0.069 1.178,-0.069 0.588,0 0.588,0.077 1.176,0.077 0.585,0 0.585,0.019 1.171,0.019 0.586,0 0.586,-0.017 1.172,-0.017 0.589,0 0.589,-0.12 1.179,-0.12 0.587,0 0.587,0.077 1.175,0.077 0.588,0 0.588,-0.032 1.176,-0.032 0.59,0 0.59,0.072 1.179,0.072 0.589,0 0.589,0.019 1.178,0.019 0.59,0 0.59,-0.057 1.179,-0.057 0.591,0 0.591,-0.044 1.18,-0.044 0.59,0 0.59,-0.022 1.179,-0.022 0.591,0 0.591,0.052 1.181,0.052 0.593,0 0.593,-0.077 1.184,-0.077 0.592,0 0.592,0.055 1.184,0.055 0.336,0 0.694,0.062 1.004,0.12 0.434,0.081 0.691,0.214 0.691,0.508 0,0.263 -0.255,0.605 -0.678,0.96 -0.309,0.258 -0.655,0.542 -1.008,0.747 -0.47,0.272 -0.918,0.494 -1.158,0.494 -0.218,0 -0.512,-0.252 -0.88,-0.531 C 21.894,1.521 21.629,1.293 21.344,1.054 21.166,0.904 20.965,0.766 20.77,0.605 20.745,0.586 20.743,0.633 20.713,0.632 20.123,0.613 20.124,0.571 19.534,0.571 c -0.59,0 -0.59,-0.01 -1.18,-0.01 -0.591,0 -0.591,0.068 -1.182,0.068 -0.59,0 -0.59,0.011 -1.181,0.011 -0.591,0 -0.591,-0.055 -1.181,-0.055 -0.588,0 -0.588,-0.034 -1.177,-0.034 -0.591,0 -0.591,0.035 -1.182,0.035 -0.59,0 -0.59,0.028 -1.18,0.028 -0.589,0 -0.589,0.009 -1.179,0.009 C 9.5,0.623 9.5,0.627 8.908,0.627 8.317,0.627 8.317,0.652 7.727,0.652 7.136,0.652 7.136,0.54 6.544,0.54 5.951,0.54 5.951,0.559 5.359,0.559 4.768,0.559 4.768,0.518 4.177,0.518 3.584,0.518 3.584,0.556 2.992,0.556 2.398,0.556 2.398,0.56 1.804,0.56 1.21,0.56 1.21,0.588 0.616,0.588 0.155,0.588 0,0.408 0,0" />
    </g>
    <g
       transform="matrix(0.35277777,0,0,-0.35277777,107.31699,146.69199)"
       id="g8474">
      <path
         id="path8476"
         style="fill:#000000;fill-opacity:1;fill-rule:nonzero;stroke:none"
         d="m 0,0 c 0.576,0 0.576,0.046 1.151,0.046 0.576,0 0.576,-0.084 1.15,-0.084 0.576,0 0.576,0.04 1.151,0.04 0.576,0 0.576,0.052 1.152,0.052 0.576,0 0.576,-0.091 1.151,-0.091 0.576,0 0.576,-0.009 1.152,-0.009 0.577,0 0.577,-0.045 1.156,-0.045 0.578,0 0.578,0.115 1.155,0.115 0.54,0 0.986,-0.337 1.274,-0.793 0.293,-0.463 0.331,-0.986 0.095,-1.484 C 10.414,-2.616 10.316,-3.018 10.116,-3.372 9.922,-3.717 9.731,-4.076 9.506,-4.422 9.308,-4.725 8.938,-4.843 8.642,-5.011 8.337,-5.184 8.041,-5.422 7.687,-5.422 c -0.011,0 -0.022,-0.036 -0.033,-0.036 -0.352,0.005 -0.715,0.064 -1.092,0.075 -0.35,0.011 -0.711,0.051 -1.089,0.067 -0.351,0.015 -0.709,0.142 -1.091,0.163 -0.351,0.017 -0.724,-0.125 -1.105,-0.103 -0.232,0 -0.325,0.039 -0.348,-0.179 -0.009,-0.491 0.066,-0.949 0.094,-1.363 0.037,-0.52 0.05,-0.984 0.14,-1.355 0.157,-0.652 0.413,-1.113 0.705,-1.168 0.271,-0.057 0.467,0.226 0.721,0.589 0.149,0.212 0.346,0.456 0.491,0.813 0.022,0.052 0.069,-0.003 0.116,0.029 0.046,0.032 0.012,0.09 0.069,0.092 0.402,0.015 0.803,-0.051 1.198,-0.034 0.402,0.017 0.796,0.145 1.189,0.164 0.403,0.02 0.799,0.049 1.193,0.07 0.402,0.022 0.801,-0.007 1.195,0.017 0.402,0.025 0.796,0.099 1.189,0.126 0.402,0.027 0.808,-0.056 1.201,-0.025 0.402,0.031 0.794,0.127 1.185,0.161 0.404,0.035 0.799,0.094 1.192,0.132 0.402,0.039 0.803,0.026 1.194,0.067 0.401,0.043 0.787,0.169 1.176,0.215 0.401,0.048 0.8,0.065 1.188,0.116 0.402,0.053 0.786,0.171 1.173,0.227 0.401,0.058 0.818,-0.039 1.203,0.024 0.402,0.064 0.79,0.154 1.174,0.223 0.399,0.072 0.773,0.225 1.154,0.301 0.398,0.079 0.793,0.125 1.17,0.209 0.387,0.089 0.787,0.082 1.132,-0.053 0.349,-0.137 0.63,-0.416 0.847,-0.746 0.171,-0.257 0.257,-0.55 0.402,-0.785 0.181,-0.29 0.399,-0.526 0.558,-0.753 0.242,-0.338 0.431,-0.614 0.631,-0.762 0.292,-0.218 0.621,-0.216 0.969,-0.114 0.439,0.103 0.705,0.378 0.896,0.69 0.215,0.351 0.378,0.807 0.242,1.351 -0.07,0.289 -0.243,0.676 -0.5,1.09 -0.186,0.299 -0.535,0.534 -0.824,0.864 -0.243,0.276 -0.505,0.563 -0.824,0.841 -0.283,0.246 -0.534,0.568 -0.877,0.804 -0.313,0.213 -0.646,0.439 -1.01,0.634 -0.336,0.18 -0.733,0.272 -1.114,0.43 -0.354,0.145 -0.729,0.264 -1.122,0.384 -0.367,0.113 -0.723,0.327 -1.125,0.412 -0.383,0.081 -0.596,-0.148 -0.67,-0.312 -0.069,-0.155 -0.085,-0.404 0.134,-0.564 0.422,-0.327 0.802,-0.637 1.166,-0.939 0.396,-0.325 0.765,-0.642 1.124,-0.982 0.132,-0.125 0.336,-0.04 0.28,-0.213 -0.056,-0.173 -0.154,-0.113 -0.334,-0.137 -0.379,-0.051 -0.763,-0.08 -1.145,-0.126 -0.38,-0.046 -0.769,-0.017 -1.153,-0.059 -0.378,-0.041 -0.76,-0.058 -1.143,-0.094 -0.379,-0.036 -0.753,-0.16 -1.135,-0.192 -0.38,-0.031 -0.775,0.096 -1.16,0.07 -0.38,-0.027 -0.753,-0.221 -1.138,-0.244 -0.382,-0.021 -0.767,-0.038 -1.154,-0.055 -0.38,-0.018 -0.764,-0.019 -1.151,-0.031 -0.382,-0.014 -0.767,-0.062 -1.155,-0.071 -0.382,-0.009 -0.769,-0.006 -1.157,-0.011 -0.005,0 -0.011,-0.007 -0.017,-0.007 -0.358,0 -0.63,0.317 -0.793,0.643 -0.163,0.328 -0.133,0.649 0.09,0.936 0.348,0.447 0.673,0.911 0.996,1.349 0.302,0.406 0.505,0.866 0.785,1.227 0.148,0.191 0.449,0.456 0.81,0.695 0.274,0.182 0.612,0.344 0.955,0.468 0.329,0.119 0.693,0.102 1.045,0.102 0.603,0 0.603,0.088 1.206,0.088 0.605,0 0.605,-0.06 1.211,-0.06 0.603,0 0.603,0.027 1.208,0.027 0.603,0 0.603,-0.085 1.208,-0.085 0.606,0 0.606,0.162 1.212,0.162 0.605,0 0.605,-0.178 1.21,-0.178 0.606,0 0.606,0.088 1.212,0.088 0.607,0 0.607,0.044 1.213,0.044 0.606,0 0.606,-0.113 1.211,-0.113 0.608,0 0.608,0.003 1.214,0.003 0.608,0 0.608,0.095 1.217,0.095 0.608,0 0.608,0.031 1.217,0.031 0.419,0 0.783,-0.107 1.056,-0.055 0.51,0.099 0.782,0.375 0.782,0.656 0,0.215 -0.307,0.501 -0.634,0.866 -0.222,0.25 -0.414,0.59 -0.7,0.838 -0.285,0.248 -0.662,0.375 -0.938,0.565 -0.409,0.281 -0.715,0.48 -0.912,0.48 -0.08,0 -0.317,0.008 -0.824,-0.533 C 28.784,2.659 28.599,2.374 28.337,2.032 28.154,1.793 27.873,1.57 27.647,1.243 27.621,1.206 27.687,1.153 27.641,1.15 c -0.6,-0.036 -0.6,-0.006 -1.201,-0.006 -0.599,0 -0.599,0.067 -1.199,0.067 -0.599,0 -0.599,0.008 -1.198,0.008 -0.6,0 -0.6,-0.122 -1.199,-0.122 -0.601,0 -0.601,0.101 -1.201,0.101 -0.601,0 -0.601,0.007 -1.202,0.007 -0.599,0 -0.599,-0.072 -1.2,-0.072 -0.599,0 -0.599,0.08 -1.2,0.08 -0.601,0 -0.601,0.004 -1.202,0.004 -0.601,0 -0.601,-0.047 -1.2,-0.047 -0.602,0 -0.602,0.004 -1.202,0.004 -0.599,0 -0.599,-0.033 -1.198,-0.033 -0.6,0 -0.6,0.025 -1.202,0.025 -0.599,0 -0.599,-0.011 -1.2,-0.011 -0.6,0 -0.6,0.079 -1.199,0.079 -0.602,0 -0.602,-0.13 -1.204,-0.13 C 7.833,1.104 7.833,1.072 7.232,1.072 6.631,1.072 6.631,1.096 6.029,1.096 5.427,1.096 5.427,1.082 4.824,1.082 4.223,1.082 4.223,1.235 3.621,1.235 3.02,1.235 3.02,1.225 2.417,1.225 1.812,1.225 1.812,1.071 1.209,1.071 0.604,1.071 0.604,1.157 0,1.157 -0.46,1.157 -0.66,0.971 -0.66,0.562 -0.66,0.14 -0.478,0 0,0" />
    </g>
    <g
       transform="matrix(0.35277777,0,0,-0.35277777,107.50167,142.48585)"
       id="g8478">
      <path
         id="path8480"
         style="fill:#000000;fill-opacity:1;fill-rule:nonzero;stroke:none"
         d="m 0,0 c 0.364,0 0.71,0.223 1.08,0.372 0.337,0.135 0.65,0.306 0.952,0.57 0.271,0.237 0.499,0.514 0.714,0.859 0.188,0.302 0.385,0.614 0.51,1.002 0.109,0.34 0.169,0.708 0.217,1.115 0.035,0.289 0.131,0.615 0.131,0.908 0,0.086 -0.131,0.201 -0.045,0.213 0.61,0.086 0.622,-0.082 1.238,-0.082 0.615,0 0.615,0.132 1.23,0.132 0.617,0 0.617,-0.124 1.233,-0.124 0.616,0 0.616,0.009 1.233,0.009 0.615,0 0.615,-0.005 1.232,-0.005 0.617,0 0.617,0.049 1.233,0.049 0.619,0 0.619,0.063 1.237,0.063 0.619,0 0.619,-0.058 1.238,-0.058 0.294,0 0.578,-0.128 0.783,-0.336 C 14.42,4.48 14.569,4.196 14.565,3.908 14.562,3.587 14.425,3.2 14.419,2.77 14.414,2.413 14.387,2.028 14.381,1.628 14.376,1.255 14.396,0.869 14.392,0.481 c -0.005,-0.385 0.131,-0.774 0.127,-1.152 -0.005,-0.396 -0.079,-0.782 -0.082,-1.145 -0.005,-0.42 -0.039,-0.809 -0.042,-1.148 -0.006,-0.528 0.098,-0.935 0.098,-1.144 0,-0.673 0.165,-0.858 0.759,-0.858 0.46,0 0.841,-0.032 1.11,0.122 0.342,0.198 0.526,0.536 0.526,0.96 0,0.209 0.023,0.681 0.016,1.297 -0.005,0.385 -0.035,0.826 -0.041,1.296 -0.006,0.417 -0.003,0.855 -0.009,1.297 -0.005,0.438 -0.106,0.876 -0.112,1.3 -0.007,0.461 0.077,0.904 0.071,1.301 -0.007,0.531 -0.023,0.982 -0.027,1.294 -0.005,0.291 0.126,0.534 0.33,0.741 0.206,0.211 0.45,0.325 0.747,0.325 0.612,0 0.612,-0.009 1.222,-0.009 0.61,0 0.61,0.077 1.221,0.077 0.611,0 0.611,-0.061 1.221,-0.061 0.613,0 0.613,0.029 1.224,0.029 0.61,0 0.61,-0.006 1.222,-0.006 0.611,0 0.611,0.011 1.222,0.011 0.615,0 0.615,-0.004 1.228,-0.004 0.613,0 0.613,0.05 1.226,0.05 0.351,0 0.668,-0.218 0.877,-0.5 C 28.733,4.271 28.878,3.892 28.772,3.557 28.674,3.242 28.562,2.926 28.473,2.628 28.363,2.271 28.243,1.95 28.178,1.7 28.039,1.361 27.963,1.068 28.116,0.95 c 0.142,-0.114 0.518,-0.103 0.862,0.157 0.15,0.142 0.35,0.466 0.684,0.775 0.227,0.209 0.531,0.396 0.808,0.646 0.246,0.224 0.516,0.445 0.78,0.678 0.021,0.018 0.013,0.009 0.037,0.021 0.169,0.075 0.32,0.144 0.488,0.22 0.025,0.011 0.019,-0.027 0.045,-0.024 0.808,0.096 1.322,0.254 1.322,0.73 0,0.219 -0.212,0.571 -0.488,0.942 -0.194,0.26 -0.396,0.577 -0.649,0.84 -0.255,0.264 -0.517,0.535 -0.767,0.74 -0.379,0.312 -0.778,0.498 -0.96,0.498 -0.092,0 -0.374,-0.128 -1.029,-0.733 -0.21,-0.193 -0.483,-0.272 -0.758,-0.272 -0.594,0 -0.594,0.064 -1.186,0.064 -0.596,0 -0.596,10e-4 -1.191,10e-4 -0.594,0 -0.594,-0.075 -1.189,-0.075 -0.595,0 -0.595,0.018 -1.19,0.018 -0.596,0 -0.596,-0.008 -1.192,-0.008 -0.595,0 -0.595,-0.015 -1.189,-0.015 -0.596,0 -0.596,0.036 -1.192,0.036 -0.598,0 -0.598,0.043 -1.195,0.043 -0.598,0 -0.598,-0.125 -1.196,-0.125 -0.558,0 -1.076,0.494 -1.076,1.052 0,0.601 -0.008,0.601 -0.008,1.202 0,0.558 0.526,0.998 1.084,0.998 0.591,0 0.591,0.066 1.182,0.066 0.593,0 0.593,0.035 1.186,0.035 0.591,0 0.591,0.011 1.184,0.011 0.592,0 0.592,-0.028 1.185,-0.028 0.594,0 0.594,-0.109 1.187,-0.109 0.592,0 0.592,0.042 1.185,0.042 0.594,0 0.594,0.064 1.186,0.064 0.596,0 0.596,-0.064 1.191,-0.064 0.595,0 0.595,0.055 1.19,0.055 0.346,0 0.734,-0.112 1.051,-0.049 0.439,0.086 0.812,0.33 0.812,0.64 -0.01,0.221 -0.334,0.509 -0.656,0.871 -0.222,0.25 -0.462,0.537 -0.746,0.785 -0.285,0.248 -0.594,0.46 -0.87,0.65 -0.408,0.281 -0.739,0.568 -0.936,0.568 -0.128,0 -0.43,-0.166 -1.013,-0.852 -0.221,-0.259 -0.442,-0.632 -0.757,-1.074 -0.205,-0.29 -0.561,-0.481 -0.913,-0.481 -0.59,0 -0.59,0.073 -1.181,0.073 -0.59,0 -0.59,-0.055 -1.179,-0.055 -0.59,0 -0.59,-0.033 -1.181,-0.033 -0.591,0 -0.591,-0.01 -1.182,-0.01 -0.59,0 -0.59,0.061 -1.18,0.061 -0.591,0 -0.591,0.034 -1.182,0.034 -0.589,0 -0.589,0.064 -1.177,0.064 -0.591,0 -0.591,-0.023 -1.182,-0.023 -0.59,0 -0.59,-0.091 -1.179,-0.091 -0.59,0 -0.59,0.045 -1.18,0.045 -0.592,0 -0.592,0.024 -1.183,0.024 -0.591,0 -0.591,-0.045 -1.182,-0.045 -0.592,0 -0.592,-0.063 -1.184,-0.063 -0.591,0 -0.591,-0.048 -1.183,-0.048 -0.592,0 -0.592,0.102 -1.184,0.102 -0.592,0 -0.592,-0.084 -1.184,-0.084 -0.594,0 -0.594,0.151 -1.188,0.151 -0.594,0 -0.594,0.019 -1.187,0.019 -0.461,0 -0.62,-0.256 -0.62,-0.663 0,-0.423 0.141,-0.54 0.62,-0.54 0.569,0 0.569,-0.118 1.139,-0.118 0.573,0 0.573,0.072 1.144,0.072 0.571,0 0.571,0.079 1.142,0.079 0.572,0 0.572,-0.084 1.144,-0.084 0.572,0 0.572,0.087 1.144,0.087 0.572,0 0.572,0.018 1.143,0.018 0.573,0 0.573,-0.024 1.146,-0.024 0.574,0 0.574,-0.053 1.148,-0.053 0.573,0 0.573,0.059 1.147,0.059 0.601,0 1.034,-0.558 1.034,-1.16 0,-0.523 0.06,-0.523 0.06,-1.046 0,-0.602 -0.493,-1.005 -1.094,-1.005 -0.625,0 -0.625,-0.154 -1.251,-0.154 -0.626,0 -0.626,0.054 -1.251,0.054 -0.626,0 -0.626,0.023 -1.252,0.023 -0.627,0 -0.627,0.067 -1.254,0.067 -0.625,0 -0.625,0.017 -1.251,0.017 C 6.552,6.239 6.552,6.1 5.925,6.1 5.296,6.1 5.296,6.17 4.668,6.17 4.039,6.17 4.028,6.012 3.403,6.079 3.333,6.087 3.318,6.2 3.304,6.269 3.176,6.865 3.006,7.386 2.892,7.73 2.75,8.074 2.567,8.138 2.36,8.096 2.179,8.06 2.013,7.979 2.013,7.628 2.006,7.399 1.888,7.172 1.888,6.946 1.889,6.513 1.958,6.073 1.902,5.65 1.845,5.215 1.709,4.812 1.47,4.445 1.271,4.082 1.02,3.802 0.761,3.544 0.474,3.258 0.187,3.004 -0.099,2.783 -0.389,2.56 -0.61,2.317 -0.808,2.099 -1.036,1.846 -1.137,1.596 -1.137,1.237 -1.137,0.883 -1.03,0.645 -0.813,0.438 -0.603,0.237 -0.357,0 0,0" />
    </g>
    <g
       transform="matrix(0.35277777,0,0,-0.35277777,108.6947,143.46047)"
       id="g8482">
      <path
         id="path8484"
         style="fill:#000000;fill-opacity:1;fill-rule:nonzero;stroke:none"
         d="m 0,0 c 0,-0.423 0.178,-0.561 0.655,-0.561 0.614,0 0.614,0.011 1.226,0.011 0.613,0 0.613,-0.039 1.226,-0.039 0.613,0 0.613,0.008 1.225,0.008 0.613,0 0.613,0.008 1.228,0.008 0.614,0 0.614,-0.018 1.229,-0.018 0.615,0 0.615,0.015 1.231,0.015 1.237,0 1.412,0.289 1.412,0.539 0,0.202 -0.236,0.417 -0.795,0.53 -0.259,0.053 -0.59,0.08 -1.005,0.08 -0.58,0 -0.58,0.006 -1.16,0.006 C 5.891,0.579 5.891,0.556 5.31,0.556 4.729,0.556 4.729,0.553 4.148,0.553 3.567,0.553 3.567,0.59 2.986,0.59 2.404,0.59 2.404,0.564 1.821,0.564 1.238,0.564 1.238,0.603 0.655,0.603 0.195,0.603 0,0.408 0,0" />
    </g>
    <g
       transform="matrix(0.35277777,0,0,-0.35277777,111.47109,142.26522)"
       id="g8486">
      <path
         id="path8488"
         style="fill:#000000;fill-opacity:1;fill-rule:nonzero;stroke:none"
         d="M 0,0 C 1.434,0 1.44,0.404 1.44,0.537 1.433,0.708 1.403,1.154 0.13,1.154 c -0.641,0 -0.641,0.005 -1.28,0.005 -0.64,0 -0.64,0.004 -1.28,0.004 -0.641,0 -0.641,-0.035 -1.282,-0.035 -0.642,0 -0.642,-0.004 -1.284,-0.004 -0.642,0 -0.642,0.039 -1.284,0.039 -0.46,0 -0.664,-0.181 -0.664,-0.589 0,-0.423 0.185,-0.581 0.664,-0.581 0.628,0 0.628,0.018 1.255,0.018 0.627,0 0.627,0.011 1.253,0.011 0.627,0 0.627,-0.043 1.254,-0.043 0.63,0 0.63,0.025 1.259,0.025 C -0.629,0.004 -0.629,0 0,0" />
    </g>
    <g
       transform="matrix(0.35277777,0,0,-0.35277777,116.4031,142.26607)"
       id="g8490">
      <path
         id="path8492"
         style="fill:#000000;fill-opacity:1;fill-rule:nonzero;stroke:none"
         d="m 0,0 c 0.535,0 1.457,0.072 1.457,0.539 0,0.158 -0.263,0.622 -1.326,0.622 -0.649,0 -0.649,0.005 -1.296,0.005 -0.647,0 -0.647,-0.009 -1.294,-0.009 -0.648,0 -0.648,0.017 -1.298,0.017 -0.649,0 -0.649,-0.038 -1.299,-0.038 -0.649,0 -0.649,-0.008 -1.298,-0.008 -0.461,0 -0.647,-0.144 -0.647,-0.551 0,-0.423 0.168,-0.559 0.647,-0.559 0.634,0 0.634,0.003 1.269,0.003 C -4.451,0.021 -4.451,0 -3.817,0 h 1.27 C -1.91,0 -1.91,-0.017 -1.273,-0.018 -0.637,-0.019 -0.637,0 0,0" />
    </g>
    <g
       transform="matrix(0.35277777,0,0,-0.35277777,114.16138,143.66409)"
       id="g8494">
      <path
         id="path8496"
         style="fill:#000000;fill-opacity:1;fill-rule:nonzero;stroke:none"
         d="m 0,0 c 0.622,0 0.622,0.005 1.243,0.005 0.623,0 0.623,-0.022 1.246,-0.022 0.621,0 0.621,-0.005 1.243,-0.005 0.623,0 0.623,0.05 1.246,0.05 0.625,0 0.625,-0.033 1.249,-0.033 0.625,0 0.625,0.006 1.249,0.006 0.549,0 1.472,0.071 1.472,0.539 0,0.1 -0.206,0.627 -1.176,0.627 C 7.126,1.167 7.126,1.16 6.479,1.16 5.832,1.16 5.832,1.177 5.185,1.177 4.538,1.177 4.538,1.151 3.892,1.151 3.243,1.151 3.243,1.167 2.596,1.167 1.946,1.167 1.946,1.128 1.298,1.128 0.648,1.128 0.648,1.162 0,1.162 -0.461,1.162 -0.675,0.985 -0.675,0.577 -0.675,0.154 -0.479,0 0,0" />
    </g>
    <g
       transform="matrix(0.35277777,0,0,-0.35277777,94.713657,156.55219)"
       id="g8498">
      <path
         id="path8500"
         style="fill:#000000;fill-opacity:1;fill-rule:nonzero;stroke:none"
         d="M 0,0 C -0.007,-0.362 -0.033,-0.739 -0.057,-1.116 -0.08,-1.493 -0.097,-1.872 -0.168,-2.23 -0.244,-2.609 -0.387,-2.956 -0.551,-3.274 -0.702,-3.619 -0.863,-3.921 -1.042,-4.188 -1.249,-4.497 -1.456,-4.771 -1.68,-5.007 -1.931,-5.272 -2.184,-5.504 -2.426,-5.725 -2.758,-6.024 -3.038,-6.306 -3.255,-6.609 -3.483,-6.927 -3.638,-7.27 -3.637,-7.736 c 10e-4,-0.426 0.169,-0.78 0.431,-1.04 0.262,-0.261 0.616,-0.424 1.042,-0.423 0.41,10e-4 0.802,0.089 1.171,0.257 0.354,0.16 0.697,0.379 0.999,0.673 0.275,0.267 0.495,0.608 0.716,0.969 0.2,0.328 0.4,0.68 0.548,1.075 0.135,0.364 0.271,0.748 0.355,1.159 0.079,0.382 0.133,0.788 0.162,1.204 0.017,0.349 -0.009,0.728 -0.032,1.121 -0.021,0.363 -0.077,0.735 -0.13,1.111 -0.051,0.371 -0.111,0.742 -0.19,1.104 C 1.353,-0.15 1.251,0.212 1.143,0.553 1.01,0.888 0.764,1.01 0.538,1.01 0.512,1.01 0.489,1.023 0.464,1.021 0.203,0.98 0.02,0.772 -0.005,0.446 -0.015,0.224 0.005,0.223 0,0" />
    </g>
    <g
       transform="matrix(0.35277777,0,0,-0.35277777,104.37525,163.65082)"
       id="g8502">
      <path
         id="path8504"
         style="fill:#000000;fill-opacity:1;fill-rule:nonzero;stroke:none"
         d="m 0,0 c -0.404,0.047 -0.802,0.083 -1.191,0.147 -0.401,0.067 -0.791,0.146 -1.176,0.231 -0.397,0.087 -0.819,0.055 -1.198,0.162 -0.39,0.11 -0.746,0.322 -1.118,0.453 -0.381,0.135 -0.783,0.212 -1.146,0.368 -0.37,0.16 -0.694,0.415 -1.045,0.599 -0.357,0.186 -0.726,0.348 -1.063,0.558 -0.34,0.212 -0.647,0.472 -0.967,0.71 -0.322,0.237 -0.686,0.425 -0.987,0.688 -0.3,0.262 -0.607,0.527 -0.887,0.813 -0.277,0.285 -0.547,0.588 -0.805,0.896 -0.253,0.304 -0.388,0.706 -0.623,1.034 -0.231,0.32 -0.483,0.63 -0.695,0.974 -0.207,0.335 -0.348,0.711 -0.537,1.068 -0.185,0.347 -0.458,0.655 -0.626,1.024 -0.164,0.357 -0.281,0.741 -0.429,1.118 -0.144,0.366 -0.345,0.719 -0.475,1.103 -0.126,0.373 -0.191,0.773 -0.303,1.162 -0.109,0.378 -0.244,0.756 -0.34,1.15 -0.094,0.383 -0.087,0.795 -0.168,1.193 -0.08,0.386 -0.142,0.779 -0.21,1.181 -0.035,0.198 -0.17,0.402 -0.159,0.621 0.018,0.386 0.142,0.767 0.153,1.149 0.011,0.386 -0.026,0.772 -0.02,1.154 0.005,0.387 -0.055,0.773 -0.054,1.156 0,0.386 0.045,0.77 0.042,1.152 -0.003,0.387 -0.106,0.77 -0.111,1.153 -0.005,0.382 0.107,0.764 0.101,1.142 -0.003,0.565 0.019,0.565 0.017,1.128 -0.001,0.565 -0.147,0.568 -0.122,1.132 0.061,0.137 0.221,0.258 0.334,0.364 0.459,0.234 0.737,0.489 0.903,0.717 0.276,0.375 0.202,0.715 -0.158,0.998 -0.243,0.191 -0.598,0.39 -1.052,0.503 -0.608,0.14 -0.605,0.158 -1.215,0.292 -0.353,0.075 -0.375,0.036 -0.755,0.127 -0.442,0.104 -0.41,0.176 -0.697,0.188 -0.446,0.02 -1.321,0.265 -1.153,-0.347 0.085,-0.311 0.793,-0.899 0.899,-1.692 0.042,-0.319 0.079,-0.407 0.159,-0.687 0.043,-0.368 0.01,-0.328 0.045,-0.709 0.036,-0.38 0.111,-0.757 0.139,-1.13 0.029,-0.392 -0.008,-0.775 0.012,-1.136 0.022,-0.409 0.201,-0.785 0.209,-1.124 0.004,-0.11 -0.09,-0.113 -0.086,-0.223 0.013,-0.344 0.069,-0.74 0.082,-1.179 0.01,-0.364 0.015,-0.759 0.02,-1.177 0.005,-0.375 0.044,-0.769 0.041,-1.181 -0.003,-0.38 -0.153,-0.772 -0.166,-1.177 -0.012,-0.385 0.158,-0.788 0.135,-1.19 -0.023,-0.387 -0.077,-0.782 -0.113,-1.18 -0.034,-0.389 -0.127,-0.778 -0.175,-1.173 -0.048,-0.39 -0.184,-0.768 -0.247,-1.159 -0.063,-0.39 -0.138,-0.775 -0.218,-1.162 -0.079,-0.386 -0.143,-0.774 -0.241,-1.156 -0.1,-0.384 -0.094,-0.798 -0.215,-1.172 -0.123,-0.378 -0.323,-0.728 -0.469,-1.091 -0.149,-0.37 -0.218,-0.777 -0.394,-1.126 -0.177,-0.344 -0.43,-0.654 -0.633,-0.984 -0.203,-0.33 -0.419,-0.654 -0.648,-0.97 -0.226,-0.311 -0.416,-0.661 -0.668,-0.96 -0.248,-0.293 -0.598,-0.502 -0.871,-0.783 -0.268,-0.274 -0.48,-0.617 -0.772,-0.879 -0.286,-0.256 -0.686,-0.382 -0.994,-0.628 -0.3,-0.237 -0.51,-0.603 -0.832,-0.83 -0.312,-0.219 -0.641,-0.432 -0.974,-0.641 -0.322,-0.204 -0.662,-0.398 -1.005,-0.592 -0.332,-0.189 -0.717,-0.295 -1.068,-0.475 -0.34,-0.174 -0.693,-0.335 -1.051,-0.501 -0.346,-0.16 -0.665,-0.4 -1.028,-0.553 -0.353,-0.149 -0.733,-0.25 -1.102,-0.393 -0.357,-0.138 -0.753,-0.19 -1.126,-0.321 -0.413,-0.158 -0.495,-0.533 -0.424,-0.759 0.062,-0.195 0.289,-0.417 0.728,-0.307 0.407,0.096 0.812,0.185 1.206,0.292 0.404,0.11 0.792,0.255 1.18,0.377 0.4,0.125 0.815,0.191 1.199,0.328 0.395,0.142 0.741,0.394 1.118,0.548 0.388,0.159 0.748,0.361 1.118,0.532 0.379,0.178 0.8,0.258 1.16,0.45 0.369,0.196 0.658,0.52 1.006,0.732 0.357,0.217 0.729,0.394 1.064,0.626 0.343,0.237 0.76,0.371 1.08,0.625 0.326,0.259 0.556,0.629 0.858,0.904 0.307,0.281 0.577,0.589 0.859,0.887 0.285,0.3 0.65,0.527 0.91,0.845 0.262,0.319 0.438,0.704 0.675,1.041 0.236,0.338 0.435,0.695 0.645,1.051 0.21,0.353 0.531,0.649 0.715,1.019 0.188,0.385 0.207,0.856 0.371,1.274 0.155,0.398 0.471,0.752 0.604,1.178 0.128,0.41 0.195,0.853 0.302,1.287 0.103,0.419 0.221,0.799 0.304,1.239 0.117,0.124 0.195,0.222 0.319,0.105 0.087,-0.409 0.231,-0.83 0.33,-1.222 0.102,-0.406 0.082,-0.837 0.197,-1.225 0.12,-0.4 0.212,-0.806 0.345,-1.188 0.138,-0.394 0.323,-0.766 0.476,-1.141 0.157,-0.387 0.304,-0.776 0.478,-1.141 0.178,-0.378 0.372,-0.745 0.569,-1.099 0.201,-0.366 0.428,-0.712 0.648,-1.054 0.225,-0.35 0.552,-0.621 0.796,-0.946 0.249,-0.331 0.499,-0.65 0.768,-0.956 0.273,-0.311 0.476,-0.683 0.769,-0.967 0.296,-0.286 0.618,-0.545 0.935,-0.805 0.317,-0.261 0.673,-0.469 1.012,-0.702 0.336,-0.233 0.62,-0.556 0.977,-0.763 0.353,-0.203 0.798,-0.242 1.172,-0.421 0.366,-0.175 0.74,-0.325 1.127,-0.476 0.378,-0.148 0.726,-0.388 1.123,-0.513 0.386,-0.122 0.777,-0.257 1.182,-0.357 0.442,-0.124 0.744,-0.092 0.962,-0.049 0.334,0.067 0.418,0.328 0.622,0.654 0.211,0.316 0.592,0.452 0.931,0.677 0.283,0.187 0.531,0.526 0.942,0.68 0.441,0.174 0.794,0.312 0.78,0.439 C 0.835,-0.267 0.535,-0.079 0,0" />
    </g>
    <g
       transform="matrix(0.35277777,0,0,-0.35277777,101.22297,159.64898)"
       id="g8506">
      <path
         id="path8508"
         style="fill:#000000;fill-opacity:1;fill-rule:nonzero;stroke:none"
         d="M 0,0 C 0.298,0.22 0.629,0.485 0.971,0.796 1.267,1.064 1.587,1.344 1.897,1.653 2.19,1.945 2.513,2.227 2.805,2.536 3.098,2.846 3.373,3.173 3.65,3.48 3.945,3.808 4.202,4.15 4.464,4.45 4.771,4.803 5.053,5.125 5.289,5.406 5.722,5.921 6.03,6.27 6.1,6.367 6.3,6.585 6.426,6.603 6.599,6.596 7.114,6.552 7.513,6.554 7.787,6.635 8.291,6.783 8.435,7.161 8.256,7.585 8.138,7.864 7.837,8.147 7.48,8.48 7.454,8.505 7.125,8.803 6.706,9.15 6.45,9.363 6.181,9.617 5.921,9.833 5.562,10.13 5.225,10.354 5.104,10.455 4.719,10.775 4.371,11.09 4.09,11.261 3.618,11.547 3.391,11.494 3.7,10.652 3.784,10.223 3.792,9.813 3.773,9.435 3.752,8.99 3.704,8.58 3.606,8.228 3.516,7.967 3.325,7.57 3.084,7.083 2.918,6.747 2.739,6.358 2.521,5.953 2.332,5.603 2.098,5.248 1.882,4.868 1.678,4.51 1.48,4.134 1.261,3.769 1.043,3.405 0.808,3.051 0.584,2.698 0.352,2.333 0.116,1.979 -0.113,1.646 -0.366,1.275 -0.638,0.948 -0.875,0.642 -1.084,0.329 -1.093,-0.016 -0.91,-0.183 -0.741,-0.339 -0.403,-0.298 0,0" />
    </g>
    <g
       transform="matrix(0.35277777,0,0,-0.35277777,98.828631,144.59289)"
       id="g8510">
      <path
         id="path8512"
         style="fill:#000000;fill-opacity:1;fill-rule:nonzero;stroke:none"
         d="m 0,0 c -0.006,0.467 0.15,0.931 0.148,1.334 -0.002,0.379 0.139,0.665 0.406,0.936 0.268,0.268 0.554,0.497 0.934,0.497 0.597,0 0.597,0.069 1.194,0.069 0.598,0 0.598,-0.093 1.195,-0.093 0.6,0 0.6,-0.054 1.199,-0.054 0.599,0 0.599,-0.014 1.199,-0.014 0.351,0 0.736,-0.004 0.983,-0.253 C 7.505,2.172 7.523,1.787 7.52,1.436 7.513,0.719 7.501,0.719 7.494,0.002 7.49,-0.355 7.453,-0.717 7.216,-0.95 6.979,-1.185 6.617,-1.239 6.26,-1.239 c -0.606,0 -0.606,-0.019 -1.213,-0.019 -0.608,0 -0.608,0.036 -1.215,0.036 -0.61,0 -0.61,-0.066 -1.219,-0.066 -0.61,0 -0.61,0.07 -1.219,0.07 -0.356,0 -0.723,0.029 -0.96,0.263 C 0.197,-0.722 0.005,-0.356 0,0 m -0.017,6.66 c 0,0.61 0.582,1.029 1.191,1.029 0.625,0 0.625,-0.023 1.25,-0.023 0.626,0 0.626,0.109 1.252,0.109 0.627,0 0.627,0.07 1.255,0.07 0.628,0 0.628,-0.093 1.256,-0.093 C 6.585,7.752 6.9,7.556 7.162,7.295 7.423,7.033 7.552,6.718 7.552,6.32 7.552,5.834 7.708,5.834 7.708,5.348 7.708,4.949 7.425,4.633 7.164,4.371 6.902,4.109 6.585,3.979 6.187,3.979 5.582,3.979 5.582,3.852 4.978,3.852 4.373,3.852 4.373,3.956 3.768,3.956 3.161,3.956 3.161,3.938 2.554,3.938 1.947,3.938 1.947,3.975 1.34,3.975 0.99,3.975 0.675,4.05 0.445,4.279 0.214,4.51 0.143,4.83 0.143,5.181 0.084,5.923 -0.017,5.917 -0.017,6.66 M -1.89,5.175 C -1.89,4.824 -2.171,4.56 -2.401,4.329 -2.631,4.1 -2.896,4.003 -3.247,4.003 c -0.619,0 -0.619,-0.11 -1.238,-0.11 -0.621,0 -0.621,-0.07 -1.241,-0.07 -0.622,0 -0.622,0.093 -1.244,0.093 -0.622,0 -0.622,0.054 -1.244,0.054 -0.284,0 -0.494,0.1 -0.694,0.304 -0.2,0.203 -0.442,0.415 -0.439,0.7 0.006,0.507 0.155,1.009 0.167,1.451 0.037,0.434 0.108,0.697 0.355,0.918 0.201,0.178 0.459,0.403 0.939,0.472 0.598,0.024 0.601,-0.105 1.2,-0.105 0.6,0.001 0.6,0.019 1.2,0.019 0.601,0 0.601,-0.036 1.202,-0.036 0.602,0 0.602,0.067 1.203,0.067 0.609,0 1.032,-0.495 1.032,-1.105 0.047,-0.743 0.159,-0.738 0.159,-1.48 M -1.905,-0.002 C -1.91,-0.357 -2.197,-0.626 -2.434,-0.86 -2.67,-1.094 -2.942,-1.193 -3.298,-1.193 c -0.579,0 -0.579,-0.111 -1.158,-0.111 -0.58,0 -0.58,-0.069 -1.16,-0.069 -0.582,0 -0.582,0.093 -1.163,0.093 -0.582,0 -0.582,0.053 -1.164,0.053 -0.356,0 -0.625,0.136 -0.862,0.371 -0.237,0.234 -0.518,0.5 -0.521,0.856 -0.007,0.717 0.131,0.719 0.123,1.436 -0.003,0.351 0.122,0.629 0.369,0.879 0.248,0.25 0.525,0.493 0.877,0.493 0.582,0 0.582,-0.105 1.165,-0.105 0.583,0 0.583,0.019 1.166,0.019 0.585,0 0.585,-0.037 1.17,-0.037 0.585,0 0.585,0.066 1.17,0.066 0.351,0 0.629,-0.184 0.876,-0.432 C -2.164,2.071 -1.917,1.793 -1.918,1.443 -1.92,1 -1.898,0.48 -1.905,-0.002 m 16.977,-10.493 c -0.393,0.076 -0.749,0.315 -1.131,0.401 -0.391,0.089 -0.768,0.205 -1.147,0.305 -0.389,0.101 -0.799,0.101 -1.174,0.214 -0.385,0.115 -0.786,0.171 -1.156,0.298 -0.38,0.13 -0.722,0.353 -1.086,0.495 C 9.004,-8.636 8.66,-8.436 8.302,-8.277 7.936,-8.115 7.587,-7.935 7.237,-7.759 6.878,-7.579 6.456,-7.53 6.115,-7.336 5.767,-7.138 5.5,-6.814 5.171,-6.602 4.835,-6.384 4.52,-6.152 4.205,-5.92 3.883,-5.684 3.494,-5.538 3.193,-5.286 2.888,-5.03 2.665,-4.688 2.381,-4.416 2.095,-4.141 1.809,-3.872 1.545,-3.58 c -0.182,0.202 -0.186,0.433 -0.074,0.686 0.116,0.261 0.3,0.449 0.582,0.449 0.547,0 0.547,-0.07 1.094,-0.07 0.55,0 0.55,0.134 1.1,0.134 0.55,0 0.55,-0.073 1.101,-0.073 0.552,0 0.552,0.011 1.104,0.011 0.552,0 0.652,0.321 1.084,-0.024 0.344,-0.276 0.006,-0.416 0.006,-0.857 0,-0.257 0.089,-1.079 1.037,-1.079 0.514,0 0.832,0.108 1.07,0.267 0.285,0.192 0.463,0.455 0.463,0.961 0,0.229 0.03,0.57 0.024,0.991 -0.004,0.295 -0.124,0.628 -0.13,0.993 C 10,-0.833 9.97,-0.448 9.964,-0.045 9.959,0.324 9.955,0.709 9.95,1.102 9.946,1.479 10.122,1.864 10.119,2.25 10.115,2.635 9.976,3.02 9.975,3.4 9.974,3.793 9.954,4.181 9.956,4.556 c 0.001,0.399 0.049,0.785 0.055,1.149 0.006,0.414 -0.063,0.803 -0.049,1.149 0.003,0.057 0.118,0.021 0.151,0.067 0.033,0.047 -0.009,0.075 0.043,0.095 0.574,0.225 1.149,0.524 1.149,0.949 0,0.257 -0.238,0.617 -0.654,1.003 C 10.35,9.249 9.966,9.483 9.615,9.71 9.151,10.012 8.757,10.291 8.504,10.291 8.328,10.291 8.043,10.09 7.708,9.742 7.51,9.535 7.345,9.241 7.126,8.944 7.1,8.909 7.07,8.837 7.026,8.834 6.444,8.801 6.438,8.926 5.855,8.926 5.273,8.926 5.273,9.012 4.69,9.012 4.107,9.012 4.107,9 3.524,9 2.939,9 2.939,8.918 2.354,8.918 1.769,8.918 1.769,8.81 1.184,8.81 0.887,8.81 0.58,9.001 0.371,9.213 0.162,9.424 0.135,9.731 0.138,10.029 0.146,10.78 0.002,10.781 0.01,11.532 c 0.004,0.374 0.277,0.677 0.525,0.923 0.248,0.245 0.554,0.393 0.928,0.393 0.599,0 0.599,-0.051 1.197,-0.051 0.599,0 0.599,0.065 1.197,0.065 0.601,0 0.601,0.089 1.202,0.089 0.599,0 0.599,-0.004 1.199,-0.004 0.6,0 0.6,-0.071 1.201,-0.071 0.601,0 0.601,-0.043 1.202,-0.043 0.601,0 0.601,0.105 1.2,0.105 0.602,0 0.602,-0.152 1.203,-0.152 0.603,0 0.603,0.138 1.206,0.138 0.603,0 0.603,-0.1 1.206,-0.1 0.444,0 0.825,0.059 1.123,0.117 0.548,0.108 0.77,0.344 0.77,0.63 -0.01,0.24 -0.118,0.662 -0.466,1.057 -0.24,0.273 -0.605,0.495 -0.914,0.767 -0.308,0.271 -0.593,0.579 -0.892,0.787 -0.443,0.308 -0.865,0.405 -1.079,0.405 -0.225,0 -0.543,-0.243 -0.896,-0.634 -0.249,-0.276 -0.513,-0.593 -0.743,-0.903 -0.283,-0.381 -0.59,-0.695 -0.735,-0.906 -0.026,-0.038 0.049,-0.2 0.004,-0.203 -0.57,-0.035 -0.577,0.056 -1.148,0.056 -0.571,0 -0.571,-0.031 -1.143,-0.031 -0.572,0 -0.572,0.141 -1.144,0.141 -0.571,0 -0.571,-0.062 -1.143,-0.062 -0.572,0 -0.572,0.012 -1.145,0.012 -0.574,0 -0.574,-0.115 -1.148,-0.115 -0.574,0 -0.574,0.092 -1.148,0.09 -0.032,-0.003 -0.808,-0.073 -1.241,0.346 -0.111,0.108 -0.096,0.301 -0.149,0.442 -0.007,0.039 0.043,0.03 0.044,0.069 -0.004,0.179 -0.18,0.551 -0.122,0.915 0.046,0.291 0.225,0.58 0.452,0.794 0.459,0.233 0.828,0.416 0.994,0.642 0.276,0.376 0.11,0.767 -0.25,1.05 -0.243,0.191 -0.604,0.341 -1.057,0.454 -0.609,0.139 -0.585,0.246 -1.196,0.38 -0.353,0.075 -0.781,0.045 -1.161,0.136 -0.442,0.105 -0.852,0.157 -1.139,0.169 -0.446,0.019 -0.578,-0.071 -0.017,-0.653 0.285,-0.407 0.448,-0.844 0.598,-1.252 0.179,-0.489 0.394,-0.932 0.447,-1.326 0.017,-0.221 -0.074,-0.456 -0.058,-0.701 0.024,-0.379 -0.083,-0.751 -0.343,-1.028 -0.262,-0.279 -0.612,-0.518 -0.992,-0.518 -0.601,0 -0.601,0.035 -1.202,0.035 -0.6,0 -0.6,0.099 -1.2,0.099 -0.6,0 -0.6,-0.142 -1.2,-0.142 -0.602,0 -0.602,0.079 -1.204,0.079 -0.601,0 -0.601,-0.039 -1.202,-0.039 -0.602,0 -0.602,0.132 -1.203,0.132 -0.603,0 -0.603,-0.166 -1.206,-0.166 -0.601,0 -0.601,0.056 -1.203,0.056 -0.602,0 -0.602,0.129 -1.205,0.129 -0.604,0 -0.604,-0.009 -1.208,-0.009 -0.604,0 -0.604,-0.169 -1.209,-0.169 -0.46,0 -0.551,-0.088 -0.551,-0.496 0,-0.423 0.073,-0.578 0.551,-0.578 0.609,0 0.609,0.06 1.218,0.06 0.607,0 0.607,-0.149 1.215,-0.149 0.607,0 0.607,0.146 1.215,0.146 0.61,0 0.61,-0.012 1.219,-0.012 0.608,0 0.608,-0.005 1.217,-0.005 0.609,0 0.609,-0.095 1.219,-0.095 0.609,0 0.609,-0.037 1.22,-0.037 0.609,0 0.609,0.146 1.218,0.146 h 1.22 c 0.612,0 0.612,0.005 1.223,0.005 0.612,0 0.612,0.021 1.224,0.021 0.371,0 0.651,-0.286 0.9,-0.527 C -2.246,12.192 -2.007,11.917 -2,11.547 -1.987,10.792 -2.075,10.79 -2.062,10.035 -2.056,9.736 -2.088,9.439 -2.296,9.227 -2.505,9.012 -2.801,8.815 -3.1,8.815 c -0.648,0 -0.648,0.114 -1.296,0.114 -0.648,0 -0.648,-0.025 -1.298,-0.025 -0.65,0 -0.65,-0.009 -1.3,-0.009 -0.65,0 -0.652,-0.074 -1.302,-0.062 -0.026,10e-4 0.034,0.177 0.013,0.191 -0.283,0.185 -0.657,0.359 -1.027,0.533 -0.354,0.166 -0.741,0.289 -1.08,0.411 -0.464,0.168 -0.894,0.142 -1.124,0.156 -0.112,0.014 -0.146,0.029 -0.208,-0.036 -0.039,-0.039 -0.228,-0.066 -0.216,-0.168 0.04,-0.371 0.184,-0.777 0.21,-1.229 0.024,-0.391 0.114,-0.805 0.129,-1.241 0.015,-0.401 -0.079,-0.821 -0.071,-1.248 0.008,-0.407 0.087,-0.822 0.091,-1.244 0.004,-0.411 -0.146,-0.827 -0.146,-1.244 10e-4,-0.417 -0.011,-0.834 -0.013,-1.248 -0.003,-0.421 0.086,-0.839 0.082,-1.248 -0.005,-0.426 -0.033,-0.843 -0.04,-1.246 -0.006,-0.433 0.078,-0.852 0.071,-1.247 -0.008,-0.446 -0.012,-0.863 -0.02,-1.242 -0.01,-0.586 -0.071,-1.089 -0.076,-1.482 0,-0.552 0.295,-0.865 0.899,-0.865 0.473,0 0.77,0.181 1.005,0.28 0.468,0.198 0.562,0.454 0.562,0.736 0,0.703 -0.47,0.893 -0.046,1.454 0.32,0.423 0.593,-0.03 1.123,-0.03 0.532,0 0.532,-0.012 1.063,-0.012 0.533,0 0.533,0.042 1.066,0.042 0.533,0 0.533,-0.107 1.066,-0.107 0.274,0 0.437,-0.134 0.558,-0.384 0.117,-0.242 0.09,-0.421 -0.076,-0.628 -0.256,-0.321 -0.388,-0.749 -0.662,-1.062 -0.27,-0.31 -0.667,-0.507 -0.954,-0.809 -0.283,-0.297 -0.501,-0.661 -0.8,-0.95 -0.296,-0.285 -0.659,-0.501 -0.97,-0.778 -0.306,-0.273 -0.576,-0.591 -0.898,-0.857 -0.316,-0.261 -0.643,-0.514 -0.974,-0.767 -0.326,-0.25 -0.655,-0.499 -0.995,-0.742 -0.333,-0.238 -0.711,-0.417 -1.059,-0.647 -0.341,-0.228 -0.633,-0.535 -0.987,-0.756 -0.349,-0.216 -0.73,-0.386 -1.092,-0.596 -0.355,-0.206 -0.682,-0.467 -1.049,-0.668 -0.361,-0.195 -0.762,-0.323 -1.135,-0.513 -0.366,-0.186 -0.727,-0.392 -1.104,-0.571 -0.454,-0.237 -0.556,-0.543 -0.474,-0.729 0.083,-0.187 0.416,-0.378 0.925,-0.186 0.391,0.122 0.77,0.257 1.145,0.388 0.386,0.134 0.708,0.422 1.078,0.565 0.381,0.147 0.772,0.251 1.137,0.406 0.377,0.161 0.745,0.319 1.104,0.487 0.371,0.175 0.705,0.404 1.057,0.586 0.365,0.187 0.717,0.374 1.062,0.567 0.358,0.201 0.726,0.364 1.062,0.568 0.352,0.215 0.721,0.383 1.049,0.599 0.345,0.229 0.685,0.447 1.004,0.675 0.336,0.241 0.632,0.518 0.94,0.757 0.328,0.255 0.703,0.432 1,0.681 0.32,0.269 0.519,0.651 0.803,0.91 0.311,0.284 0.615,0.543 0.883,0.809 0.137,0.136 0.363,0.173 0.545,0.173 0.094,0 0.165,-0.088 0.255,-0.127 0.264,-0.116 0.447,-0.31 0.439,-0.602 -0.013,-0.431 -0.023,-0.843 -0.035,-1.236 -0.012,-0.433 0.024,-0.844 0.013,-1.232 -0.013,-0.439 -0.135,-0.848 -0.145,-1.23 -0.012,-0.45 -0.018,-0.86 -0.027,-1.232 -0.012,-0.472 0.005,-0.882 -0.002,-1.228 -0.013,-0.582 -0.036,-0.991 -0.036,-1.23 0,-0.62 0.39,-0.883 1.034,-0.883 0.511,0 0.84,0.057 1.076,0.192 0.419,0.239 0.566,0.593 0.566,0.916 0,0.213 -0.038,0.602 -0.042,1.122 -0.002,0.326 -0.028,0.704 -0.032,1.121 -0.003,0.349 -0.02,0.725 -0.024,1.122 -0.004,0.358 -0.088,0.733 -0.092,1.122 -0.005,0.365 0.081,0.742 0.077,1.125 -0.005,0.37 -0.095,0.746 -0.101,1.126 -0.005,0.374 0.084,0.752 0.079,1.129 -0.006,0.307 0.139,0.665 0.43,0.765 0.288,0.097 0.683,-0.041 0.867,-0.283 0.247,-0.327 0.466,-0.664 0.72,-0.965 0.265,-0.314 0.456,-0.685 0.727,-0.973 0.282,-0.3 0.684,-0.467 0.97,-0.739 0.298,-0.285 0.535,-0.62 0.835,-0.874 0.313,-0.268 0.565,-0.6 0.877,-0.838 0.329,-0.25 0.656,-0.493 0.98,-0.712 0.345,-0.235 0.753,-0.348 1.088,-0.548 0.359,-0.216 0.683,-0.461 1.025,-0.642 0.373,-0.196 0.716,-0.418 1.063,-0.576 0.39,-0.179 0.783,-0.291 1.13,-0.426 0.414,-0.16 0.78,-0.345 1.116,-0.452 0.436,-0.12 0.739,-0.055 0.972,0.058 0.223,0.108 0.339,0.385 0.584,0.751 0.216,0.289 0.554,0.396 0.868,0.613 0.241,0.166 0.509,0.332 0.912,0.493 0.357,0.118 0.55,0.394 0.541,0.531 -0.008,0.133 -0.264,0.224 -0.776,0.32" />
    </g>
    <g
       transform="matrix(0.35277777,0,0,-0.35277777,118.05089,156.27244)"
       id="g8514">
      <path
         id="path8516"
         style="fill:#000000;fill-opacity:1;fill-rule:nonzero;stroke:none"
         d="m 0,0 c -0.608,0.139 -0.599,0.187 -1.209,0.321 -0.353,0.075 -0.776,0.066 -1.156,0.156 -0.443,0.105 -0.853,0.211 -1.14,0.224 -0.446,0.02 -0.653,-0.203 -0.092,-0.784 0.263,-0.374 0.566,-0.686 0.711,-1.062 0.17,-0.44 0.329,-0.869 0.391,-1.243 0.024,-0.374 -0.126,-0.784 -0.108,-1.195 0.017,-0.383 0.179,-0.773 0.192,-1.176 0.013,-0.389 -0.038,-0.787 -0.029,-1.182 0.008,-0.397 0.038,-0.794 0.044,-1.186 0.005,-0.402 -0.045,-0.801 -0.042,-1.186 0.003,-0.411 0.128,-0.807 0.129,-1.183 0.002,-0.426 -0.009,-0.824 -0.01,-1.184 0,-0.466 -0.098,-0.867 -0.099,-1.177 -10e-4,-0.246 0.105,-0.246 0.105,-0.49 0,-0.311 -0.06,-0.754 -0.071,-1.324 -0.008,-0.386 -0.07,-0.828 -0.082,-1.33 -0.011,-0.407 -0.076,-0.851 -0.09,-1.334 -0.012,-0.469 -0.012,-0.946 -0.236,-1.319 -0.231,-0.387 -0.59,-0.735 -0.982,-0.955 -0.379,-0.213 -0.857,-0.292 -1.327,-0.292 -0.669,0 -0.669,0.092 -1.336,0.092 -0.67,0 -0.67,-0.011 -1.341,-0.011 -0.671,0 -0.671,0.025 -1.342,0.025 -0.672,0 -0.672,-0.081 -1.343,-0.081 -0.475,0 -0.91,0.146 -1.295,0.369 -0.395,0.23 -0.775,0.519 -1.005,0.915 -0.222,0.384 -0.242,0.852 -0.242,1.326 0,0.594 -0.008,0.594 -0.008,1.188 0,0.594 -0.098,0.594 -0.098,1.186 0,0.594 0.132,0.594 0.132,1.188 0,0.594 -0.148,0.594 -0.148,1.188 0,0.593 0.059,0.593 0.059,1.187 0,0.595 -0.01,0.595 -0.01,1.188 0,0.592 0.057,0.592 0.057,1.184 0,0.595 -0.026,0.595 -0.026,1.188 0,0.594 -0.117,0.594 -0.117,1.187 0,0.593 0.165,0.593 0.165,1.186 0,0.595 -0.015,0.595 -0.015,1.19 0,0.594 -0.026,0.594 -0.026,1.188 0,0.595 -0.009,0.595 -0.009,1.19 0,0.596 0.052,0.596 0.052,1.19 0,0.595 -0.154,0.595 -0.154,1.19 0,0.595 0.146,0.595 0.146,1.191 0,0.598 -0.132,0.598 -0.132,1.195 0,0.597 0.029,0.598 0.054,1.195 0.059,0.222 0.189,0.4 0.365,0.565 0.458,0.234 0.73,0.511 0.897,0.738 0.275,0.375 0.196,0.733 -0.164,1.016 -0.243,0.191 -0.619,0.322 -1.073,0.436 -0.01,0.003 0.017,0.079 0.006,0.083 -0.001,0.001 -0.065,-0.146 -0.066,-0.145 -0.009,0.001 0.029,0.109 0.02,0.11 -0.585,0.128 -0.593,0.091 -1.179,0.219 -0.353,0.075 -0.738,0.241 -1.118,0.331 -0.441,0.106 -0.871,0.083 -1.158,0.096 -0.446,0.02 -0.565,-0.07 -0.004,-0.651 0.23,-0.328 0.469,-0.646 0.607,-0.978 0.156,-0.376 0.109,-0.785 0.181,-1.124 0.018,-0.374 0.078,-0.775 0.092,-1.218 0.013,-0.385 0.139,-0.793 0.15,-1.224 0.009,-0.393 -0.132,-0.807 -0.124,-1.232 0.006,-0.396 0.173,-0.803 0.178,-1.225 0.006,-0.4 -0.009,-0.81 -0.006,-1.229 0.005,-0.402 -0.04,-0.813 -0.037,-1.229 0.003,-0.405 -0.065,-0.816 -0.063,-1.231 0.002,-0.405 0.042,-0.814 0.043,-1.227 10e-4,-0.408 0.042,-0.819 0.042,-1.231 0,-0.408 -0.016,-0.818 -0.017,-1.23 -0.001,-0.41 -0.093,-0.823 -0.094,-1.234 -0.002,-0.413 0.165,-0.826 0.163,-1.237 -0.002,-0.414 -0.149,-0.826 -0.152,-1.235 -0.003,-0.415 0.127,-0.828 0.124,-1.237 -0.003,-0.415 0.002,-0.825 -10e-4,-1.23 -0.004,-0.418 -0.092,-0.828 -0.097,-1.233 -0.004,-0.418 0.059,-0.829 0.054,-1.229 -0.005,-0.421 -0.033,-0.83 -0.038,-1.228 -0.007,-0.468 -0.206,-0.897 -0.431,-1.275 -0.232,-0.389 -0.564,-0.689 -0.956,-0.915 -0.382,-0.218 -0.806,-0.354 -1.275,-0.354 -0.664,0 -0.664,-0.093 -1.328,-0.093 -0.666,0 -0.666,0.081 -1.332,0.081 -0.667,0 -0.667,-0.02 -1.334,-0.02 -0.667,0 -0.667,-0.013 -1.334,-0.013 -0.47,0 -0.922,0.133 -1.304,0.354 -0.393,0.227 -0.63,0.618 -0.861,1.009 -0.226,0.379 -0.479,0.77 -0.485,1.24 -0.004,0.366 0.017,0.727 0.012,1.074 -0.004,0.374 -0.085,0.734 -0.088,1.072 -0.004,0.389 0.081,0.751 0.078,1.073 -0.004,0.438 -0.071,0.803 -0.071,1.066 -0.001,0.505 -0.016,0.505 -0.017,1.01 -0.001,0.236 0.091,0.624 0.091,1.119 -10e-4,0.33 0.052,0.709 0.051,1.122 0,0.352 -0.029,0.728 -0.03,1.121 0,0.363 -0.105,0.74 -0.106,1.125 0,0.369 0.113,0.745 0.113,1.125 0,0.374 -0.016,0.752 -0.016,1.126 0,0.38 0.01,0.755 0.011,1.123 0.038,0.32 0.078,0.689 0.328,0.924 0.459,0.234 0.751,0.459 0.917,0.686 0.275,0.375 0.192,0.68 -0.167,0.964 -0.243,0.191 -0.582,0.398 -1.035,0.512 -0.608,0.139 -0.613,0.122 -1.223,0.255 -0.353,0.075 -0.772,0.091 -1.152,0.181 -0.442,0.105 -0.837,0.343 -1.124,0.355 -0.446,0.019 -0.526,-0.168 0.037,-0.749 0.254,-0.363 0.422,-0.774 0.565,-1.139 0.166,-0.424 0.228,-0.85 0.293,-1.216 0.025,-0.377 0.013,-0.779 0.033,-1.194 0.017,-0.386 0.016,-0.787 0.029,-1.193 0.013,-0.393 -0.016,-0.793 -0.006,-1.192 0.009,-0.402 0.154,-0.799 0.16,-1.195 0.006,-0.407 -0.053,-0.809 -0.05,-1.198 0.004,-0.415 0.02,-0.816 0.022,-1.195 10e-4,-0.431 -0.028,-0.832 -0.029,-1.195 0,-0.471 0.093,-0.876 0.091,-1.19 0,-0.251 -0.062,-0.251 -0.062,-0.503 0,-0.319 -0.095,-0.764 -0.105,-1.295 -0.007,-0.391 0.008,-0.829 -0.004,-1.297 -0.01,-0.413 -0.046,-0.848 -0.058,-1.296 -0.012,-0.426 0.117,-0.869 0.105,-1.306 -0.012,-0.438 -0.103,-0.873 -0.116,-1.301 -0.011,-0.376 0.044,-0.75 0.033,-1.11 -0.01,-0.385 -0.07,-0.755 -0.08,-1.103 -0.01,-0.406 0.069,-0.781 0.061,-1.107 -0.012,-0.498 -0.14,-0.882 -0.14,-1.1 0,-0.586 0.39,-1.005 1.026,-1.005 0.524,0 0.878,0.196 1.133,0.309 0.587,0.261 0.579,0.693 0.579,0.883 -10e-4,0.241 0.011,0.241 0.008,0.482 -0.005,0.353 0.012,0.716 0.14,1.033 0.128,0.317 0.397,0.562 0.644,0.812 0.248,0.25 0.531,0.423 0.845,0.554 0.315,0.131 0.636,0.256 0.987,0.256 0.607,0 0.607,0.068 1.213,0.068 0.607,0 0.607,-0.073 1.212,-0.073 0.607,0 0.607,0.075 1.213,0.075 0.605,0 0.605,-0.113 1.208,-0.113 0.607,0 0.607,0.079 1.213,0.079 0.606,0 0.606,-0.022 1.211,-0.022 0.605,0 0.605,-0.062 1.21,-0.062 0.607,0 0.607,-0.002 1.215,-0.002 0.606,0 0.606,-0.007 1.213,-0.007 0.607,0 0.607,0.036 1.214,0.036 0.608,0 0.608,-0.007 1.215,-0.007 0.607,0 0.607,-0.069 1.214,-0.069 0.608,0 0.608,0.033 1.216,0.033 0.609,0 0.609,0.06 1.219,0.06 0.609,0 0.609,0.083 1.22,0.083 0.352,0 0.661,-0.24 0.976,-0.373 0.315,-0.132 0.657,-0.229 0.904,-0.482 0.249,-0.255 0.475,-0.548 0.602,-0.868 0.127,-0.322 0.158,-0.69 0.15,-1.045 -0.004,-0.204 0.045,-0.368 0.045,-0.486 0,-0.636 0.247,-1.033 0.909,-1.033 0.515,0 0.875,0.16 1.131,0.266 0.519,0.212 0.637,0.575 0.637,0.88 0,0.199 0.009,0.587 0.004,1.102 -0.004,0.323 -0.095,0.695 -0.1,1.103 -0.004,0.345 0.067,0.716 0.063,1.103 -0.005,0.357 0.039,0.728 0.035,1.105 -0.005,0.367 -0.104,0.74 -0.108,1.114 -0.005,0.374 -0.059,0.748 -0.064,1.116 -0.004,0.381 0.072,0.757 0.068,1.119 -0.003,0.389 0.042,0.764 0.038,1.116 -0.004,0.405 -0.129,0.78 -0.132,1.114 -0.004,0.461 0.042,0.843 0.042,1.109 -0.001,0.504 0.029,0.504 0.028,1.008 -0.001,0.231 -0.082,0.622 -0.083,1.131 -0.001,0.332 0,0.713 -0.001,1.132 0,0.353 0.04,0.732 0.039,1.131 0,0.364 -0.028,0.744 -0.028,1.134 0,0.371 0.091,0.751 0.09,1.134 0,0.376 -0.144,0.757 -0.144,1.136 0,0.381 0.013,0.767 0.013,1.142 0.044,0.298 0.197,0.65 0.43,0.871 0.459,0.232 0.767,0.437 0.933,0.664 0.275,0.375 0.267,0.784 -0.093,1.067 C 0.868,-0.232 0.453,-0.113 0,0" />
    </g>
    <g
       transform="matrix(0.35277777,0,0,-0.35277777,117.40012,132.45341)"
       id="g8518">
      <path
         id="path8520"
         style="fill:#000000;fill-opacity:1;fill-rule:nonzero;stroke:none"
         d="M 0,0 -0.312,0.186 C -0.535,0.316 -0.71,0.487 -0.878,0.65 -1.022,0.792 -1.173,0.936 -1.354,1.057 -1.514,1.163 -1.694,1.26 -1.885,1.362 -2.127,1.493 -2.377,1.625 -2.601,1.789 -2.808,1.94 -3,2.109 -3.186,2.271 c -0.144,0.127 -0.291,0.255 -0.45,0.381 -0.148,0.117 -0.348,0.22 -0.559,0.325 -0.244,0.124 -0.497,0.252 -0.698,0.422 -0.181,0.157 -0.334,0.332 -0.48,0.5 -0.128,0.147 -0.26,0.298 -0.41,0.436 -0.138,0.126 -0.291,0.248 -0.446,0.373 -0.196,0.156 -0.399,0.318 -0.582,0.495 -0.304,0.297 -0.61,0.605 -0.918,0.921 -0.123,0.124 -0.252,0.25 -0.383,0.376 -0.184,0.175 -0.369,0.353 -0.54,0.538 l -0.221,0.24 c -0.215,0.23 -0.432,0.465 -0.643,0.703 -0.15,0.17 -0.284,0.351 -0.42,0.531 -0.112,0.148 -0.224,0.3 -0.348,0.446 -0.145,0.172 -0.27,0.352 -0.39,0.527 -0.107,0.156 -0.215,0.312 -0.338,0.465 -0.14,0.174 -0.24,0.361 -0.337,0.543 -0.089,0.169 -0.174,0.329 -0.291,0.48 -0.108,0.14 -0.265,0.273 -0.43,0.412 -0.186,0.157 -0.376,0.318 -0.516,0.506 -0.15,0.204 -0.294,0.411 -0.44,0.623 -0.087,0.124 -0.174,0.25 -0.263,0.376 -0.127,0.176 -0.239,0.362 -0.353,0.549 -0.093,0.155 -0.188,0.312 -0.294,0.465 -0.101,0.15 -0.233,0.294 -0.371,0.448 -0.15,0.165 -0.305,0.336 -0.429,0.524 l -0.226,0.337 c -0.147,0.221 -0.297,0.446 -0.441,0.672 -0.123,0.194 -0.165,0.4 -0.206,0.599 -0.037,0.179 -0.07,0.346 -0.16,0.491 -0.11,0.18 -0.208,0.364 -0.306,0.549 -0.085,0.16 -0.171,0.322 -0.266,0.484 -0.09,0.149 -0.184,0.299 -0.281,0.449 -0.119,0.187 -0.24,0.376 -0.351,0.568 -0.089,0.157 -0.191,0.312 -0.295,0.467 -0.119,0.182 -0.24,0.364 -0.343,0.551 -0.104,0.186 -0.195,0.375 -0.285,0.565 -0.079,0.162 -0.155,0.322 -0.241,0.484 -0.084,0.155 -0.176,0.311 -0.27,0.468 -0.112,0.187 -0.224,0.376 -0.324,0.568 -0.159,0.187 -0.435,0.349 -0.702,0.508 -0.166,0.096 -0.322,0.188 -0.455,0.294 -0.017,0.014 -0.031,0.027 -0.048,0.04 -0.144,-0.014 -0.015,-0.027 -0.161,-0.024 -0.138,10e-4 -0.334,0.006 -0.472,0.012 -0.026,-0.089 -0.049,-0.183 -0.075,-0.281 -0.086,-0.346 -0.185,-0.736 -0.378,-1.125 -0.03,-0.079 -0.038,-0.109 -0.065,-0.164 -0.215,-0.434 -0.87,-1.095 -1.494,-1.706 -0.711,-0.691 -1.174,-0.89 -1.793,-1.137 -0.569,-0.232 -0.777,-0.242 -1.393,-0.271 l -0.296,-0.015 c -0.057,-0.003 -0.22,-0.035 -0.39,-0.07 -0.308,-0.059 -0.45,-0.086 -0.525,-0.086 -0.578,0 -1.104,0.11 -1.732,0.255 -0.707,0.16 -1.357,0.34 -1.992,0.781 -0.536,0.378 -1.119,0.786 -1.569,1.462 -0.006,-0.007 -0.086,0.016 -0.149,0.107 -0.165,0.244 -0.312,0.467 -0.431,0.7 -0.583,-0.395 -1.082,-0.652 -1.558,-0.798 -0.429,-0.136 -1.201,-0.256 -2.071,-0.194 -0.63,0.044 -1.252,0.194 -1.796,0.432 -0.118,0.051 -0.175,0.097 -0.221,0.134 -0.037,0.029 -0.058,0.046 -0.123,0.074 -0.755,0.308 -1.418,0.603 -1.927,1.103 -0.32,0.312 -0.749,0.522 -0.92,0.886 -0.185,-0.104 -0.389,-0.197 -0.576,-0.282 -0.086,-0.039 -0.187,-0.052 -0.245,-0.113 -0.215,-0.227 -0.366,-0.162 -0.491,-0.227 -0.41,-0.211 -0.474,-0.177 -0.879,-0.276 -0.005,-10e-4 -0.007,-10e-4 -0.012,-0.002 -0.058,-0.056 -0.122,-0.106 -0.173,-0.167 -0.079,-0.162 -0.209,-0.343 -0.333,-0.517 -0.117,-0.161 -0.203,-0.199 -0.287,-0.354 -0.075,-0.141 -0.087,-0.31 -0.1,-0.487 -0.015,-0.205 -0.03,-0.42 -0.144,-0.624 l -0.054,-0.098 c -0.176,-0.314 -0.349,-0.627 -0.526,-0.934 -0.083,-0.145 -0.163,-0.289 -0.243,-0.432 -0.112,-0.203 -0.223,-0.402 -0.34,-0.597 -0.119,-0.203 -0.317,-0.368 -0.508,-0.528 -0.168,-0.141 -0.327,-0.276 -0.414,-0.415 -0.088,-0.145 -0.173,-0.29 -0.257,-0.434 -0.117,-0.198 -0.233,-0.395 -0.355,-0.588 -0.091,-0.141 -0.121,-0.309 -0.154,-0.487 -0.036,-0.204 -0.074,-0.415 -0.204,-0.61 -0.128,-0.195 -0.324,-0.358 -0.513,-0.515 -0.169,-0.141 -0.329,-0.274 -0.426,-0.415 -0.1,-0.146 -0.15,-0.311 -0.204,-0.488 -0.058,-0.194 -0.12,-0.397 -0.253,-0.584 -0.133,-0.187 -0.303,-0.356 -0.467,-0.519 -0.148,-0.146 -0.289,-0.286 -0.396,-0.431 -0.113,-0.153 -0.208,-0.318 -0.299,-0.477 -0.104,-0.18 -0.21,-0.365 -0.346,-0.542 -0.147,-0.191 -0.363,-0.344 -0.573,-0.49 -0.186,-0.132 -0.36,-0.256 -0.47,-0.391 -0.113,-0.141 -0.174,-0.306 -0.239,-0.479 -0.073,-0.196 -0.147,-0.397 -0.3,-0.579 -0.155,-0.184 -0.367,-0.336 -0.572,-0.484 -0.183,-0.13 -0.356,-0.253 -0.475,-0.389 -0.112,-0.126 -0.22,-0.254 -0.327,-0.38 -0.165,-0.194 -0.329,-0.388 -0.501,-0.573 -0.245,-0.266 -0.494,-0.519 -0.738,-0.77 L -55.018,6.208 C -55.157,6.064 -55.274,5.906 -55.388,5.753 -55.516,5.581 -55.649,5.4 -55.818,5.237 -55.963,5.098 -56.077,4.946 -56.199,4.786 -56.331,4.613 -56.467,4.434 -56.642,4.274 -56.831,4.1 -57.05,3.949 -57.261,3.802 -57.437,3.68 -57.604,3.564 -57.748,3.441 -57.964,3.256 -58.194,3.086 -58.417,2.919 -58.561,2.813 -58.702,2.708 -58.836,2.603 -59.046,2.436 -59.285,2.294 -59.515,2.158 -59.702,2.049 -59.878,1.945 -60.033,1.832 -60.157,1.741 -60.278,1.651 -60.397,1.562 -60.649,1.374 -60.895,1.191 -61.151,1.021 -61.333,0.9 -61.488,0.757 -61.639,0.62 c -0.173,-0.161 -0.353,-0.326 -0.574,-0.456 -0.267,-0.159 -0.547,-0.287 -0.82,-0.413 0.2,-0.018 0.347,-0.015 0.591,-0.011 0.124,0.001 0.272,0.003 0.461,0.003 0.404,0 0.6,0.021 0.808,0.041 0.208,0.022 0.423,0.042 0.845,0.042 0.425,0 0.64,-0.029 0.849,-0.059 0.206,-0.029 0.4,-0.057 0.801,-0.057 0.399,0 0.594,0.031 0.799,0.065 0.21,0.033 0.427,0.067 0.854,0.067 0.421,0 0.635,-0.017 0.842,-0.034 0.209,-0.017 0.407,-0.035 0.813,-0.035 0.42,0 0.632,-0.013 0.838,-0.028 0.204,-0.014 0.408,-0.029 0.815,-0.029 0.406,0 0.604,0.017 0.813,0.035 0.207,0.019 0.422,0.036 0.843,0.036 0.414,0 0.62,0.004 0.828,0.005 0.208,0.004 0.415,0.005 0.831,0.005 0.631,0 0.784,-0.008 1.186,-0.006 0.115,0 0.249,0 0.422,0.001 0.123,0.082 0.55,0.375 1.167,0.819 0.172,0.124 0.343,0.283 0.525,0.45 0.158,0.144 0.327,0.301 0.519,0.457 0.158,0.128 0.346,0.24 0.544,0.359 0.236,0.142 0.48,0.288 0.674,0.463 0.15,0.135 0.259,0.305 0.373,0.484 0.117,0.18 0.237,0.367 0.409,0.543 0.133,0.134 0.284,0.263 0.438,0.396 0.197,0.169 0.4,0.344 0.565,0.533 0.272,0.308 0.549,0.647 0.823,1.001 0.097,0.127 0.202,0.253 0.309,0.381 0.171,0.204 0.346,0.415 0.49,0.633 0.097,0.143 0.141,0.314 0.188,0.492 0.041,0.156 0.083,0.319 0.162,0.477 l 0.064,0.129 c 0.141,0.284 0.273,0.553 0.377,0.82 0.076,0.198 0.201,0.378 0.313,0.537 0.102,0.146 0.199,0.285 0.237,0.406 0.167,0.538 0.232,0.926 0.239,0.969 0.076,0.343 0.438,0.565 0.848,0.536 0.277,-0.027 0.543,-0.165 0.678,-0.352 0.085,-0.118 0.116,-0.244 0.089,-0.368 -0.018,-0.16 -0.063,-0.558 -0.224,-1.076 -0.062,-0.197 -0.153,-0.41 -0.248,-0.633 -0.057,-0.134 -0.117,-0.272 -0.172,-0.414 -0.079,-0.202 -0.234,-0.382 -0.381,-0.558 -0.121,-0.143 -0.245,-0.289 -0.317,-0.434 -0.067,-0.133 -0.09,-0.284 -0.116,-0.442 -0.035,-0.215 -0.07,-0.436 -0.207,-0.64 -0.135,-0.206 -0.301,-0.399 -0.461,-0.586 -0.107,-0.126 -0.214,-0.25 -0.309,-0.376 -0.107,-0.141 -0.196,-0.288 -0.284,-0.432 -0.115,-0.187 -0.234,-0.383 -0.385,-0.56 -0.162,-0.191 -0.384,-0.341 -0.6,-0.487 C -42.645,3.198 -42.812,3.086 -42.929,2.961 -43.06,2.824 -43.148,2.669 -43.243,2.504 -43.349,2.32 -43.457,2.131 -43.629,1.968 -43.821,1.786 -44.045,1.632 -44.26,1.484 -44.425,1.37 -44.582,1.261 -44.712,1.149 -45.044,0.865 -45.376,0.607 -45.669,0.381 l -0.082,-0.063 c -0.149,-0.114 -0.292,-0.23 -0.429,-0.339 -0.11,-0.088 -0.216,-0.173 -0.318,-0.253 0.23,-0.02 0.381,-0.014 0.597,-0.005 0.155,0.007 0.341,0.015 0.609,0.015 0.396,0 0.588,0.034 0.792,0.068 0.208,0.036 0.425,0.072 0.851,0.072 0.822,0 0.821,-0.005 1.639,-0.005 0.416,0 0.624,-0.012 0.831,-0.024 0.203,-0.012 0.407,-0.026 0.812,-0.026 0.398,0 0.592,0.029 0.797,0.06 0.208,0.031 0.424,0.061 0.847,0.061 0.418,0 0.631,-0.019 0.837,-0.037 0.207,-0.019 0.402,-0.038 0.805,-0.038 0.413,0 0.62,-0.005 0.827,-0.01 0.205,-0.005 0.409,-0.01 0.818,-0.01 0.419,0 0.632,-0.014 0.837,-0.029 0.203,-0.014 0.406,-0.029 0.812,-0.029 0.294,0 0.503,-0.032 0.671,-0.058 0.303,-0.046 0.428,-0.068 0.743,0.153 0.302,0.21 0.29,0.25 0.233,0.443 -0.033,0.112 -0.079,0.267 -0.079,0.48 0,0.258 -0.04,0.381 -0.086,0.521 -0.049,0.148 -0.103,0.315 -0.103,0.631 0,0.325 0.077,0.496 0.146,0.645 0.062,0.136 0.115,0.254 0.115,0.504 0,0.244 -0.065,0.359 -0.14,0.492 -0.086,0.153 -0.184,0.327 -0.184,0.66 0,0.3 0.019,0.451 0.037,0.597 0.018,0.143 0.034,0.28 0.034,0.557 0,0.291 0.006,0.438 0.012,0.582 0.006,0.143 0.011,0.285 0.011,0.569 0,0.316 0.057,0.485 0.106,0.633 0.048,0.139 0.089,0.262 0.089,0.523 0,0.291 0.003,0.435 0.006,0.58 0.004,0.145 0.007,0.287 0.007,0.575 0,0.272 -0.025,0.404 -0.053,0.545 -0.028,0.15 -0.058,0.305 -0.058,0.611 0,0.327 0.305,0.538 0.778,0.538 0.584,0 0.672,-0.337 0.672,-0.538 0,-0.286 10e-4,-0.429 0.003,-0.572 0.001,-0.145 0.002,-0.288 0.002,-0.577 0,-0.254 0.047,-0.373 0.1,-0.51 0.06,-0.15 0.126,-0.321 0.126,-0.643 0,-0.311 -0.047,-0.476 -0.088,-0.622 -0.039,-0.136 -0.076,-0.264 -0.076,-0.528 0,-0.264 0.036,-0.392 0.075,-0.528 0.042,-0.153 0.086,-0.311 0.086,-0.622 0,-0.304 -0.026,-0.456 -0.051,-0.606 -0.024,-0.142 -0.046,-0.274 -0.046,-0.549 0,-0.263 0.037,-0.391 0.075,-0.527 0.042,-0.146 0.089,-0.311 0.089,-0.625 0,-0.316 -0.054,-0.483 -0.102,-0.629 -0.045,-0.142 -0.084,-0.265 -0.084,-0.525 0,-0.291 -0.005,-0.435 -0.008,-0.582 -0.003,-0.143 -0.008,-0.286 -0.008,-0.574 0,-0.262 -0.1,-0.45 -0.181,-0.602 -0.115,-0.219 -0.139,-0.266 0.106,-0.439 0.259,-0.186 0.428,-0.129 0.733,-0.029 0.217,0.071 0.486,0.158 0.845,0.158 0.405,0 0.607,0.009 0.81,0.017 0.207,0.009 0.413,0.018 0.826,0.018 0.411,0 0.617,-0.006 0.822,-0.011 0.203,-0.005 0.406,-0.01 0.811,-0.01 0.425,0 0.641,-0.038 0.849,-0.073 0.203,-0.036 0.394,-0.07 0.788,-0.07 0.396,0 0.59,0.029 0.794,0.058 0.207,0.03 0.422,0.061 0.844,0.061 0.424,0 0.641,-0.041 0.849,-0.08 0.203,-0.038 0.394,-0.075 0.786,-0.075 0.397,0 0.589,0.031 0.793,0.061 0.207,0.033 0.423,0.065 0.846,0.065 0.402,0 0.599,0.019 0.805,0.036 0.205,0.019 0.418,0.038 0.837,0.038 0.361,0 0.57,-0.037 0.754,-0.067 0.141,-0.024 0.251,-0.037 0.416,-0.043 -0.059,0.048 -0.12,0.099 -0.18,0.149 -0.14,0.117 -0.291,0.245 -0.467,0.379 -0.225,0.174 -0.446,0.368 -0.682,0.574 l -0.317,0.275 c -0.129,0.111 -0.313,0.21 -0.507,0.315 -0.243,0.129 -0.493,0.264 -0.686,0.448 -0.358,0.339 -0.646,0.626 -0.91,0.902 -0.159,0.17 -0.28,0.356 -0.396,0.538 -0.096,0.148 -0.194,0.301 -0.314,0.442 -0.169,0.198 -0.32,0.409 -0.466,0.615 -0.084,0.117 -0.169,0.238 -0.26,0.357 -0.154,0.204 -0.288,0.421 -0.418,0.63 -0.075,0.121 -0.151,0.243 -0.233,0.366 -0.083,0.124 -0.183,0.246 -0.286,0.369 -0.159,0.194 -0.324,0.395 -0.433,0.615 l -0.081,0.161 c -0.144,0.289 -0.294,0.591 -0.407,0.879 -0.094,0.24 -0.145,0.478 -0.189,0.687 -0.028,0.135 -0.056,0.263 -0.092,0.382 -0.16,0.513 -0.127,0.914 -0.114,1.065 l 0.177,0.046 -0.17,-0.038 c -0.028,0.132 -0.056,0.378 0.085,0.571 0.061,0.083 0.18,0.187 0.397,0.207 0.447,0.038 0.851,-0.289 0.918,-0.602 0.003,-0.014 0.005,-0.043 0.005,-0.056 -0.003,-0.286 0.051,-0.62 0.151,-0.94 0.041,-0.131 0.127,-0.279 0.22,-0.437 0.095,-0.162 0.195,-0.33 0.266,-0.516 0.058,-0.148 0.093,-0.303 0.127,-0.451 0.044,-0.189 0.084,-0.366 0.166,-0.533 0.083,-0.166 0.23,-0.333 0.375,-0.495 0.112,-0.126 0.226,-0.257 0.317,-0.392 0.189,-0.284 0.403,-0.558 0.609,-0.823 l 0.153,-0.2 c 0.129,-0.166 0.231,-0.338 0.331,-0.503 0.116,-0.194 0.226,-0.378 0.37,-0.543 0.234,-0.268 0.487,-0.521 0.732,-0.768 l 0.194,-0.194 c 0.171,-0.174 0.395,-0.325 0.612,-0.473 0.184,-0.125 0.375,-0.252 0.529,-0.393 0.192,-0.174 0.33,-0.358 0.463,-0.535 0.13,-0.172 0.252,-0.333 0.409,-0.459 0.179,-0.147 0.345,-0.291 0.501,-0.426 0.202,-0.177 0.393,-0.344 0.578,-0.477 0.386,-0.278 0.795,-0.478 1.212,-0.592 0.01,-0.003 0.019,-0.005 0.027,-0.008 0.466,-0.004 0.669,0 0.907,0.001 0.189,0.004 0.398,0.006 0.768,0.006 0.438,0 0.662,-0.031 0.879,-0.06 0.213,-0.029 0.415,-0.058 0.831,-0.058 0.437,0 0.66,-0.025 0.875,-0.051 0.215,-0.025 0.417,-0.051 0.833,-0.051 0.425,0 0.638,0.007 0.851,0.012 0.214,0.005 0.43,0.01 0.86,0.01 0.424,0 0.636,0.011 0.848,0.019 0.216,0.008 0.432,0.017 0.864,0.017 0.43,0 0.646,-0.007 0.861,-0.014 0.212,-0.006 0.425,-0.015 0.849,-0.015 0.42,0 0.624,0.019 0.841,0.037 0.214,0.019 0.437,0.038 0.872,0.038 0.434,0 0.65,-0.009 0.866,-0.017 0.212,-0.008 0.425,-0.017 0.851,-0.017 0.372,0 0.601,-0.037 0.802,-0.07 C 0.289,-0.288 0.398,-0.306 0.524,-0.312 0.351,-0.211 0.174,-0.105 0,0" />
    </g>
    <g
       transform="matrix(0.35277777,0,0,-0.35277777,110.0114,123.44001)"
       id="g8522">
      <path
         id="path8524"
         style="fill:#000000;fill-opacity:1;fill-rule:nonzero;stroke:none"
         d="m 0,0 0.07,0.002 c 0.097,0.005 0.201,0.01 0.305,0.01 H 0.6 C 1.108,0.002 1.597,0.007 2.016,0.143 2.536,0.313 3.049,0.576 3.498,0.9 3.893,1.188 4.39,1.576 4.726,2.038 4.958,2.361 5.09,2.807 5.205,3.2 L 5.322,3.59 C 5.521,4.197 5.615,4.708 5.615,5.2 L 5.617,5.44 C 5.62,5.952 5.622,6.437 5.486,6.859 L 5.484,6.861 C 5.375,7.207 5.12,7.515 4.871,7.812 4.742,7.969 4.64,8.095 4.543,8.229 4.44,8.375 4.344,8.521 4.245,8.67 4.021,9.021 3.814,9.343 3.532,9.547 3.098,9.862 2.52,10.049 2.009,10.216 c -0.445,0.143 -1.033,0.31 -1.634,0.31 -0.613,0 -1.269,-0.157 -2.06,-0.492 -0.068,-0.021 -0.088,-0.029 -0.11,-0.039 -0.063,-0.035 -0.244,-0.141 -0.45,-0.06 -0.124,0.049 -0.216,0.14 -0.267,0.262 -0.123,0.296 -0.171,0.489 -0.208,0.642 -0.057,0.25 -0.087,0.372 -0.435,0.81 -0.363,0.456 -0.742,0.815 -1.161,1.098 -0.228,0.149 -0.56,0.245 -0.913,0.345 -0.215,0.06 -0.406,0.113 -0.604,0.178 l -0.298,0.105 c -0.404,0.14 -0.807,0.281 -1.258,0.332 -0.614,0.075 -1.162,0.003 -1.671,-0.077 -0.561,-0.085 -1.142,-0.194 -1.591,-0.422 -0.466,-0.238 -0.814,-0.601 -1.119,-0.919 l -0.134,-0.136 c -0.086,-0.089 -0.18,-0.175 -0.271,-0.259 -0.165,-0.15 -0.35,-0.32 -0.381,-0.418 -0.1,-0.328 -0.515,-0.702 -0.563,-0.745 l -0.104,-0.089 -0.112,0.078 c -0.004,0.003 -0.402,0.282 -0.85,0.514 -0.066,0.034 -0.132,0.073 -0.202,0.114 -0.165,0.097 -0.35,0.206 -0.648,0.304 -0.382,0.126 -1.001,0.283 -1.791,0.312 h -0.029 c -0.429,0 -0.965,-0.104 -1.435,-0.199 l -0.347,-0.07 c -0.107,-0.022 -0.221,-0.044 -0.336,-0.065 -0.478,-0.09 -0.973,-0.182 -1.466,-0.376 -0.477,-0.189 -0.846,-0.497 -1.206,-0.796 L -21.88,10.262 C -22.344,9.887 -22.719,9.47 -23.026,8.989 -23.318,8.531 -23.564,8.039 -23.823,7.392 -23.951,7.077 -24.087,6.766 -24.22,6.464 l -0.153,-0.348 c -0.066,-0.152 -0.133,-0.302 -0.196,-0.449 -0.269,-0.636 -0.6,-1.187 -1.014,-1.691 -0.392,-0.48 -0.897,-0.835 -1.639,-1.154 -0.579,-0.25 -1.115,-0.406 -1.637,-0.478 -0.734,-0.1 -1.265,-0.117 -1.72,-0.058 -0.471,0.068 -0.723,0.21 -0.892,0.31 0.109,-0.257 0.266,-0.543 0.525,-0.855 0.33,-0.401 0.815,-0.781 1.281,-1.135 0.342,-0.262 0.865,-0.64 1.454,-0.916 0.39,-0.183 0.831,-0.277 1.298,-0.377 0.116,-0.024 0.235,-0.05 0.35,-0.075 l 0.272,-0.063 c 0.466,-0.111 0.924,-0.22 1.382,-0.22 0.458,0.005 0.921,0.126 1.37,0.244 l 0.538,0.134 c 0.477,0.116 0.963,0.233 1.416,0.456 0.433,0.211 0.902,0.557 1.358,0.892 l 0.143,0.106 c 0.138,0.1 0.307,0.105 0.439,0.024 0.116,-0.052 0.203,-0.193 0.203,-0.35 0,-0.173 0.05,-0.378 0.148,-0.602 0.129,-0.305 0.335,-0.599 0.598,-0.855 0.396,-0.389 0.9,-0.709 1.494,-0.951 0.128,-0.053 0.259,-0.109 0.39,-0.168 0.447,-0.196 0.902,-0.395 1.358,-0.427 0.722,-0.052 1.326,0.098 1.617,0.192 0.391,0.119 0.803,0.328 1.254,0.638 -0.087,0.335 -0.151,0.723 -0.197,1.183 -0.002,0.026 -0.009,0.049 -0.014,0.073 -0.009,0.038 -0.016,0.077 -0.019,0.116 -0.036,0.509 0.007,1.012 0.133,1.537 -0.369,0.111 -0.873,0.272 -1.338,0.589 -0.469,0.319 -1.001,0.708 -1.331,1.266 -0.444,0.754 -0.549,1.802 -0.282,2.802 0.308,1.155 0.81,1.633 1.258,1.991 1.046,0.839 2.287,0.58 2.423,0.55 0.751,-0.103 1.454,-0.272 1.404,-0.821 -0.058,-0.602 -1.057,-0.633 -1.642,-0.594 -0.155,-0.006 -0.708,-0.047 -1.178,-0.44 -0.393,-0.332 -0.642,-0.698 -0.761,-1.121 -0.134,-0.469 -0.053,-1.099 0.197,-1.528 0.373,-0.628 1.245,-1.021 1.808,-1.219 0.451,0.669 1.115,1.219 2.08,1.723 0.744,0.397 1.44,0.558 2.144,0.487 C -6.819,4.788 -5.971,4.347 -5.812,4.26 -5.55,4.068 -4.91,3.591 -5.192,3.096 -5.409,2.713 -5.962,2.774 -6.376,2.948 L -6.443,2.98 c -0.513,0.246 -1.005,0.392 -1.461,0.435 -0.034,0.003 -0.07,0.004 -0.104,0.004 -0.435,0 -0.924,-0.228 -1.301,-0.427 L -9.508,2.89 c -0.392,-0.201 -0.8,-0.407 -1.05,-0.682 -0.325,-0.356 -0.454,-0.853 -0.568,-1.291 -0.087,-0.33 -0.116,-0.699 -0.089,-1.133 l 0.006,-0.133 c 0,-0.081 10e-4,-0.161 0.015,-0.247 l 0.013,-0.095 c 0.085,-0.565 0.165,-1.1 0.327,-1.486 0.087,-0.183 0.218,-0.378 0.344,-0.565 l 0.131,-0.191 c 0.32,-0.48 0.812,-0.825 1.244,-1.131 0.522,-0.361 1.01,-0.582 1.551,-0.705 0.591,-0.136 1.135,-0.18 1.744,-0.162 0.746,0.041 1.344,0.108 1.828,0.304 0.536,0.214 1.032,0.547 1.519,1.019 0.41,0.403 0.669,0.922 0.896,1.38 l 0.08,0.167 c 0.417,0.85 0.621,1.454 0.669,1.738 0.019,0.092 0.073,0.151 0.106,0.191 0.138,0.153 0.29,0.151 0.363,0.132 0.104,-0.007 0.234,-0.003 0.379,0" />
    </g>
    <g
       transform="matrix(0.35277777,0,0,-0.35277777,92.609547,171.41194)"
       id="g8526">
      <path
         id="path8528"
         style="fill:#000000;fill-opacity:1;fill-rule:nonzero;stroke:none"
         d="m 0,0 c -0.065,0.462 -0.227,0.824 -0.489,1.086 -0.342,0.341 -0.75,0.511 -1.227,0.511 -0.398,0 -0.726,-0.129 -0.989,-0.392 -0.19,-0.199 -0.286,-0.434 -0.286,-0.704 0,-0.477 0.414,-0.845 1.24,-1.106 l 0.309,-0.096 C -0.759,-0.915 -0.279,-1.13 0,-1.345 c 0.405,-0.309 0.607,-0.719 0.607,-1.228 0,-0.603 -0.226,-1.056 -0.679,-1.359 -0.357,-0.245 -0.793,-0.367 -1.31,-0.367 -0.453,0 -0.936,0.143 -1.453,0.429 -0.174,0.102 -0.311,0.153 -0.406,0.153 -0.136,0 -0.202,-0.143 -0.202,-0.429 h -0.346 v 2.24 h 0.37 c 0.039,-0.578 0.214,-1.025 0.524,-1.334 0.396,-0.406 0.894,-0.607 1.489,-0.607 0.851,0 1.275,0.373 1.275,1.12 0,0.334 -0.128,0.603 -0.381,0.811 -0.167,0.135 -0.56,0.31 -1.18,0.524 l -0.369,0.12 c -0.557,0.181 -0.93,0.351 -1.12,0.51 -0.358,0.285 -0.536,0.657 -0.536,1.11 0,0.444 0.167,0.829 0.5,1.154 0.364,0.342 0.841,0.514 1.43,0.514 0.507,0 0.96,-0.124 1.358,-0.371 0.119,-0.064 0.218,-0.096 0.298,-0.096 0.087,0 0.143,0.116 0.167,0.347 H 0.345 V 0 Z" />
    </g>
    <g
       transform="matrix(0.35277777,0,0,-0.35277777,96.492009,172.853)"
       id="g8530">
      <path
         id="path8532"
         style="fill:#000000;fill-opacity:1;fill-rule:nonzero;stroke:none"
         d="m 0,0 h -2.931 v 0.344 c 0.255,0 0.476,0.02 0.667,0.061 0.263,0.072 0.395,0.31 0.395,0.715 v 2.561 c 0,1.223 -0.453,1.834 -1.358,1.834 -0.882,0 -1.506,-0.484 -1.872,-1.453 V 1.12 c 0,-0.366 0.095,-0.589 0.286,-0.667 0.184,-0.071 0.442,-0.109 0.776,-0.109 V 0 h -2.931 v 0.344 c 0.286,0 0.51,0.024 0.677,0.072 0.262,0.071 0.395,0.306 0.395,0.704 v 6.362 c 0,0.373 -0.095,0.596 -0.286,0.667 -0.119,0.055 -0.378,0.082 -0.776,0.082 v 0.372 c 0.667,0.015 1.287,0.078 1.859,0.19 V 4.861 c 0.524,0.786 1.204,1.178 2.039,1.178 1.334,0 2.001,-0.73 2.001,-2.192 V 1.12 c 0,-0.366 0.096,-0.589 0.286,-0.667 C -0.591,0.382 -0.333,0.344 0,0.344 Z" />
    </g>
    <g
       transform="matrix(0.35277777,0,0,-0.35277777,98.109637,169.80616)"
       id="g8534">
      <path
         id="path8536"
         style="fill:#000000;fill-opacity:1;fill-rule:nonzero;stroke:none"
         d="M 0,0 C 0.173,0 0.321,-0.058 0.44,-0.177 0.56,-0.305 0.62,-0.453 0.62,-0.62 0.62,-1.024 0.412,-1.226 0,-1.226 c -0.405,0 -0.608,0.202 -0.608,0.606 C -0.608,-0.206 -0.405,0 0,0 m 1.441,-8.637 h -2.907 v 0.344 c 0.271,0 0.489,0.024 0.655,0.072 0.269,0.072 0.406,0.306 0.406,0.704 v 3.646 c 0,0.382 -0.095,0.606 -0.286,0.678 -0.126,0.047 -0.385,0.071 -0.775,0.071 v 0.371 c 0.668,0.016 1.292,0.082 1.871,0.201 v -4.967 c 0,-0.366 0.092,-0.588 0.274,-0.667 0.182,-0.071 0.437,-0.109 0.762,-0.109 z" />
    </g>
    <g
       transform="matrix(0.35277777,0,0,-0.35277777,102.21138,172.853)"
       id="g8538">
      <path
         id="path8540"
         style="fill:#000000;fill-opacity:1;fill-rule:nonzero;stroke:none"
         d="m 0,0 h -2.943 v 0.344 c 0.262,0 0.48,0.02 0.655,0.061 0.27,0.072 0.405,0.31 0.405,0.715 v 2.561 c 0,1.223 -0.452,1.834 -1.358,1.834 -0.882,0 -1.496,-0.484 -1.847,-1.453 V 1.12 c 0,-0.374 0.108,-0.604 0.322,-0.69 0.158,-0.057 0.4,-0.086 0.726,-0.086 V 0 h -2.942 v 0.344 c 0.294,0 0.516,0.024 0.667,0.072 0.271,0.071 0.405,0.306 0.405,0.704 v 3.646 c 0,0.381 -0.095,0.606 -0.286,0.677 -0.135,0.048 -0.396,0.072 -0.786,0.072 v 0.371 c 0.699,0.015 1.315,0.082 1.846,0.201 V 4.8 c 0.501,0.827 1.192,1.239 2.073,1.239 1.335,0 2.002,-0.73 2.002,-2.192 V 1.12 c 0,-0.374 0.116,-0.604 0.346,-0.69 C -0.563,0.373 -0.325,0.344 0,0.344 Z" />
    </g>
    <g
       transform="matrix(0.35277777,0,0,-0.35277777,104.4166,170.84382)"
       id="g8542">
      <path
         id="path8544"
         style="fill:#000000;fill-opacity:1;fill-rule:nonzero;stroke:none"
         d="m 0,0 c -0.603,0 -1.088,-0.255 -1.453,-0.763 -0.358,-0.5 -0.535,-1.157 -0.535,-1.966 0,-0.85 0.194,-1.521 0.583,-2.013 0.357,-0.452 0.827,-0.681 1.405,-0.681 0.715,0 1.248,0.319 1.597,0.953 0.261,0.501 0.394,1.078 0.394,1.73 0,0.864 -0.195,1.549 -0.585,2.049 C 1.042,-0.231 0.572,0 0,0 m 0,0.429 c 0.804,0 1.475,-0.276 2.016,-0.824 0.587,-0.587 0.881,-1.353 0.881,-2.297 0,-1.01 -0.294,-1.805 -0.881,-2.383 C 1.468,-5.616 0.795,-5.886 0,-5.886 c -0.81,0 -1.484,0.27 -2.025,0.811 -0.579,0.578 -0.869,1.361 -0.869,2.346 0,0.969 0.297,1.752 0.893,2.348 0.532,0.539 1.199,0.81 2.001,0.81" />
    </g>
    <g
       transform="matrix(0.35277777,0,0,-0.35277777,109.16978,172.853)"
       id="g8546">
      <path
         id="path8548"
         style="fill:#000000;fill-opacity:1;fill-rule:nonzero;stroke:none"
         d="m 0,0 h -2.943 v 0.344 c 0.262,0 0.482,0.02 0.655,0.061 0.269,0.072 0.405,0.31 0.405,0.715 v 2.561 c 0,1.223 -0.452,1.834 -1.358,1.834 -0.881,0 -1.497,-0.484 -1.847,-1.453 V 1.12 c 0,-0.374 0.108,-0.604 0.322,-0.69 0.161,-0.057 0.402,-0.086 0.727,-0.086 V 0 h -2.942 v 0.344 c 0.292,0 0.516,0.024 0.667,0.072 0.268,0.071 0.405,0.306 0.405,0.704 v 3.646 c 0,0.381 -0.096,0.606 -0.286,0.677 -0.137,0.048 -0.399,0.072 -0.786,0.072 v 0.371 c 0.697,0.015 1.313,0.082 1.846,0.201 V 4.8 c 0.5,0.827 1.192,1.239 2.072,1.239 1.335,0 2.002,-0.73 2.002,-2.192 V 1.12 c 0,-0.374 0.115,-0.604 0.346,-0.69 C -0.565,0.373 -0.327,0.344 0,0.344 Z" />
    </g>
    <g
       transform="matrix(0.35277777,0,0,-0.35277777,111.37567,170.84382)"
       id="g8550">
      <path
         id="path8552"
         style="fill:#000000;fill-opacity:1;fill-rule:nonzero;stroke:none"
         d="m 0,0 c -0.604,0 -1.089,-0.255 -1.453,-0.763 -0.358,-0.5 -0.538,-1.157 -0.538,-1.966 0,-0.85 0.196,-1.521 0.586,-2.013 0.357,-0.452 0.825,-0.681 1.405,-0.681 0.715,0 1.246,0.319 1.597,0.953 0.262,0.501 0.391,1.078 0.391,1.73 0,0.864 -0.194,1.549 -0.582,2.049 C 1.04,-0.231 0.572,0 0,0 m 0,0.429 c 0.802,0 1.473,-0.276 2.012,-0.824 0.589,-0.587 0.882,-1.353 0.882,-2.297 0,-1.01 -0.293,-1.805 -0.882,-2.383 C 1.464,-5.616 0.794,-5.886 0,-5.886 c -0.81,0 -1.485,0.27 -2.025,0.811 -0.58,0.578 -0.871,1.361 -0.871,2.346 0,0.969 0.299,1.752 0.895,2.348 0.53,0.539 1.198,0.81 2.001,0.81" />
    </g>
    <g
       transform="matrix(0.35277777,0,0,-0.35277777,117.29676,172.853)"
       id="g8554">
      <path
         id="path8556"
         style="fill:#000000;fill-opacity:1;fill-rule:nonzero;stroke:none"
         d="m 0,0 h -2.942 v 0.344 c 0.309,0 0.559,0.033 0.75,0.095 0.214,0.065 0.322,0.291 0.322,0.681 v 2.536 c 0,0.644 -0.072,1.09 -0.215,1.335 -0.208,0.358 -0.531,0.537 -0.977,0.537 -0.787,0 -1.346,-0.49 -1.68,-1.466 V 1.12 c 0,-0.374 0.091,-0.596 0.274,-0.667 0.184,-0.071 0.449,-0.109 0.798,-0.109 V 0 h -2.967 v 0.344 c 0.286,0 0.518,0.024 0.692,0.072 0.261,0.071 0.393,0.306 0.393,0.704 v 2.55 c 0,0.667 -0.066,1.111 -0.203,1.334 -0.197,0.35 -0.517,0.524 -0.953,0.524 -0.803,0 -1.365,-0.484 -1.691,-1.453 V 1.12 c 0,-0.374 0.087,-0.596 0.261,-0.667 0.184,-0.071 0.45,-0.109 0.799,-0.109 V 0 h -2.955 v 0.344 c 0.295,0 0.516,0.024 0.667,0.072 0.271,0.071 0.405,0.306 0.405,0.704 v 3.646 c 0,0.381 -0.095,0.606 -0.286,0.677 -0.134,0.048 -0.396,0.072 -0.786,0.072 v 0.371 c 0.724,0.015 1.343,0.082 1.858,0.201 V 4.848 c 0.454,0.795 1.078,1.191 1.872,1.191 0.96,0 1.524,-0.439 1.691,-1.32 0.436,0.881 1.1,1.32 1.99,1.32 1.215,0 1.822,-0.73 1.822,-2.192 V 1.12 c 0,-0.39 0.117,-0.619 0.346,-0.69 0.158,-0.057 0.394,-0.086 0.703,-0.086 H 0 Z" />
    </g>
    <g
       transform="matrix(0.35277777,0,0,-0.35277777,120.10381,171.58832)"
       id="g8558">
      <path
         id="path8560"
         style="fill:#000000;fill-opacity:1;fill-rule:nonzero;stroke:none"
         d="M 0,0 C -0.023,0.699 -0.227,1.239 -0.607,1.62 -0.941,1.938 -1.347,2.097 -1.823,2.097 -2.386,2.097 -2.859,1.852 -3.24,1.358 -3.51,1.001 -3.673,0.548 -3.729,0 Z m 0.822,-0.463 h -4.598 v -0.215 c 0,-0.802 0.246,-1.453 0.738,-1.954 0.405,-0.404 0.9,-0.609 1.489,-0.609 0.875,0 1.549,0.426 2.026,1.277 l 0.321,-0.263 c -0.516,-1.033 -1.346,-1.548 -2.489,-1.548 -0.852,0 -1.553,0.277 -2.11,0.834 -0.548,0.563 -0.822,1.321 -0.822,2.274 0,1.018 0.29,1.815 0.87,2.396 0.509,0.525 1.155,0.787 1.942,0.787 0.762,0 1.382,-0.247 1.859,-0.74 C 0.565,1.26 0.822,0.585 0.822,-0.249 Z" />
    </g>
    <g
       transform="matrix(0.35277777,0,0,-0.35277777,100.59993,179.00146)"
       id="g8562">
      <path
         id="path8564"
         style="fill:#000000;fill-opacity:1;fill-rule:nonzero;stroke:none"
         d="m 0,0 h -2.536 v 0.344 c 0.429,0 0.643,0.085 0.643,0.252 0,0.087 -0.095,0.245 -0.286,0.476 l -1.692,2.05 -0.738,-0.62 V 1.12 c 0,-0.366 0.095,-0.589 0.286,-0.667 0.182,-0.071 0.452,-0.109 0.81,-0.109 V 0 h -2.968 v 0.344 c 0.286,0 0.514,0.024 0.68,0.071 0.262,0.072 0.392,0.307 0.392,0.705 v 6.362 c 0,0.373 -0.095,0.596 -0.286,0.667 -0.119,0.055 -0.376,0.082 -0.773,0.082 v 0.372 c 0.667,0.014 1.287,0.078 1.859,0.19 v -5.78 l 2.121,1.777 c 0.253,0.206 0.381,0.367 0.381,0.486 0,0.161 -0.262,0.244 -0.787,0.252 v 0.358 h 2.632 V 5.528 C -0.707,5.496 -1.187,5.27 -1.702,4.848 L -3.312,3.537 -1.358,1.216 C -0.882,0.635 -0.429,0.344 0,0.344 Z" />
    </g>
    <g
       transform="matrix(0.35277777,0,0,-0.35277777,103.10021,178.46336)"
       id="g8566">
      <path
         id="path8568"
         style="fill:#000000;fill-opacity:1;fill-rule:nonzero;stroke:none"
         d="M 0,0 V 1.678 L -0.513,1.654 C -2.204,1.567 -3.05,1.02 -3.05,0.01 c 0,-0.372 0.119,-0.677 0.358,-0.915 0.231,-0.224 0.52,-0.334 0.869,-0.334 0.476,0 0.9,0.146 1.275,0.439 C -0.293,-0.593 -0.112,-0.327 0,0 M 1.858,-1.072 C 1.675,-1.494 1.382,-1.706 0.977,-1.706 c -0.572,0 -0.87,0.351 -0.894,1.049 -0.491,-0.715 -1.183,-1.072 -2.073,-1.072 -0.532,0 -0.977,0.142 -1.334,0.428 -0.382,0.31 -0.572,0.724 -0.572,1.239 0,1.288 1.091,1.999 3.276,2.135 L 0,2.106 v 0.215 c 0,1.224 -0.48,1.835 -1.441,1.835 -0.635,0 -1.068,-0.209 -1.299,-0.63 0.231,-0.041 0.345,-0.187 0.345,-0.442 0,-0.349 -0.178,-0.524 -0.536,-0.524 -0.398,0 -0.595,0.199 -0.595,0.595 0,0.334 0.186,0.64 0.559,0.919 0.445,0.334 0.977,0.501 1.597,0.501 1.43,0 2.144,-0.715 2.144,-2.144 v -2.479 c 0,-0.81 0.138,-1.215 0.417,-1.215 0.167,0 0.31,0.122 0.429,0.367 z" />
    </g>
    <g
       transform="matrix(0.35277777,0,0,-0.35277777,106.54565,178.33725)"
       id="g8570">
      <path
         id="path8572"
         style="fill:#000000;fill-opacity:1;fill-rule:nonzero;stroke:none"
         d="m 0,0 -0.096,-1.883 h -4.776 v 0.358 L -1.12,3.632 H -2.632 C -3.299,3.632 -3.745,3.521 -3.966,3.299 -4.15,3.132 -4.272,2.764 -4.337,2.192 h -0.32 l 0.105,1.811 h 4.361 V 3.656 l -3.741,-5.147 h 1.93 c 0.644,0 1.077,0.109 1.301,0.323 0.19,0.183 0.312,0.572 0.367,1.168 z" />
    </g>
    <g
       transform="matrix(0.35277777,0,0,-0.35277777,109.14255,178.46336)"
       id="g8574">
      <path
         id="path8576"
         style="fill:#000000;fill-opacity:1;fill-rule:nonzero;stroke:none"
         d="M 0,0 V 1.678 L -0.513,1.654 C -2.204,1.567 -3.051,1.02 -3.051,0.01 c 0,-0.372 0.119,-0.677 0.358,-0.915 0.23,-0.224 0.519,-0.334 0.87,-0.334 0.476,0 0.902,0.146 1.274,0.439 C -0.295,-0.593 -0.111,-0.327 0,0 M 1.858,-1.072 C 1.676,-1.494 1.382,-1.706 0.977,-1.706 c -0.573,0 -0.871,0.351 -0.894,1.049 -0.493,-0.715 -1.185,-1.072 -2.073,-1.072 -0.531,0 -0.977,0.142 -1.334,0.428 -0.382,0.31 -0.572,0.724 -0.572,1.239 0,1.288 1.092,1.999 3.276,2.135 L 0,2.106 v 0.215 c 0,1.224 -0.482,1.835 -1.442,1.835 -0.636,0 -1.069,-0.209 -1.298,-0.63 0.229,-0.041 0.344,-0.187 0.344,-0.442 0,-0.349 -0.178,-0.524 -0.536,-0.524 -0.396,0 -0.595,0.199 -0.595,0.595 0,0.334 0.185,0.64 0.56,0.919 0.446,0.334 0.977,0.501 1.597,0.501 1.43,0 2.144,-0.715 2.144,-2.144 v -2.479 c 0,-0.81 0.14,-1.215 0.417,-1.215 0.166,0 0.31,0.122 0.429,0.367 z" />
    </g>
    <g
       transform="matrix(0.35277777,0,0,-0.35277777,113.35352,179.00146)"
       id="g8578">
      <path
         id="path8580"
         style="fill:#000000;fill-opacity:1;fill-rule:nonzero;stroke:none"
         d="m 0,0 h -2.943 v 0.344 c 0.261,0 0.481,0.02 0.655,0.061 0.268,0.072 0.405,0.31 0.405,0.715 v 2.56 c 0,1.223 -0.453,1.835 -1.358,1.835 -0.882,0 -1.498,-0.484 -1.847,-1.453 V 1.12 c 0,-0.374 0.108,-0.604 0.321,-0.691 0.161,-0.056 0.403,-0.085 0.728,-0.085 V 0 h -2.943 v 0.344 c 0.293,0 0.517,0.024 0.667,0.071 0.269,0.072 0.405,0.307 0.405,0.705 v 3.646 c 0,0.381 -0.095,0.606 -0.286,0.677 -0.136,0.048 -0.398,0.072 -0.786,0.072 v 0.371 c 0.698,0.015 1.314,0.082 1.846,0.201 V 4.8 c 0.501,0.827 1.192,1.239 2.073,1.239 1.335,0 2.002,-0.73 2.002,-2.192 V 1.12 c 0,-0.374 0.115,-0.604 0.346,-0.691 C -0.565,0.373 -0.327,0.344 0,0.344 Z" />
    </g>
  </g>
</svg>
