<?xml version="1.0" encoding="UTF-8" standalone="no"?>
<svg
   xmlns:dc="http://purl.org/dc/elements/1.1/"
   xmlns:cc="http://creativecommons.org/ns#"
   xmlns:rdf="http://www.w3.org/1999/02/22-rdf-syntax-ns#"
   xmlns:svg="http://www.w3.org/2000/svg"
   xmlns="http://www.w3.org/2000/svg"
   id="svg2079"
   version="1.1"
   viewBox="0 0 22.421497 13.98343"
   height="13.98343mm"
   width="22.421497mm">
  <defs
     id="defs2073" />
  <metadata
     id="metadata2076">
    <rdf:RDF>
      <cc:Work
         rdf:about="">
        <dc:format>image/svg+xml</dc:format>
        <dc:type
           rdf:resource="http://purl.org/dc/dcmitype/StillImage" />
        <dc:title></dc:title>
      </cc:Work>
    </rdf:RDF>
  </metadata>
  <g
     transform="translate(-90.842819,-140.32971)"
     id="layer1">
    <g
       transform="matrix(0.35277777,0,0,-0.35277777,113.07946,154.18962)"
       id="g1084">
      <path
         id="path1086"
         style="fill:#000000;fill-opacity:1;fill-rule:nonzero;stroke:none"
         d="m 0,0 -0.312,0.186 c -0.223,0.13 -0.397,0.3 -0.566,0.464 -0.145,0.141 -0.294,0.286 -0.476,0.407 -0.16,0.105 -0.34,0.203 -0.531,0.304 C -2.126,1.492 -2.377,1.625 -2.601,1.789 -2.808,1.94 -3,2.108 -3.185,2.271 c -0.145,0.127 -0.291,0.254 -0.45,0.38 -0.149,0.119 -0.349,0.22 -0.56,0.326 -0.244,0.124 -0.497,0.252 -0.698,0.421 -0.182,0.158 -0.334,0.332 -0.48,0.501 -0.128,0.147 -0.26,0.298 -0.41,0.436 -0.138,0.126 -0.292,0.249 -0.446,0.373 -0.196,0.156 -0.398,0.318 -0.582,0.495 -0.304,0.296 -0.61,0.605 -0.918,0.921 -0.123,0.124 -0.252,0.25 -0.384,0.376 -0.183,0.176 -0.368,0.353 -0.539,0.538 l -0.222,0.24 c -0.214,0.23 -0.431,0.464 -0.642,0.702 -0.15,0.171 -0.284,0.351 -0.42,0.532 -0.112,0.148 -0.224,0.3 -0.349,0.446 -0.143,0.172 -0.268,0.353 -0.389,0.527 -0.107,0.156 -0.215,0.312 -0.337,0.465 -0.141,0.174 -0.241,0.361 -0.337,0.543 -0.09,0.168 -0.175,0.328 -0.291,0.48 -0.109,0.139 -0.266,0.272 -0.431,0.412 -0.185,0.156 -0.376,0.318 -0.515,0.506 -0.151,0.204 -0.295,0.412 -0.441,0.623 -0.087,0.124 -0.174,0.25 -0.264,0.376 -0.126,0.176 -0.239,0.362 -0.352,0.549 -0.093,0.155 -0.188,0.312 -0.294,0.465 -0.102,0.15 -0.232,0.294 -0.371,0.448 -0.15,0.165 -0.306,0.336 -0.429,0.524 l -0.226,0.337 c -0.147,0.221 -0.297,0.446 -0.441,0.672 -0.123,0.194 -0.165,0.4 -0.206,0.599 -0.036,0.179 -0.07,0.346 -0.16,0.491 -0.11,0.18 -0.208,0.364 -0.306,0.549 -0.085,0.161 -0.171,0.322 -0.266,0.484 -0.09,0.149 -0.185,0.299 -0.281,0.449 -0.119,0.188 -0.24,0.376 -0.351,0.568 -0.089,0.157 -0.191,0.312 -0.294,0.467 -0.12,0.182 -0.241,0.363 -0.345,0.551 -0.103,0.186 -0.194,0.375 -0.285,0.565 -0.077,0.162 -0.154,0.322 -0.24,0.484 -0.084,0.154 -0.177,0.311 -0.271,0.468 -0.111,0.187 -0.223,0.376 -0.324,0.568 -0.158,0.187 -0.434,0.35 -0.701,0.508 -0.166,0.096 -0.322,0.188 -0.454,0.294 -0.018,0.013 -0.032,0.027 -0.049,0.041 -0.144,-0.015 -0.015,-0.028 -0.161,-0.026 -0.138,0.002 -0.334,0.007 -0.473,0.012 -0.025,-0.088 -0.048,-0.182 -0.074,-0.28 -0.086,-0.346 -0.186,-0.736 -0.378,-1.125 -0.029,-0.078 -0.038,-0.11 -0.065,-0.164 -0.215,-0.434 -0.87,-1.095 -1.495,-1.706 -0.71,-0.691 -1.173,-0.89 -1.792,-1.137 -0.569,-0.232 -0.777,-0.241 -1.392,-0.271 l -0.297,-0.015 c -0.057,-0.003 -0.221,-0.035 -0.39,-0.07 -0.308,-0.059 -0.45,-0.086 -0.524,-0.086 -0.579,0 -1.105,0.11 -1.733,0.254 -0.707,0.161 -1.358,0.341 -1.992,0.782 -0.537,0.378 -1.119,0.787 -1.569,1.463 -0.006,-0.007 -0.087,0.014 -0.149,0.106 -0.165,0.244 -0.312,0.467 -0.431,0.7 -0.583,-0.395 -1.082,-0.652 -1.558,-0.799 -0.429,-0.135 -1.201,-0.255 -2.071,-0.193 -0.631,0.044 -1.252,0.193 -1.797,0.432 -0.117,0.051 -0.174,0.097 -0.22,0.134 -0.037,0.03 -0.058,0.046 -0.124,0.074 -0.754,0.307 -1.418,0.602 -1.926,1.103 -0.32,0.312 -0.749,0.522 -0.919,0.886 -0.186,-0.104 -0.39,-0.197 -0.576,-0.282 -0.087,-0.039 -0.188,-0.052 -0.246,-0.113 -0.215,-0.227 -0.366,-0.162 -0.491,-0.227 -0.41,-0.211 -0.474,-0.177 -0.879,-0.276 -0.005,-10e-4 -0.007,-10e-4 -0.012,-0.002 -0.058,-0.056 -0.122,-0.106 -0.173,-0.167 -0.079,-0.163 -0.208,-0.343 -0.334,-0.516 -0.116,-0.162 -0.202,-0.2 -0.286,-0.355 -0.075,-0.141 -0.087,-0.31 -0.1,-0.487 -0.015,-0.206 -0.03,-0.42 -0.144,-0.625 l -0.054,-0.097 c -0.176,-0.314 -0.349,-0.627 -0.526,-0.934 -0.083,-0.145 -0.164,-0.289 -0.243,-0.432 -0.112,-0.203 -0.223,-0.402 -0.34,-0.597 -0.119,-0.204 -0.317,-0.369 -0.508,-0.529 -0.168,-0.14 -0.327,-0.275 -0.414,-0.415 -0.088,-0.144 -0.173,-0.289 -0.257,-0.433 -0.117,-0.198 -0.233,-0.396 -0.355,-0.588 -0.091,-0.141 -0.121,-0.31 -0.154,-0.487 -0.036,-0.204 -0.074,-0.415 -0.204,-0.611 -0.128,-0.193 -0.324,-0.357 -0.513,-0.514 -0.169,-0.141 -0.329,-0.274 -0.426,-0.415 -0.1,-0.146 -0.15,-0.311 -0.204,-0.489 -0.058,-0.193 -0.12,-0.396 -0.253,-0.583 -0.133,-0.187 -0.303,-0.356 -0.467,-0.519 -0.148,-0.147 -0.289,-0.287 -0.396,-0.431 -0.113,-0.153 -0.208,-0.318 -0.299,-0.477 -0.104,-0.18 -0.21,-0.366 -0.346,-0.543 -0.147,-0.19 -0.363,-0.343 -0.573,-0.49 -0.186,-0.131 -0.36,-0.255 -0.47,-0.39 -0.113,-0.141 -0.174,-0.306 -0.239,-0.479 -0.073,-0.196 -0.147,-0.397 -0.3,-0.579 -0.155,-0.184 -0.367,-0.335 -0.572,-0.484 -0.183,-0.13 -0.356,-0.253 -0.475,-0.389 -0.112,-0.126 -0.22,-0.254 -0.327,-0.38 -0.165,-0.193 -0.329,-0.388 -0.501,-0.573 -0.245,-0.266 -0.494,-0.52 -0.738,-0.77 l -0.157,-0.16 c -0.139,-0.143 -0.256,-0.301 -0.37,-0.454 -0.128,-0.172 -0.261,-0.353 -0.43,-0.516 -0.145,-0.139 -0.259,-0.291 -0.381,-0.451 -0.132,-0.174 -0.268,-0.352 -0.443,-0.513 -0.189,-0.172 -0.408,-0.325 -0.619,-0.47 -0.176,-0.123 -0.343,-0.239 -0.487,-0.362 -0.216,-0.185 -0.446,-0.355 -0.669,-0.522 -0.144,-0.106 -0.285,-0.211 -0.419,-0.316 -0.21,-0.167 -0.449,-0.309 -0.679,-0.445 -0.187,-0.109 -0.363,-0.213 -0.518,-0.327 -0.124,-0.09 -0.245,-0.18 -0.364,-0.269 -0.252,-0.189 -0.498,-0.371 -0.754,-0.541 -0.182,-0.121 -0.337,-0.264 -0.488,-0.402 -0.173,-0.16 -0.353,-0.325 -0.574,-0.456 -0.267,-0.158 -0.547,-0.286 -0.82,-0.412 0.2,-0.019 0.347,-0.015 0.591,-0.012 0.124,0.002 0.272,0.004 0.461,0.004 0.404,0 0.6,0.021 0.808,0.041 0.208,0.022 0.423,0.042 0.845,0.042 0.425,0 0.64,-0.029 0.849,-0.059 0.206,-0.03 0.4,-0.056 0.801,-0.056 0.399,0 0.593,0.03 0.799,0.064 0.21,0.033 0.426,0.067 0.854,0.067 0.421,0 0.635,-0.018 0.842,-0.034 0.209,-0.017 0.407,-0.035 0.813,-0.035 0.42,0 0.632,-0.013 0.838,-0.029 0.204,-0.013 0.408,-0.028 0.815,-0.028 0.406,0 0.604,0.016 0.812,0.035 0.208,0.02 0.423,0.036 0.844,0.036 0.414,0 0.62,0.004 0.828,0.005 0.208,0.004 0.415,0.005 0.831,0.005 0.631,0 0.784,-0.008 1.186,-0.006 0.114,0 0.249,0 0.422,0.001 0.123,0.082 0.55,0.375 1.167,0.819 0.172,0.124 0.343,0.283 0.525,0.45 0.158,0.144 0.327,0.3 0.519,0.458 0.158,0.127 0.346,0.239 0.544,0.358 0.236,0.142 0.48,0.288 0.674,0.463 0.15,0.135 0.259,0.305 0.373,0.483 0.117,0.181 0.237,0.368 0.409,0.543 0.133,0.135 0.284,0.264 0.438,0.397 0.197,0.169 0.4,0.344 0.565,0.533 0.272,0.308 0.549,0.646 0.823,1.001 0.097,0.128 0.203,0.253 0.309,0.381 0.17,0.204 0.346,0.415 0.49,0.634 0.096,0.142 0.141,0.312 0.188,0.491 0.041,0.157 0.083,0.318 0.162,0.476 l 0.064,0.13 c 0.14,0.284 0.273,0.553 0.377,0.82 0.076,0.198 0.202,0.378 0.312,0.537 0.103,0.146 0.2,0.286 0.237,0.406 0.168,0.538 0.233,0.926 0.241,0.969 0.075,0.343 0.436,0.565 0.846,0.536 0.278,-0.028 0.543,-0.165 0.679,-0.353 0.085,-0.117 0.116,-0.243 0.089,-0.367 -0.018,-0.16 -0.063,-0.559 -0.225,-1.076 -0.061,-0.197 -0.151,-0.41 -0.247,-0.633 -0.057,-0.135 -0.117,-0.272 -0.172,-0.414 -0.079,-0.202 -0.234,-0.383 -0.382,-0.558 -0.121,-0.143 -0.245,-0.29 -0.316,-0.434 -0.066,-0.133 -0.09,-0.284 -0.116,-0.443 -0.035,-0.213 -0.07,-0.435 -0.207,-0.639 -0.136,-0.206 -0.301,-0.399 -0.461,-0.586 -0.107,-0.126 -0.214,-0.25 -0.309,-0.376 C -41.304,4.656 -41.394,4.511 -41.482,4.365 -41.597,4.179 -41.716,3.982 -41.868,3.806 -42.029,3.615 -42.251,3.465 -42.467,3.319 -42.645,3.198 -42.812,3.086 -42.929,2.962 -43.06,2.823 -43.148,2.669 -43.243,2.504 -43.349,2.319 -43.458,2.131 -43.629,1.968 -43.822,1.785 -44.044,1.632 -44.26,1.484 -44.425,1.37 -44.582,1.261 -44.712,1.148 -45.044,0.864 -45.376,0.607 -45.669,0.381 l -0.082,-0.063 c -0.149,-0.114 -0.292,-0.229 -0.429,-0.339 -0.11,-0.088 -0.216,-0.173 -0.318,-0.253 0.23,-0.021 0.381,-0.014 0.597,-0.005 0.155,0.007 0.341,0.015 0.609,0.015 0.396,0 0.588,0.035 0.792,0.068 0.208,0.036 0.425,0.072 0.85,0.072 0.822,0 0.821,-0.006 1.64,-0.006 0.416,0 0.624,-0.012 0.832,-0.023 0.202,-0.012 0.406,-0.026 0.811,-0.026 0.398,0 0.591,0.03 0.796,0.06 0.209,0.03 0.424,0.061 0.848,0.061 0.419,0 0.631,-0.019 0.837,-0.038 0.207,-0.018 0.402,-0.037 0.804,-0.037 0.414,0 0.621,-0.005 0.828,-0.011 0.205,-0.004 0.409,-0.009 0.818,-0.009 0.419,0 0.632,-0.014 0.837,-0.03 0.203,-0.013 0.406,-0.028 0.812,-0.028 0.294,0 0.503,-0.032 0.67,-0.058 0.304,-0.046 0.429,-0.068 0.744,0.153 0.302,0.21 0.29,0.251 0.233,0.443 -0.033,0.112 -0.079,0.267 -0.079,0.48 0,0.258 -0.04,0.38 -0.086,0.52 -0.048,0.149 -0.104,0.316 -0.104,0.632 0,0.325 0.078,0.495 0.147,0.645 0.062,0.136 0.115,0.253 0.115,0.503 0,0.245 -0.065,0.36 -0.14,0.493 -0.086,0.153 -0.184,0.327 -0.184,0.66 0,0.3 0.019,0.451 0.037,0.597 0.018,0.144 0.034,0.28 0.034,0.557 0,0.291 0.006,0.438 0.012,0.582 0.006,0.144 0.011,0.284 0.011,0.568 0,0.317 0.057,0.486 0.106,0.634 0.048,0.14 0.089,0.262 0.089,0.523 0,0.291 0.003,0.435 0.007,0.58 0.003,0.144 0.007,0.288 0.007,0.575 0,0.272 -0.026,0.403 -0.053,0.545 -0.029,0.149 -0.059,0.305 -0.059,0.611 0,0.326 0.305,0.537 0.778,0.537 0.585,0 0.672,-0.337 0.672,-0.537 0,-0.286 10e-4,-0.429 0.003,-0.572 0,-0.145 0.002,-0.288 0.002,-0.577 0,-0.254 0.047,-0.373 0.101,-0.511 0.059,-0.149 0.125,-0.319 0.125,-0.642 0,-0.311 -0.047,-0.476 -0.089,-0.623 -0.038,-0.135 -0.075,-0.263 -0.075,-0.527 0,-0.264 0.036,-0.392 0.075,-0.527 0.042,-0.154 0.086,-0.312 0.086,-0.623 0,-0.304 -0.026,-0.456 -0.051,-0.607 -0.024,-0.14 -0.046,-0.273 -0.046,-0.548 0,-0.263 0.037,-0.391 0.075,-0.527 0.042,-0.146 0.088,-0.311 0.088,-0.625 0,-0.316 -0.053,-0.483 -0.101,-0.63 -0.045,-0.14 -0.084,-0.264 -0.084,-0.524 0,-0.291 -0.004,-0.436 -0.008,-0.582 -0.004,-0.143 -0.008,-0.285 -0.008,-0.574 0,-0.261 -0.1,-0.451 -0.18,-0.602 -0.116,-0.22 -0.14,-0.266 0.106,-0.44 0.259,-0.185 0.427,-0.128 0.732,-0.028 0.217,0.071 0.487,0.158 0.845,0.158 0.405,0 0.608,0.009 0.81,0.017 0.207,0.009 0.414,0.018 0.826,0.018 0.411,0 0.617,-0.006 0.822,-0.011 0.203,-0.005 0.405,-0.01 0.812,-0.01 0.424,0 0.639,-0.038 0.848,-0.073 0.202,-0.036 0.394,-0.071 0.788,-0.071 0.396,0 0.59,0.03 0.794,0.059 0.207,0.03 0.421,0.061 0.843,0.061 0.426,0 0.642,-0.04 0.851,-0.08 0.202,-0.038 0.393,-0.075 0.785,-0.075 0.396,0 0.589,0.031 0.793,0.061 0.208,0.033 0.423,0.065 0.846,0.065 0.402,0 0.598,0.019 0.805,0.035 0.205,0.019 0.418,0.039 0.837,0.039 0.36,0 0.57,-0.037 0.754,-0.067 0.141,-0.024 0.251,-0.038 0.416,-0.043 -0.059,0.048 -0.119,0.099 -0.18,0.149 -0.14,0.117 -0.292,0.245 -0.467,0.379 -0.225,0.173 -0.446,0.368 -0.682,0.574 l -0.317,0.275 c -0.129,0.11 -0.313,0.21 -0.507,0.316 -0.243,0.128 -0.493,0.263 -0.686,0.447 -0.358,0.339 -0.646,0.626 -0.909,0.902 -0.16,0.17 -0.281,0.356 -0.398,0.537 -0.095,0.149 -0.193,0.302 -0.313,0.444 -0.169,0.197 -0.32,0.408 -0.466,0.614 -0.084,0.117 -0.169,0.238 -0.26,0.357 -0.154,0.204 -0.288,0.42 -0.419,0.63 -0.074,0.12 -0.151,0.243 -0.232,0.365 -0.083,0.125 -0.184,0.247 -0.286,0.371 -0.159,0.193 -0.324,0.394 -0.434,0.614 l -0.08,0.161 c -0.144,0.29 -0.294,0.591 -0.407,0.879 -0.094,0.239 -0.145,0.477 -0.189,0.687 -0.028,0.134 -0.056,0.262 -0.092,0.381 -0.16,0.515 -0.127,0.914 -0.114,1.066 l 0.177,0.046 -0.17,-0.038 c -0.028,0.131 -0.056,0.378 0.085,0.571 0.061,0.083 0.18,0.187 0.397,0.207 0.446,0.038 0.85,-0.289 0.918,-0.603 0.003,-0.012 0.005,-0.042 0.005,-0.055 -0.003,-0.287 0.051,-0.62 0.151,-0.94 0.04,-0.131 0.127,-0.279 0.22,-0.437 0.095,-0.162 0.195,-0.33 0.266,-0.516 0.058,-0.148 0.093,-0.303 0.127,-0.451 0.043,-0.189 0.083,-0.366 0.166,-0.533 0.082,-0.166 0.231,-0.333 0.374,-0.496 0.113,-0.125 0.227,-0.256 0.319,-0.391 0.188,-0.284 0.402,-0.558 0.607,-0.823 l 0.153,-0.2 c 0.13,-0.167 0.233,-0.338 0.331,-0.503 0.117,-0.195 0.227,-0.378 0.371,-0.543 0.234,-0.268 0.487,-0.521 0.732,-0.768 l 0.193,-0.194 c 0.172,-0.173 0.396,-0.326 0.613,-0.473 0.184,-0.124 0.375,-0.252 0.529,-0.394 0.192,-0.173 0.33,-0.357 0.464,-0.534 0.129,-0.172 0.251,-0.334 0.407,-0.46 0.181,-0.146 0.346,-0.291 0.502,-0.425 0.201,-0.177 0.393,-0.343 0.577,-0.476 0.387,-0.279 0.795,-0.479 1.212,-0.593 0.011,-0.003 0.02,-0.005 0.028,-0.009 0.466,-0.003 0.668,0 0.908,0.002 0.188,0.004 0.397,0.005 0.766,0.005 0.439,0 0.663,-0.03 0.879,-0.059 0.214,-0.029 0.416,-0.058 0.832,-0.058 0.437,0 0.66,-0.025 0.875,-0.051 0.214,-0.025 0.417,-0.051 0.833,-0.051 0.425,0 0.638,0.006 0.851,0.012 0.214,0.005 0.429,0.01 0.859,0.01 0.425,0 0.637,0.011 0.849,0.018 0.216,0.009 0.432,0.018 0.864,0.018 0.43,0 0.646,-0.007 0.861,-0.014 0.212,-0.006 0.425,-0.015 0.849,-0.015 0.42,0 0.625,0.018 0.841,0.037 0.215,0.019 0.436,0.038 0.872,0.038 0.433,0 0.65,-0.009 0.866,-0.018 0.212,-0.007 0.425,-0.016 0.851,-0.016 0.373,0 0.601,-0.037 0.802,-0.07 C 0.29,-0.288 0.398,-0.307 0.524,-0.312 0.351,-0.211 0.174,-0.105 0,0" />
    </g>
    <g
       transform="matrix(0.35277777,0,0,-0.35277777,105.69096,145.17622)"
       id="g1088">
      <path
         id="path1090"
         style="fill:#000000;fill-opacity:1;fill-rule:nonzero;stroke:none"
         d="m 0,0 0.069,0.002 c 0.098,0.005 0.202,0.01 0.305,0.01 H 0.599 C 1.108,0.002 1.596,0.007 2.015,0.144 2.536,0.313 3.048,0.575 3.498,0.9 3.893,1.188 4.389,1.576 4.725,2.037 4.958,2.36 5.089,2.807 5.205,3.2 L 5.322,3.59 C 5.521,4.197 5.615,4.708 5.615,5.2 L 5.617,5.439 C 5.62,5.952 5.622,6.437 5.485,6.859 L 5.484,6.861 C 5.375,7.207 5.12,7.515 4.871,7.812 4.742,7.969 4.64,8.095 4.542,8.229 4.44,8.374 4.343,8.521 4.245,8.67 4.02,9.021 3.814,9.343 3.532,9.547 3.098,9.861 2.519,10.049 2.008,10.216 c -0.444,0.142 -1.033,0.309 -1.634,0.309 -0.612,0 -1.268,-0.156 -2.059,-0.492 -0.068,-0.019 -0.089,-0.028 -0.111,-0.039 -0.063,-0.033 -0.243,-0.14 -0.449,-0.059 -0.125,0.049 -0.216,0.139 -0.268,0.262 -0.122,0.296 -0.17,0.489 -0.207,0.642 -0.058,0.25 -0.087,0.373 -0.436,0.809 -0.363,0.457 -0.742,0.816 -1.16,1.099 -0.229,0.149 -0.56,0.245 -0.913,0.345 -0.216,0.059 -0.407,0.112 -0.604,0.178 l -0.298,0.105 c -0.405,0.14 -0.808,0.28 -1.258,0.332 -0.614,0.074 -1.162,0.003 -1.671,-0.077 -0.562,-0.085 -1.142,-0.193 -1.592,-0.422 -0.466,-0.238 -0.813,-0.601 -1.118,-0.919 l -0.134,-0.137 c -0.087,-0.088 -0.181,-0.174 -0.271,-0.258 -0.165,-0.15 -0.35,-0.32 -0.381,-0.418 -0.101,-0.328 -0.516,-0.702 -0.564,-0.745 l -0.104,-0.089 -0.112,0.078 c -0.003,0.003 -0.401,0.282 -0.849,0.513 -0.066,0.035 -0.133,0.074 -0.203,0.115 -0.165,0.096 -0.35,0.206 -0.648,0.304 -0.381,0.126 -1.001,0.283 -1.791,0.312 h -0.028 c -0.43,0 -0.966,-0.104 -1.436,-0.199 l -0.347,-0.07 c -0.107,-0.022 -0.221,-0.045 -0.335,-0.065 -0.478,-0.09 -0.973,-0.182 -1.467,-0.376 -0.477,-0.189 -0.846,-0.497 -1.205,-0.797 L -21.88,10.262 C -22.345,9.888 -22.719,9.471 -23.027,8.988 -23.318,8.53 -23.565,8.039 -23.824,7.392 -23.951,7.077 -24.087,6.766 -24.22,6.465 l -0.154,-0.35 c -0.066,-0.151 -0.132,-0.301 -0.195,-0.449 -0.269,-0.635 -0.601,-1.187 -1.014,-1.69 -0.392,-0.48 -0.897,-0.835 -1.64,-1.154 -0.578,-0.25 -1.114,-0.407 -1.637,-0.478 -0.734,-0.101 -1.265,-0.117 -1.719,-0.058 -0.472,0.068 -0.724,0.209 -0.892,0.31 0.109,-0.257 0.265,-0.543 0.524,-0.855 0.33,-0.401 0.816,-0.781 1.282,-1.135 0.342,-0.262 0.865,-0.64 1.454,-0.916 0.389,-0.183 0.83,-0.277 1.298,-0.377 0.116,-0.024 0.235,-0.05 0.349,-0.076 l 0.272,-0.062 c 0.467,-0.111 0.924,-0.22 1.382,-0.22 0.458,0.005 0.921,0.126 1.37,0.243 l 0.539,0.135 c 0.476,0.115 0.963,0.233 1.416,0.456 0.432,0.211 0.901,0.557 1.357,0.892 l 0.144,0.105 c 0.138,0.101 0.306,0.106 0.439,0.025 0.116,-0.052 0.202,-0.193 0.202,-0.35 0,-0.173 0.051,-0.377 0.149,-0.603 0.129,-0.304 0.335,-0.598 0.597,-0.853 0.396,-0.391 0.9,-0.71 1.494,-0.952 0.128,-0.053 0.259,-0.109 0.39,-0.168 0.448,-0.197 0.902,-0.396 1.358,-0.428 0.722,-0.051 1.326,0.099 1.617,0.192 0.392,0.12 0.803,0.33 1.255,0.639 -0.087,0.335 -0.152,0.723 -0.198,1.183 -0.002,0.025 -0.009,0.05 -0.013,0.073 -0.009,0.037 -0.016,0.076 -0.019,0.116 -0.036,0.509 0.006,1.013 0.132,1.536 -0.369,0.112 -0.873,0.273 -1.337,0.589 -0.47,0.32 -1.001,0.708 -1.331,1.267 -0.444,0.754 -0.55,1.802 -0.283,2.802 0.308,1.155 0.81,1.633 1.258,1.991 1.047,0.839 2.288,0.58 2.424,0.55 0.75,-0.103 1.453,-0.273 1.404,-0.821 -0.058,-0.602 -1.057,-0.633 -1.642,-0.594 -0.155,-0.006 -0.708,-0.047 -1.178,-0.441 -0.394,-0.332 -0.642,-0.697 -0.761,-1.12 -0.135,-0.47 -0.053,-1.099 0.197,-1.528 0.373,-0.628 1.244,-1.021 1.808,-1.219 0.451,0.669 1.115,1.219 2.08,1.723 0.744,0.396 1.439,0.558 2.143,0.487 C -6.82,4.788 -5.971,4.347 -5.812,4.261 -5.551,4.068 -4.911,3.592 -5.193,3.096 -5.409,2.713 -5.962,2.774 -6.376,2.948 L -6.444,2.98 c -0.513,0.246 -1.004,0.392 -1.46,0.434 -0.034,0.004 -0.07,0.006 -0.104,0.006 -0.436,0 -0.925,-0.229 -1.301,-0.428 L -9.508,2.891 c -0.393,-0.202 -0.8,-0.408 -1.05,-0.683 -0.325,-0.356 -0.455,-0.854 -0.568,-1.29 -0.087,-0.331 -0.116,-0.7 -0.089,-1.134 l 0.005,-0.133 c 0,-0.082 0.002,-0.162 0.015,-0.247 l 0.014,-0.095 c 0.085,-0.565 0.165,-1.099 0.327,-1.486 0.086,-0.183 0.218,-0.378 0.344,-0.565 l 0.131,-0.191 c 0.32,-0.479 0.812,-0.825 1.244,-1.131 0.521,-0.361 1.009,-0.582 1.551,-0.705 0.59,-0.136 1.135,-0.18 1.744,-0.162 0.746,0.041 1.343,0.108 1.828,0.303 0.536,0.215 1.032,0.548 1.518,1.02 0.411,0.403 0.669,0.922 0.897,1.38 l 0.08,0.166 c 0.417,0.85 0.62,1.455 0.669,1.739 0.019,0.092 0.072,0.151 0.106,0.19 C -0.604,0.021 -0.453,0.019 -0.38,0 -0.276,-0.007 -0.145,-0.003 0,0" />
    </g>
  </g>
</svg>
