<?xml version="1.0" encoding="UTF-8" standalone="no"?>
<svg
   xmlns:dc="http://purl.org/dc/elements/1.1/"
   xmlns:cc="http://creativecommons.org/ns#"
   xmlns:rdf="http://www.w3.org/1999/02/22-rdf-syntax-ns#"
   xmlns:svg="http://www.w3.org/2000/svg"
   xmlns="http://www.w3.org/2000/svg"
   id="svg2131"
   version="1.1"
   viewBox="0 0 26.719582 27.121716"
   height="27.121716mm"
   width="26.719582mm">
  <defs
     id="defs2125" />
  <metadata
     id="metadata2128">
    <rdf:RDF>
      <cc:Work
         rdf:about="">
        <dc:format>image/svg+xml</dc:format>
        <dc:type
           rdf:resource="http://purl.org/dc/dcmitype/StillImage" />
        <dc:title></dc:title>
      </cc:Work>
    </rdf:RDF>
  </metadata>
  <g
     transform="translate(-84.158066,-126.20105)"
     id="layer1">
    <g
       transform="matrix(0.35277777,0,0,-0.35277777,99.997241,133.54855)"
       id="g1036">
      <path
         id="path1038"
         style="fill:#000000;fill-opacity:1;fill-rule:nonzero;stroke:none"
         d="m 0,0 c 0,-0.423 0.138,-0.603 0.617,-0.603 0.587,0 0.587,-0.034 1.175,-0.034 0.587,0 0.587,0.029 1.176,0.029 0.588,0 0.588,0.085 1.176,0.085 0.588,0 0.588,-0.053 1.175,-0.053 0.588,0 0.588,0.052 1.177,0.052 0.588,0 0.588,-0.069 1.177,-0.069 0.588,0 0.588,0.077 1.176,0.077 0.586,0 0.586,0.019 1.171,0.019 0.586,0 0.586,-0.017 1.173,-0.017 0.589,0 0.589,-0.12 1.178,-0.12 0.588,0 0.588,0.076 1.176,0.076 0.588,0 0.588,-0.031 1.175,-0.031 0.59,0 0.59,0.072 1.18,0.072 0.589,0 0.589,0.019 1.178,0.019 0.589,0 0.589,-0.057 1.179,-0.057 0.59,0 0.59,-0.044 1.18,-0.044 0.59,0 0.59,-0.022 1.179,-0.022 0.59,0 0.59,0.051 1.181,0.051 0.592,0 0.592,-0.076 1.183,-0.076 0.593,0 0.593,0.055 1.185,0.055 0.336,0 0.694,0.062 1.003,0.12 0.434,0.081 0.692,0.214 0.692,0.508 0,0.262 -0.255,0.605 -0.679,0.96 -0.308,0.258 -0.654,0.542 -1.008,0.746 -0.47,0.273 -0.918,0.495 -1.158,0.495 -0.218,0 -0.512,-0.252 -0.879,-0.531 C 21.894,1.521 21.629,1.292 21.344,1.054 21.167,0.904 20.965,0.766 20.77,0.605 20.746,0.586 20.744,0.633 20.713,0.632 20.124,0.613 20.125,0.571 19.535,0.571 c -0.59,0 -0.59,-0.01 -1.181,-0.01 -0.59,0 -0.59,0.068 -1.181,0.068 -0.59,0 -0.59,0.01 -1.181,0.01 -0.591,0 -0.591,-0.054 -1.182,-0.054 -0.588,0 -0.588,-0.034 -1.177,-0.034 -0.591,0 -0.591,0.035 -1.182,0.035 -0.59,0 -0.59,0.028 -1.179,0.028 -0.59,0 -0.59,0.009 -1.18,0.009 C 9.5,0.623 9.5,0.626 8.909,0.626 8.318,0.626 8.318,0.652 7.727,0.652 7.136,0.652 7.136,0.54 6.544,0.54 5.952,0.54 5.952,0.559 5.36,0.559 4.769,0.559 4.769,0.518 4.177,0.518 3.585,0.518 3.585,0.555 2.993,0.555 2.398,0.555 2.398,0.56 1.805,0.56 1.21,0.56 1.21,0.587 0.617,0.587 0.156,0.587 0,0.408 0,0" />
    </g>
    <g
       transform="matrix(0.35277777,0,0,-0.35277777,99.001595,135.155)"
       id="g1040">
      <path
         id="path1042"
         style="fill:#000000;fill-opacity:1;fill-rule:nonzero;stroke:none"
         d="m 0,0 c 0.576,0 0.576,0.046 1.151,0.046 0.575,0 0.575,-0.084 1.149,-0.084 0.576,0 0.576,0.04 1.152,0.04 0.575,0 0.575,0.051 1.152,0.051 0.575,0 0.575,-0.09 1.15,-0.09 0.577,0 0.577,-0.009 1.153,-0.009 0.577,0 0.577,-0.045 1.155,-0.045 0.578,0 0.578,0.115 1.156,0.115 0.539,0 0.986,-0.337 1.274,-0.793 0.293,-0.463 0.33,-0.986 0.094,-1.484 -0.173,-0.363 -0.271,-0.765 -0.47,-1.119 -0.195,-0.345 -0.385,-0.704 -0.611,-1.05 -0.198,-0.304 -0.567,-0.422 -0.864,-0.59 -0.305,-0.172 -0.6,-0.41 -0.955,-0.41 -0.01,0 -0.022,-0.036 -0.032,-0.036 -0.353,0.005 -0.716,0.064 -1.093,0.075 -0.349,0.011 -0.71,0.051 -1.089,0.067 -0.35,0.015 -0.709,0.142 -1.091,0.162 -0.35,0.018 -0.723,-0.125 -1.105,-0.103 -0.232,0 -0.324,0.039 -0.348,-0.178 -0.009,-0.491 0.066,-0.949 0.095,-1.363 0.037,-0.521 0.05,-0.984 0.14,-1.355 0.157,-0.652 0.413,-1.113 0.705,-1.168 0.27,-0.057 0.466,0.226 0.72,0.589 0.15,0.212 0.346,0.456 0.492,0.813 0.021,0.052 0.069,-0.003 0.115,0.029 0.047,0.032 0.013,0.09 0.069,0.092 0.402,0.015 0.804,-0.051 1.199,-0.034 0.402,0.017 0.795,0.145 1.189,0.164 0.402,0.02 0.799,0.049 1.192,0.07 0.402,0.022 0.802,-0.007 1.195,0.017 0.402,0.024 0.796,0.098 1.19,0.125 0.402,0.028 0.807,-0.055 1.2,-0.024 0.402,0.031 0.794,0.126 1.186,0.161 0.404,0.035 0.799,0.094 1.191,0.132 0.402,0.039 0.804,0.025 1.194,0.067 0.401,0.043 0.787,0.169 1.176,0.215 0.402,0.047 0.801,0.065 1.189,0.116 0.401,0.053 0.786,0.171 1.173,0.227 0.401,0.058 0.817,-0.039 1.203,0.024 0.401,0.064 0.79,0.154 1.174,0.223 0.399,0.071 0.773,0.225 1.153,0.301 0.399,0.079 0.793,0.125 1.171,0.209 0.386,0.089 0.786,0.081 1.132,-0.053 0.348,-0.137 0.63,-0.416 0.846,-0.746 0.171,-0.257 0.257,-0.55 0.402,-0.785 0.181,-0.29 0.399,-0.527 0.558,-0.753 0.242,-0.338 0.432,-0.614 0.631,-0.762 0.293,-0.218 0.621,-0.216 0.969,-0.114 0.44,0.102 0.706,0.378 0.896,0.69 0.215,0.351 0.378,0.807 0.242,1.351 -0.07,0.289 -0.243,0.676 -0.5,1.09 -0.186,0.299 -0.535,0.534 -0.824,0.864 -0.242,0.276 -0.505,0.562 -0.824,0.841 -0.282,0.246 -0.533,0.568 -0.877,0.804 -0.312,0.213 -0.645,0.439 -1.01,0.634 -0.336,0.18 -0.732,0.272 -1.114,0.43 -0.353,0.145 -0.728,0.264 -1.122,0.384 -0.367,0.113 -0.723,0.327 -1.125,0.412 -0.383,0.081 -0.596,-0.148 -0.67,-0.313 -0.069,-0.154 -0.085,-0.403 0.134,-0.563 0.423,-0.327 0.803,-0.637 1.167,-0.939 0.395,-0.326 0.765,-0.642 1.124,-0.982 0.132,-0.125 0.336,-0.04 0.28,-0.213 -0.057,-0.173 -0.155,-0.113 -0.335,-0.137 -0.379,-0.052 -0.762,-0.08 -1.145,-0.126 -0.379,-0.046 -0.769,-0.018 -1.152,-0.059 -0.379,-0.041 -0.761,-0.059 -1.143,-0.095 -0.379,-0.035 -0.753,-0.159 -1.136,-0.191 -0.38,-0.031 -0.774,0.096 -1.159,0.07 -0.38,-0.027 -0.753,-0.221 -1.139,-0.244 -0.381,-0.021 -0.766,-0.038 -1.153,-0.055 -0.381,-0.018 -0.765,-0.019 -1.151,-0.031 -0.382,-0.014 -0.768,-0.062 -1.155,-0.071 -0.383,-0.009 -0.769,-0.006 -1.157,-0.011 -0.006,0 -0.012,-0.007 -0.017,-0.007 -0.359,0 -0.631,0.317 -0.794,0.643 -0.163,0.327 -0.132,0.649 0.091,0.936 0.348,0.447 0.672,0.911 0.995,1.349 0.302,0.406 0.505,0.866 0.786,1.227 0.148,0.19 0.449,0.456 0.81,0.695 0.273,0.182 0.611,0.344 0.955,0.468 0.328,0.119 0.693,0.102 1.045,0.102 0.602,0 0.602,0.088 1.205,0.088 0.605,0 0.605,-0.06 1.211,-0.06 0.604,0 0.604,0.027 1.208,0.027 0.604,0 0.604,-0.085 1.208,-0.085 0.606,0 0.606,0.162 1.213,0.162 0.605,0 0.605,-0.178 1.209,-0.178 0.606,0 0.606,0.088 1.212,0.088 0.607,0 0.607,0.044 1.214,0.044 0.605,0 0.605,-0.113 1.211,-0.113 0.607,0 0.607,0.003 1.214,0.003 0.608,0 0.608,0.095 1.216,0.095 0.609,0 0.609,0.031 1.217,0.031 0.419,0 0.783,-0.108 1.057,-0.055 0.51,0.099 0.781,0.375 0.781,0.656 0,0.215 -0.307,0.501 -0.633,0.866 -0.223,0.249 -0.415,0.59 -0.701,0.838 -0.285,0.248 -0.661,0.375 -0.937,0.564 -0.41,0.282 -0.716,0.481 -0.913,0.481 -0.08,0 -0.317,0.008 -0.824,-0.533 C 28.784,2.659 28.598,2.373 28.337,2.032 28.154,1.793 27.872,1.57 27.647,1.243 27.621,1.206 27.686,1.153 27.641,1.15 c -0.6,-0.036 -0.6,-0.006 -1.201,-0.006 -0.6,0 -0.6,0.067 -1.199,0.067 -0.599,0 -0.599,0.008 -1.199,0.008 -0.6,0 -0.6,-0.122 -1.199,-0.122 -0.6,0 -0.6,0.101 -1.201,0.101 -0.6,0 -0.6,0.007 -1.201,0.007 -0.6,0 -0.6,-0.072 -1.2,-0.072 -0.6,0 -0.6,0.079 -1.2,0.079 -0.602,0 -0.602,0.005 -1.203,0.005 -0.6,0 -0.6,-0.047 -1.2,-0.047 -0.601,0 -0.601,0.004 -1.202,0.004 -0.599,0 -0.599,-0.033 -1.197,-0.033 -0.601,0 -0.601,0.025 -1.202,0.025 -0.6,0 -0.6,-0.011 -1.2,-0.011 -0.6,0 -0.6,0.079 -1.2,0.079 -0.602,0 -0.602,-0.13 -1.203,-0.13 C 7.833,1.104 7.833,1.072 7.232,1.072 6.63,1.072 6.63,1.095 6.029,1.095 5.426,1.095 5.426,1.082 4.824,1.082 4.223,1.082 4.223,1.234 3.621,1.234 3.019,1.234 3.019,1.224 2.416,1.224 1.812,1.224 1.812,1.071 1.208,1.071 0.604,1.071 0.604,1.156 0,1.156 -0.46,1.156 -0.661,0.971 -0.661,0.562 -0.661,0.14 -0.479,0 0,0" />
    </g>
    <g
       transform="matrix(0.35277777,0,0,-0.35277777,99.18624,130.94886)"
       id="g1044">
      <path
         id="path1046"
         style="fill:#000000;fill-opacity:1;fill-rule:nonzero;stroke:none"
         d="m 0,0 c 0.364,0 0.709,0.223 1.08,0.372 0.337,0.136 0.649,0.306 0.952,0.57 0.27,0.238 0.499,0.514 0.713,0.859 0.189,0.302 0.385,0.614 0.51,1.002 0.11,0.34 0.169,0.709 0.217,1.115 0.035,0.289 0.131,0.615 0.131,0.907 0,0.087 -0.131,0.201 -0.045,0.214 0.61,0.086 0.622,-0.082 1.238,-0.082 0.616,0 0.616,0.132 1.231,0.132 0.616,0 0.616,-0.124 1.232,-0.124 0.616,0 0.616,0.009 1.233,0.009 0.616,0 0.616,-0.005 1.232,-0.005 0.617,0 0.617,0.049 1.234,0.049 0.619,0 0.619,0.062 1.237,0.062 0.618,0 0.618,-0.058 1.237,-0.058 0.294,0 0.579,-0.127 0.783,-0.335 0.204,-0.207 0.354,-0.491 0.35,-0.78 C 14.561,3.587 14.424,3.2 14.418,2.77 14.413,2.413 14.386,2.028 14.381,1.628 c -0.006,-0.373 0.015,-0.76 0.01,-1.148 -0.005,-0.384 0.132,-0.773 0.128,-1.151 -0.006,-0.396 -0.079,-0.782 -0.083,-1.145 -0.005,-0.42 -0.039,-0.809 -0.042,-1.148 -0.006,-0.529 0.099,-0.935 0.099,-1.144 0,-0.673 0.165,-0.858 0.758,-0.858 0.46,0 0.842,-0.032 1.111,0.122 0.342,0.198 0.525,0.536 0.525,0.96 0,0.209 0.024,0.681 0.017,1.297 -0.005,0.385 -0.036,0.826 -0.042,1.296 -0.005,0.417 -0.003,0.855 -0.008,1.298 -0.006,0.436 -0.107,0.875 -0.113,1.299 -0.006,0.461 0.077,0.904 0.072,1.301 -0.008,0.531 -0.023,0.982 -0.027,1.294 -0.005,0.291 0.126,0.534 0.33,0.741 0.206,0.211 0.45,0.325 0.747,0.325 0.611,0 0.611,-0.008 1.222,-0.008 0.61,0 0.61,0.076 1.22,0.076 0.611,0 0.611,-0.061 1.222,-0.061 0.612,0 0.612,0.03 1.223,0.03 0.611,0 0.611,-0.007 1.222,-0.007 0.611,0 0.611,0.011 1.223,0.011 0.614,0 0.614,-0.004 1.227,-0.004 0.614,0 0.614,0.05 1.227,0.05 0.351,0 0.668,-0.218 0.876,-0.5 C 28.732,4.271 28.877,3.892 28.772,3.557 28.673,3.242 28.562,2.926 28.472,2.628 28.363,2.271 28.243,1.949 28.177,1.699 28.039,1.361 27.962,1.068 28.116,0.949 c 0.141,-0.113 0.517,-0.102 0.861,0.157 0.15,0.143 0.351,0.467 0.685,0.776 0.226,0.209 0.531,0.396 0.807,0.646 0.246,0.224 0.516,0.445 0.781,0.678 0.02,0.018 0.013,0.01 0.037,0.021 0.169,0.075 0.32,0.144 0.487,0.22 0.026,0.011 0.019,-0.027 0.046,-0.024 0.807,0.096 1.321,0.254 1.321,0.729 0,0.22 -0.212,0.572 -0.488,0.943 -0.194,0.26 -0.396,0.578 -0.649,0.841 -0.254,0.263 -0.517,0.534 -0.766,0.739 -0.379,0.311 -0.779,0.498 -0.96,0.498 -0.093,0 -0.374,-0.128 -1.03,-0.733 -0.209,-0.194 -0.483,-0.272 -0.757,-0.272 -0.594,0 -0.594,0.063 -1.187,0.063 -0.596,0 -0.596,0.001 -1.191,0.001 -0.594,0 -0.594,-0.075 -1.188,-0.075 -0.595,0 -0.595,0.019 -1.191,0.019 -0.595,0 -0.595,-0.008 -1.191,-0.008 -0.595,0 -0.595,-0.015 -1.19,-0.015 -0.596,0 -0.596,0.035 -1.192,0.035 -0.598,0 -0.598,0.043 -1.195,0.043 -0.597,0 -0.597,-0.124 -1.195,-0.124 -0.558,0 -1.076,0.495 -1.076,1.051 0,0.602 -0.009,0.602 -0.009,1.203 0,0.558 0.527,0.998 1.085,0.998 0.591,0 0.591,0.066 1.182,0.066 0.592,0 0.592,0.035 1.186,0.035 0.591,0 0.591,0.011 1.183,0.011 0.593,0 0.593,-0.028 1.186,-0.028 0.593,0 0.593,-0.109 1.186,-0.109 0.593,0 0.593,0.042 1.185,0.042 0.594,0 0.594,0.064 1.187,0.064 0.595,0 0.595,-0.064 1.19,-0.064 0.596,0 0.596,0.055 1.19,0.055 0.346,0 0.735,-0.113 1.052,-0.049 0.439,0.087 0.811,0.33 0.811,0.64 -0.01,0.22 -0.334,0.509 -0.655,0.871 -0.223,0.25 -0.462,0.537 -0.747,0.785 -0.284,0.249 -0.593,0.46 -0.869,0.65 -0.409,0.281 -0.74,0.568 -0.937,0.568 -0.128,0 -0.43,-0.166 -1.013,-0.852 -0.22,-0.259 -0.441,-0.632 -0.756,-1.074 -0.206,-0.29 -0.561,-0.481 -0.913,-0.481 -0.59,0 -0.59,0.073 -1.181,0.073 -0.59,0 -0.59,-0.055 -1.18,-0.055 -0.59,0 -0.59,-0.033 -1.18,-0.033 -0.591,0 -0.591,-0.01 -1.182,-0.01 -0.591,0 -0.591,0.061 -1.181,0.061 -0.591,0 -0.591,0.034 -1.182,0.034 -0.588,0 -0.588,0.063 -1.176,0.063 -0.592,0 -0.592,-0.022 -1.182,-0.022 -0.59,0 -0.59,-0.09 -1.18,-0.09 -0.59,0 -0.59,0.044 -1.18,0.044 -0.592,0 -0.592,0.023 -1.183,0.023 -0.591,0 -0.591,-0.044 -1.182,-0.044 -0.591,0 -0.591,-0.063 -1.183,-0.063 -0.592,0 -0.592,-0.048 -1.184,-0.048 -0.591,0 -0.591,0.102 -1.183,0.102 -0.592,0 -0.592,-0.085 -1.184,-0.085 -0.594,0 -0.594,0.153 -1.188,0.153 -0.594,0 -0.594,0.017 -1.188,0.017 -0.461,0 -0.619,-0.255 -0.619,-0.663 0,-0.423 0.141,-0.539 0.619,-0.539 0.57,0 0.57,-0.118 1.14,-0.118 0.572,0 0.572,0.072 1.144,0.072 0.571,0 0.571,0.078 1.141,0.078 0.572,0 0.572,-0.084 1.144,-0.084 0.573,0 0.573,0.088 1.145,0.088 0.571,0 0.571,0.018 1.143,0.018 0.572,0 0.572,-0.024 1.145,-0.024 0.574,0 0.574,-0.053 1.148,-0.053 0.574,0 0.574,0.058 1.148,0.058 0.601,0 1.033,-0.557 1.033,-1.159 0,-0.523 0.061,-0.523 0.061,-1.047 0,-0.601 -0.493,-1.004 -1.094,-1.004 -0.626,0 -0.626,-0.154 -1.252,-0.154 -0.625,0 -0.625,0.054 -1.251,0.054 -0.626,0 -0.626,0.023 -1.252,0.023 -0.626,0 -0.626,0.068 -1.253,0.068 -0.626,0 -0.626,0.015 -1.252,0.015 C 6.551,6.238 6.551,6.1 5.924,6.1 5.296,6.1 5.296,6.17 4.667,6.17 4.039,6.17 4.028,6.013 3.403,6.079 3.333,6.087 3.318,6.199 3.303,6.269 3.175,6.865 3.006,7.386 2.891,7.73 2.749,8.073 2.567,8.138 2.359,8.096 2.178,8.06 2.013,7.979 2.013,7.629 2.005,7.399 1.887,7.172 1.887,6.946 1.888,6.513 1.958,6.072 1.901,5.65 1.844,5.215 1.708,4.812 1.469,4.444 1.271,4.082 1.019,3.802 0.76,3.544 0.473,3.259 0.187,3.004 -0.099,2.783 -0.389,2.56 -0.611,2.317 -0.808,2.099 -1.037,1.846 -1.138,1.597 -1.138,1.237 -1.138,0.883 -1.031,0.645 -0.814,0.438 -0.603,0.237 -0.357,0 0,0" />
    </g>
    <g
       transform="matrix(0.35277777,0,0,-0.35277777,100.37895,131.92348)"
       id="g1048">
      <path
         id="path1050"
         style="fill:#000000;fill-opacity:1;fill-rule:nonzero;stroke:none"
         d="m 0,0 c 0,-0.423 0.178,-0.561 0.656,-0.561 0.613,0 0.613,0.01 1.225,0.01 0.614,0 0.614,-0.038 1.227,-0.038 0.612,0 0.612,0.007 1.225,0.007 0.613,0 0.613,0.009 1.227,0.009 0.615,0 0.615,-0.019 1.23,-0.019 0.615,0 0.615,0.016 1.23,0.016 1.237,0 1.412,0.289 1.412,0.539 0,0.202 -0.235,0.417 -0.795,0.53 -0.258,0.053 -0.59,0.08 -1.004,0.08 -0.581,0 -0.581,0.006 -1.161,0.006 C 5.891,0.579 5.891,0.556 5.31,0.556 4.729,0.556 4.729,0.552 4.149,0.552 3.568,0.552 3.568,0.59 2.987,0.59 2.404,0.59 2.404,0.564 1.821,0.564 1.239,0.564 1.239,0.603 0.656,0.603 0.196,0.603 0,0.407 0,0" />
    </g>
    <g
       transform="matrix(0.35277777,0,0,-0.35277777,103.15552,130.72806)"
       id="g1052">
      <path
         id="path1054"
         style="fill:#000000;fill-opacity:1;fill-rule:nonzero;stroke:none"
         d="M 0,0 C 1.433,0 1.441,0.404 1.441,0.536 1.432,0.708 1.403,1.153 0.13,1.153 c -0.64,0 -0.64,0.005 -1.281,0.005 -0.64,0 -0.64,0.004 -1.279,0.004 -0.641,0 -0.641,-0.034 -1.282,-0.034 -0.642,0 -0.642,-0.004 -1.284,-0.004 -0.642,0 -0.642,0.039 -1.284,0.039 -0.46,0 -0.664,-0.182 -0.664,-0.59 0,-0.423 0.186,-0.581 0.664,-0.581 0.627,0 0.627,0.019 1.255,0.019 0.627,0 0.627,0.01 1.253,0.01 0.627,0 0.627,-0.042 1.255,-0.042 0.629,0 0.629,0.024 1.258,0.025 C -0.629,0.004 -0.629,0 0,0" />
    </g>
    <g
       transform="matrix(0.35277777,0,0,-0.35277777,108.08753,130.72908)"
       id="g1056">
      <path
         id="path1058"
         style="fill:#000000;fill-opacity:1;fill-rule:nonzero;stroke:none"
         d="m 0,0 c 0.535,0 1.458,0.072 1.458,0.539 0,0.158 -0.264,0.621 -1.327,0.621 -0.648,0 -0.648,0.006 -1.296,0.006 -0.647,0 -0.647,-0.009 -1.294,-0.009 -0.649,0 -0.649,0.017 -1.297,0.017 -0.65,0 -0.65,-0.038 -1.3,-0.038 -0.649,0 -0.649,-0.008 -1.299,-0.008 -0.46,0 -0.646,-0.144 -0.646,-0.552 0,-0.423 0.168,-0.558 0.646,-0.558 0.635,0 0.635,0.003 1.27,0.003 C -4.451,0.021 -4.451,0 -3.817,0 h 1.27 c 0.636,0 0.636,-0.018 1.273,-0.018 C -0.637,-0.019 -0.637,0 0,0" />
    </g>
    <g
       transform="matrix(0.35277777,0,0,-0.35277777,105.84563,132.1271)"
       id="g1060">
      <path
         id="path1062"
         style="fill:#000000;fill-opacity:1;fill-rule:nonzero;stroke:none"
         d="m 0,0 c 0.622,0 0.622,0.005 1.244,0.005 0.623,0 0.623,-0.022 1.245,-0.022 0.622,0 0.622,-0.005 1.244,-0.005 0.622,0 0.622,0.05 1.246,0.05 0.624,0 0.624,-0.034 1.248,-0.034 0.625,0 0.625,0.007 1.249,0.007 0.55,0 1.472,0.071 1.472,0.539 0,0.1 -0.205,0.627 -1.175,0.627 C 7.126,1.167 7.126,1.159 6.479,1.159 5.832,1.159 5.832,1.177 5.185,1.177 4.539,1.177 4.539,1.151 3.892,1.151 3.244,1.151 3.244,1.167 2.596,1.167 1.947,1.167 1.947,1.128 1.298,1.128 0.649,1.128 0.649,1.162 0,1.162 -0.46,1.162 -0.674,0.984 -0.674,0.577 -0.674,0.154 -0.478,0 0,0" />
    </g>
    <g
       transform="matrix(0.35277777,0,0,-0.35277777,86.398044,145.0152)"
       id="g1064">
      <path
         id="path1066"
         style="fill:#000000;fill-opacity:1;fill-rule:nonzero;stroke:none"
         d="M 0,0 C -0.007,-0.362 -0.033,-0.739 -0.057,-1.116 -0.08,-1.493 -0.097,-1.872 -0.168,-2.23 -0.244,-2.609 -0.387,-2.956 -0.551,-3.274 -0.702,-3.62 -0.863,-3.921 -1.042,-4.188 -1.249,-4.497 -1.456,-4.771 -1.68,-5.007 c -0.251,-0.265 -0.504,-0.498 -0.746,-0.718 -0.332,-0.299 -0.612,-0.582 -0.829,-0.884 -0.228,-0.318 -0.383,-0.662 -0.382,-1.127 10e-4,-0.427 0.169,-0.78 0.431,-1.04 0.262,-0.261 0.616,-0.424 1.042,-0.423 0.41,10e-4 0.802,0.089 1.171,0.257 0.354,0.16 0.697,0.379 0.999,0.673 0.275,0.267 0.495,0.608 0.716,0.969 0.2,0.328 0.4,0.68 0.547,1.075 0.136,0.364 0.272,0.747 0.356,1.159 0.079,0.382 0.133,0.788 0.162,1.204 0.017,0.349 -0.009,0.728 -0.032,1.121 -0.021,0.362 -0.077,0.735 -0.13,1.111 -0.051,0.371 -0.111,0.742 -0.19,1.104 C 1.353,-0.15 1.251,0.212 1.143,0.553 1.01,0.888 0.764,1.01 0.538,1.009 0.512,1.009 0.489,1.023 0.464,1.021 0.203,0.98 0.02,0.772 -0.005,0.446 -0.015,0.224 0.005,0.223 0,0" />
    </g>
    <g
       transform="matrix(0.35277777,0,0,-0.35277777,96.059675,152.11383)"
       id="g1068">
      <path
         id="path1070"
         style="fill:#000000;fill-opacity:1;fill-rule:nonzero;stroke:none"
         d="m 0,0 c -0.404,0.047 -0.802,0.083 -1.191,0.147 -0.401,0.067 -0.791,0.146 -1.176,0.231 -0.397,0.087 -0.819,0.055 -1.198,0.162 -0.39,0.11 -0.746,0.322 -1.118,0.453 -0.381,0.135 -0.783,0.212 -1.146,0.368 -0.37,0.16 -0.694,0.415 -1.045,0.598 -0.357,0.187 -0.726,0.349 -1.063,0.559 -0.34,0.212 -0.647,0.472 -0.967,0.709 -0.322,0.238 -0.686,0.425 -0.987,0.688 -0.3,0.263 -0.607,0.528 -0.887,0.814 -0.277,0.285 -0.547,0.587 -0.805,0.896 -0.253,0.304 -0.388,0.706 -0.623,1.033 -0.231,0.321 -0.483,0.63 -0.695,0.975 -0.207,0.335 -0.348,0.711 -0.537,1.068 -0.185,0.347 -0.458,0.655 -0.626,1.024 -0.164,0.357 -0.281,0.741 -0.429,1.118 -0.144,0.366 -0.345,0.719 -0.475,1.103 -0.126,0.372 -0.191,0.773 -0.303,1.162 -0.109,0.378 -0.244,0.756 -0.341,1.15 -0.093,0.383 -0.086,0.795 -0.167,1.193 -0.08,0.386 -0.142,0.779 -0.21,1.181 -0.035,0.198 -0.17,0.402 -0.159,0.621 0.018,0.386 0.142,0.766 0.153,1.149 0.011,0.385 -0.026,0.771 -0.02,1.154 0.005,0.386 -0.055,0.772 -0.054,1.156 0,0.386 0.045,0.769 0.042,1.152 -0.003,0.387 -0.106,0.77 -0.111,1.153 -0.005,0.382 0.107,0.764 0.101,1.142 -0.003,0.565 0.019,0.565 0.017,1.128 -0.001,0.564 -0.147,0.568 -0.122,1.131 0.06,0.138 0.221,0.259 0.334,0.365 0.459,0.234 0.737,0.489 0.903,0.716 0.276,0.376 0.202,0.716 -0.158,0.999 -0.243,0.191 -0.598,0.39 -1.052,0.503 -0.608,0.139 -0.605,0.158 -1.215,0.292 -0.353,0.075 -0.375,0.036 -0.755,0.127 -0.442,0.104 -0.41,0.176 -0.697,0.188 -0.446,0.019 -1.321,0.265 -1.153,-0.347 0.085,-0.311 0.793,-0.899 0.899,-1.692 0.042,-0.32 0.079,-0.407 0.158,-0.687 0.044,-0.368 0.011,-0.328 0.046,-0.709 0.036,-0.381 0.111,-0.757 0.139,-1.131 0.029,-0.391 -0.008,-0.774 0.012,-1.135 0.022,-0.409 0.201,-0.785 0.209,-1.124 0.004,-0.11 -0.09,-0.113 -0.086,-0.223 0.013,-0.345 0.069,-0.74 0.082,-1.179 0.01,-0.364 0.015,-0.759 0.02,-1.177 0.005,-0.375 0.044,-0.77 0.041,-1.181 -0.003,-0.38 -0.153,-0.772 -0.166,-1.177 -0.012,-0.385 0.158,-0.788 0.135,-1.19 -0.023,-0.387 -0.077,-0.782 -0.113,-1.18 -0.034,-0.389 -0.127,-0.778 -0.175,-1.173 -0.048,-0.39 -0.184,-0.769 -0.247,-1.159 -0.063,-0.39 -0.138,-0.775 -0.218,-1.162 -0.079,-0.387 -0.143,-0.775 -0.241,-1.156 -0.1,-0.384 -0.094,-0.799 -0.215,-1.172 -0.123,-0.378 -0.323,-0.728 -0.469,-1.091 -0.149,-0.37 -0.218,-0.777 -0.394,-1.126 -0.177,-0.344 -0.43,-0.654 -0.633,-0.985 -0.203,-0.329 -0.419,-0.653 -0.648,-0.969 -0.226,-0.311 -0.416,-0.661 -0.668,-0.96 -0.248,-0.293 -0.598,-0.502 -0.871,-0.783 -0.268,-0.275 -0.48,-0.617 -0.772,-0.879 -0.286,-0.257 -0.686,-0.382 -0.994,-0.628 -0.3,-0.237 -0.51,-0.603 -0.832,-0.83 -0.312,-0.219 -0.641,-0.432 -0.974,-0.641 -0.322,-0.204 -0.662,-0.399 -1.005,-0.592 -0.332,-0.189 -0.717,-0.296 -1.068,-0.475 -0.34,-0.174 -0.693,-0.335 -1.051,-0.501 -0.346,-0.16 -0.665,-0.4 -1.028,-0.553 -0.353,-0.149 -0.733,-0.25 -1.102,-0.393 -0.357,-0.138 -0.753,-0.19 -1.126,-0.321 -0.413,-0.158 -0.495,-0.533 -0.424,-0.759 0.062,-0.195 0.289,-0.417 0.728,-0.307 0.407,0.096 0.812,0.185 1.206,0.292 0.404,0.11 0.792,0.255 1.18,0.376 0.4,0.125 0.815,0.192 1.199,0.329 0.394,0.141 0.741,0.394 1.118,0.548 0.388,0.159 0.748,0.361 1.118,0.532 0.379,0.178 0.8,0.257 1.16,0.45 0.369,0.196 0.658,0.52 1.006,0.732 0.357,0.217 0.729,0.394 1.064,0.626 0.343,0.237 0.76,0.371 1.08,0.625 0.326,0.259 0.556,0.629 0.858,0.904 0.307,0.281 0.577,0.589 0.859,0.887 0.285,0.3 0.65,0.526 0.91,0.845 0.262,0.319 0.438,0.704 0.675,1.041 0.236,0.338 0.435,0.695 0.645,1.051 0.21,0.353 0.531,0.649 0.715,1.019 0.188,0.385 0.207,0.856 0.371,1.274 0.155,0.398 0.47,0.752 0.604,1.178 0.128,0.41 0.195,0.853 0.302,1.287 0.103,0.419 0.221,0.799 0.304,1.239 0.117,0.123 0.195,0.222 0.319,0.105 0.087,-0.409 0.23,-0.83 0.33,-1.222 0.102,-0.406 0.082,-0.837 0.197,-1.225 0.12,-0.4 0.212,-0.806 0.345,-1.188 0.138,-0.394 0.323,-0.766 0.476,-1.141 0.157,-0.388 0.304,-0.776 0.478,-1.141 0.178,-0.378 0.372,-0.745 0.569,-1.099 0.201,-0.366 0.428,-0.712 0.648,-1.054 0.225,-0.35 0.552,-0.621 0.796,-0.946 0.249,-0.331 0.499,-0.651 0.768,-0.956 0.273,-0.311 0.476,-0.683 0.769,-0.967 0.296,-0.286 0.618,-0.545 0.935,-0.806 0.317,-0.26 0.673,-0.468 1.012,-0.702 0.336,-0.232 0.62,-0.555 0.977,-0.762 0.353,-0.204 0.798,-0.242 1.171,-0.421 0.366,-0.175 0.741,-0.325 1.128,-0.476 0.378,-0.148 0.726,-0.388 1.123,-0.514 0.386,-0.121 0.777,-0.256 1.182,-0.356 0.442,-0.124 0.744,-0.092 0.962,-0.049 0.335,0.067 0.418,0.327 0.622,0.653 0.211,0.317 0.592,0.453 0.931,0.678 0.283,0.187 0.531,0.526 0.942,0.679 0.441,0.175 0.795,0.312 0.779,0.44 C 0.834,-0.268 0.535,-0.079 0,0" />
    </g>
    <g
       transform="matrix(0.35277777,0,0,-0.35277777,92.907394,148.11199)"
       id="g1072">
      <path
         id="path1074"
         style="fill:#000000;fill-opacity:1;fill-rule:nonzero;stroke:none"
         d="M 0,0 C 0.298,0.22 0.629,0.485 0.971,0.796 1.267,1.063 1.587,1.344 1.898,1.653 2.19,1.945 2.513,2.227 2.805,2.536 3.098,2.846 3.373,3.173 3.651,3.48 3.946,3.808 4.202,4.149 4.463,4.45 4.77,4.803 5.053,5.125 5.289,5.406 5.721,5.921 6.03,6.27 6.1,6.366 6.3,6.585 6.426,6.603 6.599,6.595 7.114,6.552 7.513,6.554 7.787,6.635 8.291,6.783 8.435,7.161 8.255,7.585 8.138,7.864 7.836,8.147 7.481,8.479 7.454,8.505 7.125,8.803 6.706,9.15 6.45,9.363 6.181,9.617 5.921,9.833 5.562,10.13 5.225,10.354 5.103,10.455 4.718,10.775 4.371,11.09 4.089,11.261 3.618,11.547 3.391,11.494 3.7,10.652 3.784,10.222 3.792,9.813 3.773,9.435 3.751,8.99 3.704,8.579 3.607,8.228 3.516,7.967 3.325,7.57 3.084,7.083 2.918,6.746 2.739,6.357 2.521,5.953 2.333,5.602 2.098,5.247 1.882,4.868 1.678,4.51 1.48,4.134 1.261,3.769 1.043,3.405 0.808,3.051 0.584,2.698 0.352,2.332 0.116,1.979 -0.113,1.645 -0.366,1.275 -0.638,0.948 -0.875,0.641 -1.084,0.329 -1.093,-0.016 -0.91,-0.183 -0.741,-0.339 -0.404,-0.298 0,0" />
    </g>
    <g
       transform="matrix(0.35277777,0,0,-0.35277777,90.513055,133.0559)"
       id="g1076">
      <path
         id="path1078"
         style="fill:#000000;fill-opacity:1;fill-rule:nonzero;stroke:none"
         d="m 0,0 c -0.006,0.467 0.15,0.931 0.148,1.333 -0.002,0.379 0.139,0.666 0.406,0.937 0.268,0.267 0.554,0.497 0.934,0.497 0.597,0 0.597,0.069 1.194,0.069 0.598,0 0.598,-0.093 1.195,-0.093 0.6,0 0.6,-0.054 1.199,-0.054 0.599,0 0.599,-0.014 1.199,-0.014 0.351,0 0.736,-0.004 0.983,-0.254 C 7.505,2.172 7.523,1.787 7.52,1.436 7.513,0.719 7.501,0.719 7.494,0.002 7.49,-0.355 7.453,-0.717 7.216,-0.95 6.979,-1.185 6.617,-1.239 6.26,-1.239 c -0.606,0 -0.606,-0.019 -1.213,-0.019 -0.608,0 -0.608,0.036 -1.215,0.036 -0.61,0 -0.61,-0.066 -1.219,-0.066 -0.61,0 -0.61,0.07 -1.219,0.07 -0.356,0 -0.723,0.029 -0.96,0.263 C 0.197,-0.722 0.005,-0.356 0,0 m -0.017,6.66 c 0,0.61 0.582,1.029 1.191,1.029 0.625,0 0.625,-0.024 1.25,-0.024 0.626,0 0.626,0.11 1.252,0.11 0.627,0 0.627,0.07 1.255,0.07 0.628,0 0.628,-0.093 1.256,-0.093 C 6.585,7.752 6.9,7.556 7.162,7.295 7.423,7.033 7.551,6.719 7.551,6.32 7.551,5.834 7.708,5.834 7.708,5.348 7.708,4.949 7.425,4.633 7.164,4.371 6.902,4.109 6.585,3.978 6.187,3.978 5.582,3.978 5.582,3.852 4.978,3.852 4.373,3.852 4.373,3.956 3.768,3.956 3.161,3.956 3.161,3.938 2.554,3.938 1.947,3.938 1.947,3.975 1.34,3.975 0.99,3.975 0.675,4.049 0.445,4.279 0.214,4.51 0.143,4.83 0.143,5.181 0.084,5.923 -0.017,5.917 -0.017,6.66 M -1.89,5.175 c 0,-0.351 -0.281,-0.615 -0.511,-0.846 -0.23,-0.23 -0.495,-0.326 -0.846,-0.326 -0.619,0 -0.619,-0.11 -1.238,-0.11 -0.621,0 -0.621,-0.07 -1.241,-0.07 -0.622,0 -0.622,0.093 -1.244,0.093 -0.622,0 -0.622,0.053 -1.244,0.053 -0.284,0 -0.494,0.101 -0.694,0.305 -0.2,0.203 -0.442,0.415 -0.439,0.7 0.006,0.507 0.155,1.009 0.167,1.451 0.037,0.433 0.108,0.697 0.355,0.918 0.201,0.178 0.459,0.403 0.939,0.471 0.598,0.025 0.601,-0.104 1.2,-0.104 0.6,0.001 0.6,0.019 1.199,0.019 0.602,0 0.602,-0.036 1.203,-0.036 0.602,0 0.602,0.067 1.203,0.067 0.609,0 1.032,-0.495 1.032,-1.105 0.047,-0.743 0.159,-0.738 0.159,-1.48 M -1.905,-0.002 C -1.91,-0.358 -2.197,-0.626 -2.434,-0.86 -2.67,-1.094 -2.942,-1.193 -3.298,-1.193 c -0.579,0 -0.579,-0.111 -1.159,-0.111 -0.579,0 -0.579,-0.069 -1.159,-0.069 -0.582,0 -0.582,0.093 -1.163,0.093 -0.582,0 -0.582,0.053 -1.164,0.053 -0.356,0 -0.625,0.136 -0.862,0.371 -0.237,0.234 -0.518,0.5 -0.521,0.856 -0.007,0.717 0.131,0.719 0.123,1.436 -0.003,0.351 0.122,0.629 0.369,0.879 0.248,0.25 0.525,0.493 0.877,0.493 0.582,0 0.582,-0.106 1.165,-0.106 0.583,0 0.583,0.019 1.166,0.019 0.585,0 0.585,-0.036 1.17,-0.036 0.585,0 0.585,0.066 1.17,0.066 0.351,0 0.629,-0.184 0.876,-0.432 C -2.164,2.071 -1.917,1.793 -1.919,1.443 -1.92,1 -1.898,0.48 -1.905,-0.002 m 16.977,-10.493 c -0.394,0.076 -0.749,0.314 -1.131,0.401 -0.392,0.089 -0.768,0.205 -1.147,0.304 -0.389,0.102 -0.799,0.102 -1.174,0.215 -0.385,0.115 -0.786,0.171 -1.156,0.298 -0.38,0.13 -0.722,0.353 -1.086,0.495 C 9.004,-8.637 8.66,-8.436 8.302,-8.277 7.936,-8.115 7.586,-7.935 7.237,-7.759 6.878,-7.579 6.456,-7.53 6.115,-7.336 5.767,-7.138 5.5,-6.814 5.171,-6.602 4.835,-6.385 4.52,-6.152 4.205,-5.92 3.883,-5.684 3.494,-5.539 3.193,-5.286 2.888,-5.03 2.665,-4.688 2.381,-4.416 2.095,-4.141 1.809,-3.872 1.545,-3.58 c -0.182,0.202 -0.186,0.433 -0.074,0.685 0.116,0.262 0.3,0.45 0.582,0.45 0.547,0 0.547,-0.07 1.094,-0.07 0.55,0 0.55,0.134 1.1,0.134 0.55,0 0.55,-0.073 1.101,-0.073 0.552,0 0.552,0.011 1.104,0.011 0.552,0 0.652,0.321 1.084,-0.025 0.344,-0.275 0.006,-0.415 0.006,-0.856 0,-0.257 0.089,-1.08 1.037,-1.08 0.514,0 0.832,0.109 1.07,0.268 0.285,0.191 0.464,0.455 0.464,0.961 0,0.229 0.029,0.57 0.023,0.991 -0.004,0.295 -0.124,0.628 -0.13,0.993 C 10,-0.834 9.97,-0.448 9.964,-0.045 9.958,0.324 9.956,0.709 9.951,1.102 9.946,1.479 10.122,1.864 10.119,2.25 10.115,2.635 9.976,3.02 9.975,3.4 9.973,3.793 9.955,4.18 9.956,4.556 c 0.002,0.399 0.048,0.785 0.054,1.149 0.007,0.414 -0.061,0.803 -0.048,1.149 0.002,0.056 0.118,0.021 0.152,0.067 0.033,0.047 -0.011,0.074 0.042,0.095 0.574,0.224 1.149,0.524 1.149,0.949 0,0.257 -0.238,0.617 -0.653,1.003 C 10.35,9.249 9.966,9.482 9.616,9.71 9.152,10.012 8.757,10.291 8.504,10.291 8.328,10.291 8.042,10.09 7.708,9.741 7.51,9.535 7.345,9.241 7.126,8.944 7.1,8.909 7.07,8.837 7.026,8.834 6.444,8.801 6.438,8.927 5.855,8.927 5.273,8.927 5.273,9.012 4.69,9.012 4.107,9.012 4.107,8.999 3.524,8.999 2.939,8.999 2.939,8.918 2.354,8.918 1.769,8.918 1.769,8.81 1.184,8.81 0.887,8.81 0.58,9.001 0.371,9.213 0.162,9.424 0.135,9.731 0.138,10.028 c 0.008,0.751 -0.136,0.753 -0.128,1.504 0.004,0.373 0.277,0.677 0.525,0.922 0.248,0.245 0.554,0.394 0.928,0.394 0.599,0 0.599,-0.051 1.197,-0.051 0.599,0 0.599,0.065 1.197,0.065 0.601,0 0.601,0.088 1.202,0.088 0.599,0 0.599,-0.004 1.199,-0.004 0.6,0 0.6,-0.07 1.201,-0.07 0.601,0 0.601,-0.043 1.202,-0.043 0.6,0 0.6,0.105 1.201,0.105 0.601,0 0.601,-0.153 1.202,-0.153 0.603,0 0.603,0.139 1.206,0.139 0.603,0 0.603,-0.1 1.206,-0.1 0.444,0 0.824,0.059 1.123,0.117 0.548,0.108 0.77,0.343 0.77,0.629 -0.01,0.241 -0.118,0.663 -0.465,1.058 -0.24,0.273 -0.607,0.495 -0.915,0.767 -0.308,0.271 -0.593,0.579 -0.892,0.787 -0.443,0.307 -0.865,0.406 -1.079,0.406 -0.225,0 -0.543,-0.244 -0.896,-0.636 -0.248,-0.275 -0.513,-0.592 -0.743,-0.902 -0.284,-0.38 -0.59,-0.696 -0.735,-0.906 -0.026,-0.039 0.05,-0.2 0.004,-0.203 -0.569,-0.036 -0.576,0.056 -1.148,0.056 -0.571,0 -0.571,-0.031 -1.143,-0.031 -0.572,0 -0.572,0.141 -1.144,0.141 -0.571,0 -0.571,-0.062 -1.143,-0.062 -0.572,0 -0.572,0.012 -1.145,0.012 -0.574,0 -0.574,-0.115 -1.148,-0.115 -0.574,0 -0.574,0.091 -1.148,0.09 -0.032,-0.004 -0.808,-0.073 -1.241,0.347 -0.111,0.107 -0.096,0.3 -0.149,0.441 -0.007,0.039 0.043,0.03 0.044,0.069 -0.004,0.179 -0.18,0.55 -0.122,0.915 0.046,0.292 0.225,0.58 0.452,0.794 0.459,0.233 0.828,0.416 0.994,0.642 0.276,0.375 0.11,0.767 -0.25,1.05 -0.243,0.191 -0.604,0.341 -1.057,0.454 -0.609,0.139 -0.585,0.246 -1.196,0.379 -0.353,0.075 -0.781,0.047 -1.161,0.137 -0.442,0.104 -0.852,0.156 -1.139,0.169 -0.446,0.018 -0.578,-0.072 -0.017,-0.653 0.285,-0.407 0.448,-0.844 0.598,-1.252 0.179,-0.489 0.394,-0.932 0.447,-1.326 0.017,-0.221 -0.074,-0.456 -0.058,-0.702 0.024,-0.379 -0.083,-0.75 -0.343,-1.027 -0.262,-0.279 -0.612,-0.519 -0.992,-0.519 -0.601,0 -0.601,0.035 -1.202,0.035 -0.6,0 -0.6,0.1 -1.2,0.1 -0.6,0 -0.6,-0.143 -1.2,-0.143 -0.602,0 -0.602,0.079 -1.204,0.079 -0.601,0 -0.601,-0.038 -1.202,-0.038 -0.602,0 -0.602,0.132 -1.203,0.132 -0.603,0 -0.603,-0.167 -1.206,-0.167 -0.601,0 -0.601,0.057 -1.203,0.057 -0.602,0 -0.602,0.129 -1.205,0.129 -0.604,0 -0.604,-0.008 -1.208,-0.008 -0.605,0 -0.605,-0.171 -1.209,-0.171 -0.46,0 -0.551,-0.088 -0.551,-0.495 0,-0.424 0.073,-0.578 0.551,-0.578 0.609,0 0.609,0.059 1.218,0.059 0.607,0 0.607,-0.148 1.215,-0.148 0.607,0 0.607,0.146 1.215,0.146 0.609,0 0.609,-0.012 1.219,-0.012 0.608,0 0.608,-0.004 1.217,-0.004 0.609,0 0.609,-0.097 1.219,-0.097 0.609,0 0.609,-0.037 1.219,-0.037 0.61,0 0.61,0.147 1.219,0.147 h 1.22 c 0.612,0 0.612,0.005 1.223,0.005 0.612,0 0.612,0.021 1.224,0.021 0.371,0 0.651,-0.286 0.9,-0.527 C -2.246,12.191 -2.007,11.917 -2,11.547 -1.987,10.792 -2.075,10.79 -2.062,10.035 -2.056,9.735 -2.088,9.438 -2.296,9.227 -2.505,9.013 -2.801,8.815 -3.1,8.815 c -0.648,0 -0.648,0.114 -1.296,0.114 -0.648,0 -0.648,-0.025 -1.298,-0.025 -0.65,0 -0.65,-0.009 -1.3,-0.009 -0.65,0 -0.652,-0.075 -1.302,-0.061 -0.026,0 0.034,0.176 0.013,0.189 -0.283,0.186 -0.657,0.36 -1.027,0.534 -0.354,0.166 -0.741,0.289 -1.08,0.411 -0.464,0.168 -0.894,0.141 -1.124,0.156 -0.112,0.014 -0.146,0.028 -0.208,-0.036 -0.04,-0.039 -0.228,-0.066 -0.216,-0.167 0.04,-0.372 0.184,-0.777 0.21,-1.231 0.024,-0.389 0.114,-0.804 0.129,-1.24 0.015,-0.4 -0.079,-0.821 -0.071,-1.249 0.008,-0.406 0.087,-0.821 0.091,-1.243 0.004,-0.411 -0.146,-0.827 -0.146,-1.244 10e-4,-0.417 -0.011,-0.834 -0.013,-1.248 -0.003,-0.421 0.086,-0.839 0.082,-1.248 -0.005,-0.426 -0.034,-0.843 -0.04,-1.246 -0.006,-0.434 0.078,-0.852 0.071,-1.247 -0.008,-0.446 -0.012,-0.863 -0.02,-1.242 -0.01,-0.586 -0.071,-1.089 -0.076,-1.482 0,-0.552 0.295,-0.865 0.899,-0.865 0.473,0 0.77,0.181 1.005,0.28 0.468,0.198 0.562,0.454 0.562,0.736 0,0.703 -0.47,0.893 -0.046,1.454 0.32,0.423 0.593,-0.03 1.123,-0.03 0.532,0 0.532,-0.012 1.063,-0.012 0.533,0 0.533,0.042 1.066,0.042 0.533,0 0.533,-0.107 1.066,-0.107 0.274,0 0.437,-0.134 0.558,-0.384 0.117,-0.242 0.09,-0.421 -0.076,-0.628 -0.256,-0.321 -0.388,-0.749 -0.662,-1.062 -0.27,-0.31 -0.667,-0.507 -0.954,-0.809 -0.283,-0.297 -0.501,-0.661 -0.8,-0.95 -0.296,-0.285 -0.659,-0.501 -0.97,-0.778 -0.306,-0.274 -0.576,-0.591 -0.898,-0.857 -0.316,-0.261 -0.643,-0.514 -0.974,-0.768 -0.326,-0.249 -0.655,-0.499 -0.995,-0.742 -0.333,-0.237 -0.711,-0.416 -1.059,-0.647 -0.341,-0.227 -0.633,-0.534 -0.987,-0.755 -0.349,-0.216 -0.73,-0.386 -1.092,-0.596 -0.355,-0.206 -0.682,-0.468 -1.049,-0.668 -0.361,-0.196 -0.762,-0.323 -1.135,-0.513 -0.366,-0.187 -0.727,-0.392 -1.104,-0.571 -0.454,-0.237 -0.556,-0.543 -0.475,-0.729 0.084,-0.187 0.417,-0.378 0.926,-0.186 0.391,0.122 0.77,0.257 1.145,0.387 0.385,0.135 0.708,0.423 1.078,0.566 0.381,0.147 0.772,0.251 1.137,0.406 0.377,0.161 0.745,0.319 1.104,0.487 0.371,0.175 0.705,0.404 1.057,0.585 0.365,0.188 0.717,0.375 1.062,0.568 0.358,0.201 0.726,0.363 1.062,0.568 0.352,0.215 0.721,0.383 1.049,0.599 0.345,0.229 0.685,0.447 1.004,0.675 0.336,0.241 0.632,0.518 0.94,0.756 0.328,0.255 0.703,0.433 1,0.682 0.32,0.269 0.519,0.651 0.802,0.91 0.312,0.284 0.616,0.543 0.884,0.809 0.137,0.136 0.363,0.173 0.545,0.173 0.094,0 0.165,-0.088 0.255,-0.127 0.264,-0.116 0.447,-0.31 0.439,-0.602 -0.013,-0.431 -0.023,-0.843 -0.035,-1.236 -0.012,-0.433 0.024,-0.844 0.013,-1.232 -0.013,-0.439 -0.135,-0.848 -0.145,-1.23 -0.012,-0.45 -0.018,-0.861 -0.027,-1.232 -0.012,-0.472 0.005,-0.882 -0.002,-1.229 -0.013,-0.581 -0.036,-0.99 -0.036,-1.229 0,-0.62 0.39,-0.884 1.034,-0.884 0.511,0 0.84,0.058 1.076,0.193 0.419,0.239 0.566,0.593 0.566,0.916 0,0.213 -0.038,0.602 -0.042,1.122 -0.002,0.326 -0.028,0.704 -0.032,1.121 -0.004,0.349 -0.02,0.725 -0.024,1.122 -0.004,0.358 -0.088,0.733 -0.092,1.122 -0.005,0.365 0.081,0.742 0.077,1.125 -0.005,0.37 -0.095,0.746 -0.101,1.126 -0.005,0.374 0.084,0.752 0.079,1.128 -0.006,0.308 0.139,0.666 0.43,0.766 0.287,0.096 0.683,-0.041 0.867,-0.283 0.247,-0.327 0.466,-0.664 0.72,-0.965 0.265,-0.314 0.456,-0.685 0.727,-0.973 0.282,-0.3 0.684,-0.467 0.97,-0.739 0.298,-0.285 0.535,-0.62 0.835,-0.874 0.313,-0.268 0.565,-0.6 0.877,-0.838 0.329,-0.25 0.656,-0.493 0.98,-0.713 0.345,-0.234 0.753,-0.347 1.088,-0.548 0.359,-0.215 0.683,-0.461 1.025,-0.641 0.373,-0.196 0.716,-0.418 1.062,-0.576 0.391,-0.179 0.784,-0.291 1.131,-0.426 0.414,-0.16 0.78,-0.345 1.116,-0.452 0.436,-0.12 0.739,-0.055 0.973,0.058 0.223,0.108 0.338,0.385 0.583,0.751 0.217,0.289 0.554,0.396 0.868,0.613 0.241,0.166 0.51,0.332 0.912,0.493 0.357,0.118 0.55,0.394 0.541,0.53 -0.009,0.134 -0.265,0.225 -0.776,0.321" />
    </g>
    <g
       transform="matrix(0.35277777,0,0,-0.35277777,109.73532,144.73545)"
       id="g1080">
      <path
         id="path1082"
         style="fill:#000000;fill-opacity:1;fill-rule:nonzero;stroke:none"
         d="m 0,0 c -0.609,0.139 -0.599,0.187 -1.208,0.321 -0.354,0.075 -0.778,0.066 -1.158,0.156 -0.442,0.104 -0.852,0.211 -1.139,0.224 -0.447,0.019 -0.653,-0.203 -0.092,-0.784 0.263,-0.375 0.566,-0.686 0.711,-1.063 0.17,-0.439 0.329,-0.868 0.391,-1.242 0.025,-0.374 -0.127,-0.784 -0.108,-1.195 0.017,-0.383 0.179,-0.773 0.192,-1.176 0.012,-0.389 -0.038,-0.787 -0.03,-1.182 0.009,-0.397 0.039,-0.794 0.044,-1.186 0.006,-0.402 -0.044,-0.801 -0.041,-1.186 0.003,-0.411 0.128,-0.808 0.13,-1.183 10e-4,-0.426 -0.01,-0.824 -0.011,-1.184 0,-0.466 -0.098,-0.867 -0.099,-1.177 -10e-4,-0.246 0.105,-0.246 0.105,-0.49 0,-0.311 -0.06,-0.755 -0.071,-1.324 -0.008,-0.386 -0.07,-0.828 -0.082,-1.33 -0.01,-0.407 -0.076,-0.852 -0.089,-1.334 -0.013,-0.469 -0.013,-0.946 -0.237,-1.32 -0.232,-0.386 -0.59,-0.734 -0.982,-0.954 -0.38,-0.213 -0.857,-0.292 -1.327,-0.292 -0.668,0 -0.668,0.092 -1.336,0.092 -0.671,0 -0.671,-0.011 -1.341,-0.011 -0.671,0 -0.671,0.025 -1.343,0.025 -0.671,0 -0.671,-0.081 -1.342,-0.081 -0.475,0 -0.911,0.147 -1.295,0.369 -0.396,0.23 -0.775,0.519 -1.004,0.914 -0.223,0.385 -0.243,0.853 -0.243,1.327 0,0.594 -0.008,0.594 -0.008,1.188 0,0.594 -0.098,0.594 -0.098,1.186 0,0.594 0.132,0.594 0.132,1.188 0,0.594 -0.147,0.594 -0.147,1.187 0,0.594 0.058,0.594 0.058,1.188 0,0.595 -0.01,0.595 -0.01,1.188 0,0.592 0.057,0.592 0.057,1.184 0,0.594 -0.026,0.594 -0.026,1.188 0,0.593 -0.117,0.593 -0.117,1.187 0,0.593 0.165,0.593 0.165,1.186 0,0.595 -0.015,0.595 -0.015,1.19 0,0.594 -0.026,0.594 -0.026,1.187 0,0.596 -0.008,0.596 -0.008,1.191 0,0.596 0.051,0.596 0.051,1.19 0,0.595 -0.154,0.595 -0.154,1.19 0,0.595 0.146,0.595 0.146,1.191 0,0.598 -0.131,0.598 -0.131,1.195 0,0.597 0.028,0.598 0.053,1.195 0.059,0.222 0.19,0.4 0.365,0.565 0.458,0.234 0.73,0.51 0.896,0.738 0.276,0.375 0.197,0.733 -0.163,1.016 -0.243,0.191 -0.619,0.322 -1.073,0.436 -0.01,0.002 0.016,0.079 0.006,0.083 -0.001,0.001 -0.065,-0.146 -0.067,-0.145 -0.008,0.001 0.031,0.109 0.022,0.11 -0.586,0.128 -0.594,0.091 -1.18,0.219 -0.353,0.075 -0.737,0.241 -1.117,0.331 -0.442,0.105 -0.872,0.083 -1.159,0.096 -0.446,0.02 -0.566,-0.07 -0.004,-0.651 0.23,-0.328 0.469,-0.646 0.607,-0.978 0.157,-0.376 0.109,-0.785 0.181,-1.124 0.018,-0.374 0.078,-0.775 0.093,-1.218 0.012,-0.385 0.138,-0.793 0.149,-1.224 0.009,-0.393 -0.133,-0.807 -0.125,-1.232 0.007,-0.397 0.174,-0.804 0.18,-1.225 0.005,-0.4 -0.01,-0.811 -0.006,-1.229 0.004,-0.402 -0.041,-0.813 -0.038,-1.229 0.003,-0.405 -0.065,-0.816 -0.064,-1.231 0.002,-0.405 0.043,-0.814 0.044,-1.227 10e-4,-0.408 0.042,-0.819 0.042,-1.231 0,-0.408 -0.016,-0.819 -0.017,-1.23 0,-0.411 -0.093,-0.823 -0.095,-1.234 -10e-4,-0.413 0.166,-0.826 0.164,-1.237 -0.002,-0.414 -0.149,-0.826 -0.152,-1.236 -0.002,-0.414 0.127,-0.827 0.124,-1.236 -0.003,-0.415 0.003,-0.826 -10e-4,-1.231 -0.004,-0.417 -0.093,-0.827 -0.097,-1.232 -0.005,-0.418 0.059,-0.829 0.054,-1.229 -0.005,-0.421 -0.032,-0.83 -0.038,-1.229 -0.007,-0.467 -0.205,-0.896 -0.431,-1.275 -0.232,-0.388 -0.564,-0.688 -0.957,-0.914 -0.382,-0.218 -0.805,-0.354 -1.273,-0.354 -0.665,0 -0.665,-0.093 -1.329,-0.093 -0.666,0 -0.666,0.081 -1.332,0.081 -0.667,0 -0.667,-0.02 -1.334,-0.02 -0.667,0 -0.667,-0.013 -1.334,-0.013 -0.469,0 -0.922,0.133 -1.304,0.354 -0.393,0.227 -0.63,0.618 -0.861,1.008 -0.225,0.38 -0.479,0.771 -0.485,1.241 -0.005,0.366 0.017,0.727 0.012,1.074 -0.004,0.374 -0.085,0.734 -0.088,1.072 -0.004,0.389 0.08,0.751 0.078,1.073 -0.004,0.437 -0.07,0.803 -0.07,1.066 -10e-4,0.505 -0.017,0.505 -0.019,1.009 0,0.237 0.092,0.625 0.092,1.12 -10e-4,0.33 0.052,0.709 0.052,1.122 -10e-4,0.351 -0.031,0.728 -0.031,1.121 0,0.363 -0.106,0.74 -0.106,1.125 0,0.368 0.113,0.745 0.113,1.125 0,0.374 -0.015,0.751 -0.015,1.125 0,0.381 0.009,0.756 0.009,1.124 0.039,0.319 0.079,0.689 0.329,0.924 0.459,0.234 0.751,0.459 0.917,0.686 0.275,0.375 0.193,0.68 -0.167,0.964 -0.243,0.191 -0.582,0.398 -1.035,0.511 -0.609,0.14 -0.613,0.122 -1.223,0.256 -0.353,0.075 -0.773,0.091 -1.153,0.181 -0.441,0.105 -0.836,0.343 -1.123,0.355 -0.447,0.019 -0.526,-0.168 0.037,-0.75 0.253,-0.362 0.422,-0.773 0.565,-1.138 0.166,-0.424 0.228,-0.85 0.293,-1.216 0.025,-0.378 0.014,-0.779 0.032,-1.194 0.018,-0.386 0.017,-0.787 0.03,-1.193 0.013,-0.393 -0.015,-0.793 -0.006,-1.193 0.008,-0.401 0.155,-0.799 0.161,-1.194 0.006,-0.407 -0.054,-0.809 -0.051,-1.198 0.004,-0.415 0.02,-0.816 0.021,-1.195 0.002,-0.431 -0.028,-0.832 -0.028,-1.195 -0.001,-0.471 0.093,-0.876 0.092,-1.19 -0.001,-0.252 -0.063,-0.251 -0.063,-0.503 0,-0.32 -0.094,-0.764 -0.105,-1.295 -0.007,-0.391 0.008,-0.829 -0.004,-1.297 -0.01,-0.413 -0.046,-0.848 -0.059,-1.296 -0.011,-0.427 0.119,-0.869 0.106,-1.306 -0.012,-0.438 -0.104,-0.873 -0.116,-1.301 -0.011,-0.376 0.044,-0.75 0.033,-1.11 -0.01,-0.385 -0.07,-0.755 -0.08,-1.103 -0.01,-0.406 0.068,-0.782 0.061,-1.107 -0.012,-0.498 -0.14,-0.882 -0.14,-1.1 0,-0.586 0.39,-1.005 1.026,-1.005 0.524,0 0.878,0.196 1.133,0.309 0.588,0.26 0.58,0.693 0.58,0.883 -0.002,0.241 0.01,0.241 0.007,0.482 -0.004,0.353 0.012,0.716 0.14,1.033 0.128,0.317 0.397,0.562 0.644,0.812 0.248,0.25 0.53,0.423 0.845,0.554 0.315,0.131 0.636,0.256 0.988,0.256 0.606,0 0.606,0.068 1.213,0.068 0.605,0 0.605,-0.073 1.211,-0.073 0.607,0 0.607,0.075 1.213,0.075 0.604,0 0.604,-0.113 1.208,-0.113 0.607,0 0.607,0.079 1.213,0.079 0.606,0 0.606,-0.022 1.211,-0.022 0.605,0 0.605,-0.062 1.21,-0.062 0.608,0 0.608,-0.001 1.215,-0.001 0.606,0 0.606,-0.008 1.213,-0.008 0.607,0 0.607,0.036 1.214,0.036 0.607,0 0.607,-0.007 1.215,-0.007 0.607,0 0.607,-0.069 1.214,-0.069 0.608,0 0.608,0.033 1.216,0.033 0.609,0 0.609,0.06 1.219,0.06 0.61,0 0.61,0.083 1.219,0.083 0.353,0 0.661,-0.24 0.977,-0.373 0.315,-0.133 0.657,-0.229 0.904,-0.482 0.249,-0.255 0.475,-0.548 0.602,-0.868 0.127,-0.322 0.158,-0.69 0.15,-1.045 -0.004,-0.204 0.045,-0.368 0.045,-0.485 0,-0.637 0.247,-1.034 0.91,-1.034 0.514,0 0.874,0.16 1.13,0.266 0.518,0.212 0.638,0.575 0.638,0.88 0,0.199 0.008,0.587 0.002,1.102 -0.002,0.323 -0.094,0.695 -0.099,1.103 -0.004,0.345 0.067,0.716 0.062,1.103 -0.004,0.357 0.04,0.727 0.036,1.105 -0.004,0.367 -0.104,0.74 -0.109,1.114 -0.004,0.374 -0.058,0.747 -0.062,1.116 -0.005,0.381 0.071,0.757 0.067,1.119 -0.004,0.389 0.042,0.764 0.038,1.116 -0.004,0.405 -0.13,0.78 -0.132,1.114 -0.004,0.461 0.042,0.842 0.042,1.109 -0.001,0.504 0.03,0.504 0.028,1.008 0,0.231 -0.082,0.622 -0.083,1.131 0,0.332 0,0.713 0,1.132 -0.001,0.352 0.039,0.732 0.039,1.131 -0.001,0.364 -0.029,0.744 -0.029,1.134 -0.001,0.371 0.09,0.751 0.09,1.134 0,0.376 -0.144,0.757 -0.144,1.136 0,0.381 0.013,0.767 0.013,1.142 0.044,0.298 0.197,0.65 0.43,0.871 0.459,0.232 0.767,0.437 0.933,0.664 0.275,0.375 0.267,0.784 -0.093,1.067 C 0.868,-0.233 0.453,-0.113 0,0" />
    </g>
  </g>
</svg>
