<svg xmlns="http://www.w3.org/2000/svg" viewBox="0 0 61.55 52.06"><g id="レイヤー_2" data-name="レイヤー 2"><g id="レイヤー_1-2" data-name="レイヤー 1"><path d="M32.73,51.82l.79,0,.8,0H35.9a3.64,3.64,0,0,1,.82.08,4.27,4.27,0,0,0,.76.06,6,6,0,0,0,.77,0,4.81,4.81,0,0,1,.82-.06,4.57,4.57,0,0,1,.82.07,3.23,3.23,0,0,0,.76.08,4.31,4.31,0,0,0,.77-.06,4.81,4.81,0,0,1,.82-.06,6.63,6.63,0,0,0,.78,0,7,7,0,0,1,.81,0,3.79,3.79,0,0,1,.73.07l.4,0-.17-.14-.45-.37c-.22-.17-.44-.36-.66-.56l-.31-.26a3.18,3.18,0,0,0-.49-.31,2.74,2.74,0,0,1-.67-.43c-.34-.33-.62-.61-.88-.88a3.14,3.14,0,0,1-.38-.52,3,3,0,0,0-.31-.42q-.24-.3-.45-.6l-.25-.35a4.93,4.93,0,0,1-.4-.61c-.08-.11-.15-.23-.23-.35a4.39,4.39,0,0,0-.28-.36,4,4,0,0,1-.42-.59L38.54,45c-.14-.28-.29-.57-.4-.85a3.73,3.73,0,0,1-.18-.67c0-.13-.05-.25-.09-.37a2.54,2.54,0,0,1-.11-1l.17,0-.16,0a.67.67,0,0,1,.08-.55.51.51,0,0,1,.38-.2.87.87,0,0,1,.89.58s0,0,0,.06a3,3,0,0,0,.14.91,2.14,2.14,0,0,0,.22.42,3.89,3.89,0,0,1,.25.5,4.29,4.29,0,0,1,.13.44,2.16,2.16,0,0,0,.16.51,2,2,0,0,0,.36.48c.11.13.22.25.31.38.18.28.39.54.59.8l.14.19c.13.17.23.33.33.49a3.24,3.24,0,0,0,.35.53c.23.26.48.5.71.74l.19.19a4.63,4.63,0,0,0,.59.46,4.09,4.09,0,0,1,.52.38,3,3,0,0,1,.44.52,2.83,2.83,0,0,0,.4.44l.49.41a6.7,6.7,0,0,0,.55.46,3.7,3.7,0,0,0,1.18.58h1.65a5.24,5.24,0,0,1,.85.06,4.88,4.88,0,0,0,.8.05,7.08,7.08,0,0,1,.85,0,5,5,0,0,0,.81,0h1.65l.83,0h2.49a7.73,7.73,0,0,0,.81,0,7.82,7.82,0,0,1,.85,0l.84,0h.82a4.53,4.53,0,0,1,.78.07,1.86,1.86,0,0,0,.34,0l-.51-.3-.3-.18a2.45,2.45,0,0,1-.55-.45,3.62,3.62,0,0,0-.46-.39c-.15-.1-.33-.2-.51-.3a4.92,4.92,0,0,1-.7-.41c-.2-.15-.38-.31-.56-.47l-.44-.37a3.35,3.35,0,0,0-.54-.31,3.32,3.32,0,0,1-.68-.41,5.16,5.16,0,0,1-.46-.48,5.36,5.36,0,0,0-.4-.43c-.13-.12-.28-.24-.43-.36a6.44,6.44,0,0,1-.56-.48c-.3-.28-.59-.58-.89-.89l-.37-.36c-.18-.17-.36-.34-.53-.52l-.21-.24c-.21-.22-.42-.45-.62-.68a6.54,6.54,0,0,1-.41-.51c-.11-.14-.22-.29-.34-.43s-.26-.34-.38-.51a4.6,4.6,0,0,0-.32-.45,3.32,3.32,0,0,1-.33-.53,3.52,3.52,0,0,0-.28-.46,2.69,2.69,0,0,0-.42-.4,3.87,3.87,0,0,1-.5-.49l-.42-.61-.26-.36c-.12-.17-.23-.35-.34-.53s-.18-.3-.28-.45a4.64,4.64,0,0,0-.36-.44,4,4,0,0,1-.42-.5L46.55,37l-.42-.65a1.67,1.67,0,0,1-.2-.58,1.51,1.51,0,0,0-.16-.48c-.11-.17-.2-.35-.3-.53l-.25-.47c-.09-.14-.18-.29-.28-.43s-.23-.37-.33-.55-.19-.3-.29-.45-.23-.36-.33-.54-.19-.36-.28-.55-.15-.31-.23-.46l-.26-.46c-.11-.18-.22-.36-.32-.55a16.65,16.65,0,0,0-2.2-1.57,6.41,6.41,0,0,0-3.53-.07A6.16,6.16,0,0,0,36,29a6.48,6.48,0,0,0-1,.48,1,1,0,0,1-.39.15h0c-.32-.18-.76-.54-1-.67a6,6,0,0,0-1.34-.41,9.85,9.85,0,0,0-1.65-.11,5,5,0,0,0-1.06.17l-.38.09a8.23,8.23,0,0,0-1.56.74c-.25.15-.3.15-.7.4,0,0,0,0,0,0-.18-.07-.24-.17-.76-.43a4,4,0,0,0-.59-.41A8.45,8.45,0,0,0,24,28.5a6.08,6.08,0,0,0-1.55-.05h-.09a4.24,4.24,0,0,0-1.48.35,4.83,4.83,0,0,0-1.24.66c-.09.08-.2.15-.3.23a3.47,3.47,0,0,0-.74.63,5.34,5.34,0,0,1-.33.5,3.91,3.91,0,0,0-.3.45,1.19,1.19,0,0,0-.09.47,1.5,1.5,0,0,1-.14.61l-.06.09-.5.91-.24.42-.33.57a2,2,0,0,1-.49.51,1.91,1.91,0,0,0-.4.41c-.09.14-.17.28-.25.42s-.23.38-.35.57a1.36,1.36,0,0,0-.14.47,1.65,1.65,0,0,1-.2.59,2.63,2.63,0,0,1-.5.5,2,2,0,0,0-.41.4,1.52,1.52,0,0,0-.2.47,1.88,1.88,0,0,1-.24.57,4.33,4.33,0,0,1-.46.5,3.61,3.61,0,0,0-.38.42c-.11.15-.2.31-.29.46a5,5,0,0,1-.33.52,2.59,2.59,0,0,1-.56.48A2.24,2.24,0,0,0,11,42a1.67,1.67,0,0,0-.24.46,1.67,1.67,0,0,1-.29.56,2.79,2.79,0,0,1-.55.47,3.1,3.1,0,0,0-.46.38l-.32.37-.48.55-.72.75-.15.15a4.94,4.94,0,0,0-.36.44,3.74,3.74,0,0,1-.41.5,3.91,3.91,0,0,0-.37.44,3.87,3.87,0,0,1-.43.49,5.3,5.3,0,0,1-.6.46c-.17.12-.33.23-.47.35s-.43.34-.65.5l-.41.31a5.62,5.62,0,0,1-.65.43c-.18.11-.35.21-.5.32l-.36.26c-.24.18-.48.36-.73.52a6.08,6.08,0,0,0-.47.39,2.72,2.72,0,0,1-.56.44A7.33,7.33,0,0,1,0,52a3.53,3.53,0,0,0,.57,0H1a6.63,6.63,0,0,0,.78,0,7.17,7.17,0,0,1,.82,0,4.81,4.81,0,0,1,.82.06,4.69,4.69,0,0,0,.78,0A4.4,4.4,0,0,0,5,51.94a4.86,4.86,0,0,1,.83-.06,7.6,7.6,0,0,1,.81,0c.21,0,.4,0,.79,0a7.6,7.6,0,0,1,.81,0c.2,0,.4,0,.79,0a6.69,6.69,0,0,0,.79,0,7.73,7.73,0,0,1,.81,0h3.17c.12-.08.53-.36,1.13-.79a4.82,4.82,0,0,0,.51-.44c.15-.14.31-.29.5-.44a6.1,6.1,0,0,1,.53-.35,3.71,3.71,0,0,0,.65-.44,2.44,2.44,0,0,0,.36-.47,2.73,2.73,0,0,1,.4-.53c.13-.13.27-.25.42-.38a6.85,6.85,0,0,0,.55-.52c.26-.3.53-.62.8-1l.29-.37a5.59,5.59,0,0,0,.48-.61,1.45,1.45,0,0,0,.18-.48,2.3,2.3,0,0,1,.16-.46l.06-.12c.14-.28.26-.54.36-.8a3,3,0,0,1,.31-.52,1.64,1.64,0,0,0,.23-.39,8.39,8.39,0,0,0,.23-.94.74.74,0,0,1,.82-.52,1,1,0,0,1,.66.34.44.44,0,0,1,.08.36,5.16,5.16,0,0,1-.21,1c-.06.19-.15.4-.24.61s-.12.27-.17.4a2.21,2.21,0,0,1-.37.55,2,2,0,0,0-.31.42,1.72,1.72,0,0,0-.11.42,1.42,1.42,0,0,1-.2.62,4.9,4.9,0,0,1-.45.57c-.1.12-.2.24-.29.37a3.71,3.71,0,0,0-.28.41,4.81,4.81,0,0,1-.37.55,3.31,3.31,0,0,1-.58.47,2.11,2.11,0,0,0-.45.34,2.77,2.77,0,0,0-.31.45,2,2,0,0,1-.37.52,5.41,5.41,0,0,1-.61.46c-.16.11-.31.22-.44.33-.32.27-.64.52-.92.74l-.08.06-.42.33L16,52a3.74,3.74,0,0,0,.58,0h.59a4.2,4.2,0,0,0,.77-.07,4.57,4.57,0,0,1,.82-.07h1.59l.8,0,.79,0a4.55,4.55,0,0,0,.77,0,4.81,4.81,0,0,1,.82-.06c.41,0,.61,0,.81,0a6.63,6.63,0,0,0,.78,0h1.6a7.73,7.73,0,0,1,.81,0c.19,0,.39,0,.78,0A4.64,4.64,0,0,1,29,52a.73.73,0,0,0,.72-.15c.29-.2.28-.24.23-.42a1.61,1.61,0,0,1-.08-.47,1.43,1.43,0,0,0-.08-.5,1.72,1.72,0,0,1-.1-.62,1.29,1.29,0,0,1,.14-.62,1,1,0,0,0,.11-.49.75.75,0,0,0-.14-.47,1.2,1.2,0,0,1-.17-.64,3.91,3.91,0,0,1,0-.58,3.21,3.21,0,0,0,0-.54c0-.28,0-.42,0-.57s0-.27,0-.55a1.65,1.65,0,0,1,.1-.61,1.2,1.2,0,0,0,.09-.5v-.57c0-.14,0-.28,0-.55a2.85,2.85,0,0,0-.05-.53,2.59,2.59,0,0,1-.06-.59c0-.32.3-.52.75-.52s.66.32.66.52v1.11a1.16,1.16,0,0,0,.1.49,1.48,1.48,0,0,1,.12.63,1.88,1.88,0,0,1-.09.6,1.89,1.89,0,0,0,0,1,1.94,1.94,0,0,1,.09.6,3.36,3.36,0,0,1-.05.59,2.24,2.24,0,0,0-.05.53,1.45,1.45,0,0,0,.08.51,2,2,0,0,1,.08.61,1.65,1.65,0,0,1-.1.61,1.43,1.43,0,0,0-.08.5c0,.29,0,.43,0,.57v.55a1.18,1.18,0,0,1-.18.59c-.11.21-.13.25.1.42s.42.13.71,0A2.45,2.45,0,0,1,32.73,51.82Z"/><path d="M44.78,4.53a4,4,0,0,0-.37-.43,3.66,3.66,0,0,0-.74-.37c-.26-.1-.51-.26-.76-.34a7.8,7.8,0,0,0-.83-.15,3.38,3.38,0,0,0-1.52-.06c-.22,0-.46.06-.7.12l-.78.2a3.48,3.48,0,0,0-.48.24l0-.19A2.71,2.71,0,0,0,38,2.1a5.07,5.07,0,0,0-.55-.58A2.49,2.49,0,0,0,36.81,1,12.63,12.63,0,0,0,34.4.16a4.08,4.08,0,0,0-.64-.1A4.77,4.77,0,0,0,32.93,0c-.28,0-.55.05-.83.09a4.54,4.54,0,0,0-.82.14A3.63,3.63,0,0,0,30,1a5.69,5.69,0,0,0-.57.46l-.14.13c-.27.27-.66.51-.72.71a2,2,0,0,1-.44.64s-.39-.24-.84-.48a4.61,4.61,0,0,0-.85-.4,5.73,5.73,0,0,0-.87-.24,6.4,6.4,0,0,0-.91-.05,5,5,0,0,0-.72.09c-.23,0-.48,0-.73.07a7.77,7.77,0,0,0-3.51,1.4c.05.19-.54.56-.65.69a6.62,6.62,0,0,0-1.15,1.78c-.08.18-.16.38-.24.59v0a4.05,4.05,0,0,0-.78.09,3.86,3.86,0,0,0-.75.24,5.15,5.15,0,0,0-.7.36,2.52,2.52,0,0,0-.41.39A8.56,8.56,0,0,0,13.62,9a5.65,5.65,0,0,0-.29.67,4,4,0,0,0-.3.67A4.48,4.48,0,0,0,13,11a4.58,4.58,0,0,0,.05.63,3.43,3.43,0,0,0,0,.64,4.27,4.27,0,0,0,.18.61,3.84,3.84,0,0,0,.38.76,7.81,7.81,0,0,0,.42.74,3.45,3.45,0,0,0,.59.62,6.09,6.09,0,0,0,.75.43,2.77,2.77,0,0,0,.65.28,4.49,4.49,0,0,0,.71.15,6.5,6.5,0,0,1,.69.19,3.87,3.87,0,0,0,.76,0,3.64,3.64,0,0,0,.74,0,4.38,4.38,0,0,0,.75-.24c.05.25,0,.54.11.76a4.36,4.36,0,0,0,.28.66,4.29,4.29,0,0,0,.36.63,5,5,0,0,0,.46.55,3.51,3.51,0,0,0,.61.39,4.6,4.6,0,0,0,.6.37,5.58,5.58,0,0,0,.63.35,5.52,5.52,0,0,0,.71.1,6,6,0,0,0,.68.22,5.55,5.55,0,0,0,.71,0,5.06,5.06,0,0,0,.67,0c0,.23,0,.42,0,.66,0,.5,0,.94,0,1.43,0,.24,0,.48,0,.72s.05.48.05.72l0,.71c0,.25,0,.49,0,.72s-.09.49-.1.71-.07.52-.08.7a.88.88,0,0,0,.51.83v0A.87.87,0,0,0,26.7,27a.89.89,0,0,0,.46-.7c0-.68,0-1.14,0-1.82a.55.55,0,0,1,.89-.51.55.55,0,0,1,.3.49c0,.36.07.36.07.71a.75.75,0,0,0,.32.63.8.8,0,0,0,.7.19s0,0,0,0a.85.85,0,0,0,.41-.36.76.76,0,0,0,.2-.49c0-.21.07-.45.07-.7s0-.46,0-.7,0-.47,0-.71,0-.47,0-.7,0-.48,0-.7,0-.49,0-.71.07-.5.07-.7c0-.42,0-.68,0-.69s0-.19,0-.34a4.31,4.31,0,0,1,.05-.71,1.63,1.63,0,0,0-.09-.53c.06-.22-.44-.21-.49-.33l-.36-.18c-.23-.1-.48-.13-.67-.24a4.66,4.66,0,0,1-.59-.4,3.53,3.53,0,0,1-.44-.55,3.36,3.36,0,0,1-.42-.55,2.43,2.43,0,0,1-.26-.64c0-.17,0-.36-.07-.56s-.17-.36-.18-.54a5,5,0,0,1,.05-.77,5.69,5.69,0,0,1,.18-.77c-.2-.06-.46-.13-.71-.23a3.64,3.64,0,0,1-.69-.29,5.24,5.24,0,0,1-.63-.62,2.57,2.57,0,0,1-.59-.64A2.49,2.49,0,0,1,24,10a3.43,3.43,0,0,1-.23-.66,4.18,4.18,0,0,1,.11-.68A5,5,0,0,1,24,8a5.41,5.41,0,0,1,.25-.72,2.64,2.64,0,0,1,.41-.63,3,3,0,0,1,.53-.54,2.39,2.39,0,0,1,.67-.45,2.91,2.91,0,0,1,.81-.18,2.43,2.43,0,0,1,.8.09,4.66,4.66,0,0,1,.82.14c.32.11.52.32.5.59s-.31.46-.65.52a4.29,4.29,0,0,1-.87,0s0,0,0,0a2.46,2.46,0,0,0-.61.16A1.88,1.88,0,0,0,26,7.3a2.9,2.9,0,0,0-.51.47,2.07,2.07,0,0,0-.21.65,2,2,0,0,0-.1.77,2,2,0,0,0,.23.76,2,2,0,0,0,.5.58,3.89,3.89,0,0,0,.68.33,7,7,0,0,0,.69.33,3.47,3.47,0,0,1,.37-.57,3.54,3.54,0,0,1,.49-.45,4.73,4.73,0,0,1,.54-.4l.58-.33A4.87,4.87,0,0,1,30,9.22a3.51,3.51,0,0,1,.68-.16,2.73,2.73,0,0,1,.7,0,5.68,5.68,0,0,1,.71,0,4.43,4.43,0,0,1,.67.21,4.73,4.73,0,0,1,.65.29,2.84,2.84,0,0,1,.48.46.53.53,0,0,1,0,.61c-.1.18-.26.21-.47.21a1.5,1.5,0,0,1-.56-.1s-.05,0-.08,0a5.67,5.67,0,0,0-.7-.28,3.23,3.23,0,0,0-.74-.11s-.06-.09-.1-.09a2.1,2.1,0,0,0-.66.18,4.59,4.59,0,0,0-.63.27c-.1,0-.11,0-.2.08s-.4.16-.57.27a2.38,2.38,0,0,0-.77,1.06c-.08.22-.19.43-.25.65a3.64,3.64,0,0,0-.18.74,4.27,4.27,0,0,0,.14.75,5.32,5.32,0,0,0,.45,1.08,2.24,2.24,0,0,0,.52.49,3.64,3.64,0,0,0,.58.43c.2.1.41.25.66.36a1.44,1.44,0,0,1,.7.22.66.66,0,0,1,.32.59c0,.3,0,.31,0,.61s-.06.3-.07.6a1.78,1.78,0,0,1,0,.2,3.7,3.7,0,0,1,0,.66s0,.28,0,.71c0,.2.05.44.05.71s0,.45,0,.7,0,.47,0,.71,0,.47,0,.71,0,.48,0,.71v.71c0,.26,0,.5,0,.71a.85.85,0,0,0,.27.53.76.76,0,0,0,.47.31s0,.07,0,.08a1,1,0,0,0,.79-.18.9.9,0,0,0,.28-.74c0-.34,0-.34,0-.68s.07-.34.07-.68,0-1.84.93-1.24a.6.6,0,0,1,.26.54c0,.39,0,.39,0,.78s.06.39.06.78,0,.39,0,.78,0,.4,0,.79a.84.84,0,0,0,.31.6.72.72,0,0,0,.59.25c.43,0,.43,0,.65-.25a.91.91,0,0,0,.29-.64c0-.18,0-.42,0-.71s0-.46,0-.72-.07-.46-.08-.72v-.72c0-.46,0-1,0-1.44,0-.24,0-.48,0-.72s0-.48,0-.73,0-.47,0-.72,0-.47,0-.72,0-.48,0-.72c.08,0,.74-.13.81-.16a5.22,5.22,0,0,0,.62-.34,4.31,4.31,0,0,0,.59-.39,4,4,0,0,0,.54-.44,3.71,3.71,0,0,0,.46-.53,4,4,0,0,0,.39-.59,4.84,4.84,0,0,0,.23-.67,6.76,6.76,0,0,0,.2-.67c.07-.36.14-.6.16-.68s.1-.22.22-.19.27.06.42.06,0,0,.06,0a5.74,5.74,0,0,0,2.67-.54,5.47,5.47,0,0,0,1.43-.88A2.87,2.87,0,0,0,45.93,11a5.34,5.34,0,0,0,.58-2.6A5.81,5.81,0,0,0,44.78,4.53Z"/></g></g></svg>